<svg width="172" height="111" viewBox="0 0 172 111" xmlns="http://www.w3.org/2000/svg">
    <g fill-rule="nonzero" fill="none">
        <g fill="#6B1931">
            <path d="M83.936 34.425c-.114.28-.114.559 0 .894-.114 1.23-.228 2.347-.342 3.241-.113.894-.227 1.9-.454 2.962 0 1.509-.057 2.85-.17 4.08a20.929 20.929 0 0 1-.626 3.465c.057.279.057.503-.057.67-.114.224-.057.447.057.783-.285 1.061-.398 2.067-.455 3.073-.057 1.006-.228 1.956-.569 2.85.114.894.114 1.9 0 2.906-.113 1.006-.227 2.012-.284 2.906 0 .224.057.336.227.391a9.035 9.035 0 0 0-.113 2.18c.057.782.113 1.509.113 2.18-.056.111-.113.223-.113.279 0 .056-.057.112-.114.223.114 1.174.227 2.236.227 3.13.057.894.171 1.956.342 3.074.113.279.227.447.227.614.057.168.057.392.057.727.057.112.114.223.114.335 0 .112.056.224.113.335-.113 0-.227.056-.227.224 0 .112.057.112.17 0 .114-.112.171-.112.171.112.114.111.114.167 0 .167-.114-.056-.227 0-.284.056.057.112.057.28.057.391-.057.112 0 .28.056.392-.284 0-.34.223-.227.614-.341.112-.512.336-.512.615-.227 0-.284.112-.284.28-.114.055-.227.055-.227-.056 0-.112-.057-.168-.114-.224l-.512.224c-.113.056-.227.167-.227.335-.057.168-.17.168-.341-.056 0 .112.057.224.17.224.114 0 .114.111.057.279-.34.224-.682.224-1.023.056a5.348 5.348 0 0 1-1.024-.67A4.83 4.83 0 0 1 77 77.678c-.228-.39-.398-.726-.569-1.006a17.62 17.62 0 0 1-1.25-3.8 35.939 35.939 0 0 1-.626-4.415c-.114-1.564-.114-3.073-.114-4.694.057-1.565.057-3.073.17-4.526-.284.502-.454 1.061-.568 1.62a2.965 2.965 0 0 1-.625 1.341c-.057.28-.114.503-.17.671-.058.224-.171.335-.342.503a3.877 3.877 0 0 1-.853 1.9c-.454.559-.796 1.174-1.137 1.844-.682.503-1.307.95-1.876 1.286-.625.335-1.478.503-2.615.614-1.99-.056-3.582-.726-4.776-2.067a6.783 6.783 0 0 1-.568-.783c-.17-.28-.398-.503-.626-.782 0-.336-.056-.559-.227-.67-.114-.113-.17-.336-.114-.671-.056-.056-.113-.112-.17-.224-.057-.056-.057-.112-.17-.224a4.93 4.93 0 0 0-.114-1.005 8.51 8.51 0 0 0-.285-.95c-.455-2.571-.398-5.198.17-7.936a45.07 45.07 0 0 1 2.161-7.32c.114-1.007.455-1.901.91-2.683.455-.839.853-1.621 1.08-2.403.398-.615.796-1.23 1.137-1.845.341-.67.682-1.285.967-1.844.454-.28.852-.614 1.08-1.006.284-.447.568-.782.91-1.117.511-.392 1.193-.615 1.932-.727.74-.112 1.592-.168 2.388-.168.853 0 1.649.056 2.502.224.853.112 1.592.224 2.274.28.114-.224.114-.336 0-.504a.703.703 0 0 1-.228-.502c0-.336.114-.503.285-.615.227-.056.455-.056.739-.056.284.056.625.056.91.168.284.055.568.055.852-.112.796.112 1.592.223 2.388.28.91-.168 1.592.167 2.104.67zm-20.013 33.14c-.113-.112-.17-.112-.17 0 .057.111.114.111.17 0zm6.027-11.792v.223c.114 0 .227-.056.227-.167.057-.112 0-.168-.057-.224l-.17.168c.114-.224.227-.392.284-.56.057-.167.17-.334.284-.558l-.113-.112c.113-.223.227-.447.284-.726a.987.987 0 0 1 .398-.615c-.114-.112-.17-.28-.057-.391.114-.112.227-.224.341-.224-.114-.112-.17-.28-.114-.503.057-.223.171-.335.285-.503.057.112.057.224-.057.336-.114.111-.17.223-.17.447.284-.28.397-.56.397-.894 0-.336.057-.615.114-.895 0 .112.057.224.227.224.057-.28.17-.447.228-.615.113-.112.17-.335.17-.614-.057-.056-.113-.056-.17.055-.057.112-.057.056-.057-.055.114-.112.227-.28.227-.448 0-.167.114-.223.285-.223-.114-.335-.114-.559.113-.67.228-.112.228-.28.114-.504.284-.056.398-.28.398-.67 0-.391.114-.615.398-.615 0-.503.057-.894.227-1.118.114-.223.285-.559.398-.95-.057-.223-.057-.335.057-.503.114-.111.057-.28-.057-.39.285-.336.398-.727.398-1.174 0-.448.114-.727.285-.895-.114-.279-.114-.503.056-.67.171-.224.171-.391-.056-.615.113-.112.17-.28.17-.503-.057-.223 0-.391.057-.615-.057-.447-.227-.894-.512-1.397-.057 0-.113-.056-.227-.112-.512 0-.967.224-1.308.671-.739.615-1.307 1.285-1.762 2.18-.455.838-.967 1.62-1.535 2.347 0 .111-.057.335-.17.614-.114.28-.228.448-.342.615-.114.615-.34 1.174-.568 1.844-.228.615-.512 1.23-.853 1.845 0 .67-.228 1.173-.682 1.453a5.693 5.693 0 0 1-.626 2.179c-.34.67-.511 1.453-.625 2.347-.398.391-.512.783-.398 1.062 0 .056-.057.112-.114.112s-.114.056-.114.223c-.056.503-.113 1.062-.17 1.565-.057.503-.114 1.062-.227 1.565-.057 1.956.113 3.912.625 5.924.114.055.17.055.17-.056-.056-.112 0-.112.171-.056.455-.894.91-1.844 1.25-2.85.342-1.006.797-1.956 1.252-2.85 0 .223.056.223.227.055.114-.167.114-.279 0-.335 0 .056-.057.112-.114.168-.057.056-.113 0-.113-.056.227-.224.284-.28.227-.28 0 .112.057.224.227.224.114-.223.114-.335 0-.391-.113-.056-.113-.224 0-.503.057 0 .114.056.114.112s.057.056.227 0a.846.846 0 0 0 .228-.56c0-.223.114-.334.398-.334 0-.112-.057-.168-.114-.168-.057.056-.114 0-.114-.168.057 0 .057-.056.057-.167-.057 0 0-.056.17-.056zm-.398 0c.114.111.114.223 0 .223-.17-.056-.17-.112 0-.223zm.17-.615c.114.056.171.112.057.168-.113.055-.113.055-.057.167-.113 0-.17-.056-.113-.112.113-.055.113-.111.113-.223zm2.502-5.197c.057-.112.114-.112.114 0 0 .111-.057.111-.114 0zm1.706-4.695c0 .112-.057.112-.114 0 .114-.167.114-.167.114 0zm.113-1.9c0 .224-.057.28-.113.28 0-.168.056-.28.113-.28zM112.248 54.376c-.398.111-.625.39-.625.726-.057.335-.057.782-.057 1.23.227.055.284 0 .227-.224-.057-.224 0-.335.228-.224 0-.055-.057-.111-.228-.111 0-.28.114-.447.285-.615.113.726.17 1.397.113 2.068-.057.67-.057 1.34.114 2.067h-.284c0 .112.057.28.227.392-.227.223-.227.447 0 .726.227.28.17.559-.114.727 0 .223.057.447.228.67.17.28.17.447-.057.615.114.112.227.335.227.67.057.336 0 .56-.17.671.227.391.284.615.284.67.114 0 .227-.055.227-.223.114 0 .171.168.171.447-.057.28.057.503.227.56-.34.334-.34.614 0 .893 0 .112-.056.224-.17.224-.114 0-.17.056-.17.112.227.111.284.279.227.503.057.055.113.111.17.111.057 0 .057.056.057.224l-.114-.112c-.056-.056-.113-.056-.17-.056-.057.056 0 .056.17.056-.113.224-.113.28.057.224.17-.056.228 0 .17.167-.113 0-.17.056-.17.112.057.056.057.112.17.112-.056.112-.056.223.115.223.113.056.113.112 0 .224.34 0 .511.112.625.335.057.224.227.391.512.56-.057 0-.114.055-.114.11.057 0 .057 0 .057-.055-.057-.056 0-.056.057-.056.113.056.17.168.17.224-.057.111 0 .167.17.167 0 .056-.056.112-.113.112s-.114.056-.114.224c.057 0 .114 0 .114.055 0 .056.057.056.227.056 0 .056 0 .112-.056.112-.057 0-.057.056-.057.112-.057-.056-.114 0-.114.168 0 .167.057.223.114.167.057.056.057.112 0 .168-.057.056-.057.056.113.167-.113.112-.113.224 0 .224 0 .056 0 .056-.056.056-.057-.056 0 0 .056.168-.227.055-.284.167-.227.223.057.112.057.168-.114.224-.057-.056-.113-.056-.17-.056-.057.056 0 .056.17.056 0 .111.057.167.17.111a.307.307 0 0 0 .171-.279c.114.112.171.28.114.391-.057.112-.114.28-.114.391l-.227-.39c-.341.11-.512.279-.455.39.057.112-.114.224-.455.224-.057.223-.057.28.114.28 0 .111-.057.167-.17.167-.114-.056-.114 0-.057.168-.114-.056-.228-.056-.285-.056-.056.056-.17 0-.284-.168-.114.056-.114.112 0 .224.114.056.114.111-.114.111.057-.223.057-.223-.056-.167-.114.056-.057.167.056.167 0 .056.057.112.114.112-.057.112-.114.168-.227.112-.057-.056-.114-.112-.114-.224-.057.224-.17.224-.284.168-.114-.112-.285-.168-.512-.168.057.28.057.503 0 .671-.284-.112-.568-.224-.91-.224 0-.055.057-.111.228-.111-.057-.112-.284-.224-.626-.224 0-.335-.227-.559-.625-.615-.398-.111-.682-.335-.796-.614l-.114-.112v-.112h-.113v-.112c0 .056-.057.112-.114.112.057-.335 0-.559-.227-.615-.228-.111-.341-.167-.512-.223.057-.112.057-.224.057-.224-.057-.056-.057-.111-.057-.223-.114-.056-.17-.056-.17.056.056.111 0 .111-.171.056.114-.056.17-.168.114-.224-.057-.112-.171-.168-.285-.223 0-.056.057-.056.114-.056.057.056.114 0 .227-.056-.056-.112-.17-.224-.227-.28-.114-.056-.17-.167-.227-.28l.113-.223c0-.056-.057-.111-.113-.223-.057-.056-.114-.056-.114 0-.114-.112-.228-.335-.228-.67h.114c-.114.111-.114.223.114.223v.112c.114-.056.227-.056.227 0 .114-.112.17-.224.114-.28-.057-.056-.114-.056-.17.056-.057.112-.057.168-.171.168l-.114-.224c0-.056.057-.112.114-.223-.284 0-.341-.056-.284-.224.056 0 .17-.056.284-.112-.114-.112-.228-.167-.228-.112 0 .056-.056.112-.227.112.057 0 .114-.112.114-.39.34.11.511.055.511-.28-.056-.056-.17-.112-.227-.168-.114-.056-.057-.168.057-.335-.114 0-.17.056-.17.167.056.112 0 .168-.058.168-.056-.28-.056-.391.057-.335.114.056.228 0 .341-.168-.113 0-.227-.056-.227-.224l-.227.112v.112c-.114-.112-.228-.335-.285-.559-.057-.223.057-.391.285-.559 0-.223-.057-.335-.17-.503-.115-.111-.058-.279.17-.503-.285-.055-.342-.335-.228-.782-.227 0-.284.112-.284.28 0 .223-.114.279-.284.279-.114-.28-.057-.559.284-.894a.42.42 0 0 1-.114-.224c0-.112.057-.167.228-.167-.057-.336-.057-.671-.057-1.006.057-.336 0-.671-.057-1.062-.057.056-.114.112-.114.223-.113-.111-.17-.335-.113-.614.056-.28.056-.447-.114-.615.057 0 .114-.056.114-.168 0-.112.056-.112.227-.056a112.203 112.203 0 0 0-.17-2.682c-.057-.727 0-1.509.17-2.291h.284v-.503c-.114-.056-.227-.056-.227 0s-.057.111-.114.111c-.057-.111 0-.279.17-.39.171-.113.285-.168.342-.113 0-.335.057-.502.113-.614.228.223.285.167.285-.112 0-.056-.057-.112-.228-.112-.113 0-.17.056-.113.224-.057 0-.114-.056-.114-.112v-.112c0-.112.057-.167.114-.112.056.056.17.056.284 0 0-.223 0-.335-.057-.39-.057-.057 0-.224.057-.392v-.223c-.114 0-.114.055 0 .223-.284 0-.398.112-.455.391-.057.28-.17.391-.455.391 0-.111 0-.335.057-.558.057-.224.057-.392.057-.56a.438.438 0 0 0-.284-.111c.227-.391.284-.838.227-1.285-.057-.447 0-.95.057-1.453a6.441 6.441 0 0 0-.341-.839c-.114-.223-.057-.447.057-.726-.228-.727-.228-1.509-.057-2.347.17-.839.17-1.51-.057-1.956.227-1.397.284-2.683.284-3.912 0-1.23-.057-2.515-.227-3.744-.455.39-.853.782-1.194 1.23-.341.446-.682.837-1.08 1.229 0 .111.057.223.227.223-.398.391-.796.782-1.08 1.23-.341.447-.682.838-1.023 1.229 0 .056.056.112.227.112-.91 1.509-1.82 3.073-2.729 4.638-.853 1.565-1.478 3.186-1.82 4.806 0 .112-.056.224-.113.224s-.114.056-.114.112c0 .055.057.111.114.111-.398.615-.625 1.23-.625 1.844-.057.671-.17 1.286-.341 1.956 0 .112-.057.224-.114.224-.057.056-.114.112-.114.224v.223c0 .056.057.112.114.224-.114.447-.284.894-.398 1.285a7.57 7.57 0 0 0-.284 1.397 38.928 38.928 0 0 1-.285 2.906c-.113.894-.227 1.844-.227 2.794a35.014 35.014 0 0 0-.341 1.789c-.114.67-.17 1.285-.17 1.956-.228.894-.455 1.844-.797 2.738-.34.894-.852 1.62-1.591 2.068h-1.706a14.088 14.088 0 0 0-.967-.895c-.284-.279-.568-.558-.739-.894-.056-.056-.056-.167.114-.28-.739-1.284-1.25-2.85-1.535-4.638-.284-1.788-.512-3.52-.625-5.197-.398-3.632-.455-7.488-.114-11.68.341-4.191.853-8.27 1.592-12.294.114-.615.455-.894.966-.838.512.055.91.167 1.251.447.341-.224.796-.224 1.365 0 .568.223 1.023.335 1.364.503.057 0 .114.055.114.111s-.057.056-.228 0c.341.28.569.615.683 1.062.113.447.227.95.227 1.509.057.559.057 1.174.057 1.788 0 .615.057 1.174.227 1.62.341-.39.626-.893.796-1.452.228-.559.512-1.006 1.023-1.341-.113-.336-.056-.56.228-.67.284-.113.398-.336.341-.672.341-.279.625-.558.853-.95.227-.335.455-.726.625-1.117.114 0 .228-.056.228-.112l.227-.224c0-.055 0-.111-.057-.111s-.057-.056-.057-.224c.626-.615 1.137-1.173 1.535-1.844.455-.615.91-1.23 1.478-1.844.228 0 .285.056.285.112.284-.503.625-.95 1.023-1.286.455-.335.796-.726 1.137-1.285.114.112.284.112.455-.112.17-.223.341-.391.455-.615 0 .112 0 .168.057.112.056-.056.113-.112.227-.112-.057-.111-.057-.223 0-.223l.227-.224h.285c.057 0 .17-.056.284-.223 1.308.112 2.672.335 3.98.614 1.307.28 2.33.895 3.07 1.845h-.114v.223c.284.336.455.783.512 1.341.056.56.056 1.118-.114 1.621.057.615.114 1.285.114 2.012 0 .782-.057 1.509-.228 2.235.114.447.114.894-.057 1.342-.17.447-.17.782-.056 1.117-.057.056-.057.168-.057.224.057.112 0 .112-.17.056.056.614 0 1.061-.171 1.397-.171.335-.171.782-.057 1.397-.114.28-.228.391-.285.391.114.391.114.727 0 1.006-.113.28-.227.67-.284 1.118.057.503-.057.894-.284 1.061.227.336.227.615.17.783-.056.168-.056.447.057.782a.438.438 0 0 1-.284.112c.227.335.227.615.057.838-.17.224-.17.503-.057.839-.114-.056-.17-.056-.17.111.056.112 0 .224-.057.224.113.112.17.28.113.391-.056.112-.17.28-.284.503.114.28.17.503.17.615-.056.167-.056.39-.056.614-.341.28-.455.503-.398.727.057.223-.057.503-.284.838 0 .056.056.056.17.056.114-.056.114 0 .057.168.057-.112.17-.224.227-.224.057 0 .171-.056.171-.223.057 0 .057.056.057.167.114-.056.17-.056.284-.111zm-5.458 10.059c-.057.112 0 .112.17 0 .058.112 0 .223-.17.223-.17.056-.227 0-.227-.056 0-.223.057-.335.114-.39.113 0 .17.055.113.223zm.057-3.074c-.057 0-.114-.112-.114-.28.285 0 .341.112.114.28zm.114-7.153v.391c-.057 0-.114-.056-.114-.223 0-.112.057-.168.114-.168zm0 13.636c-.057 0-.114-.056-.114-.224.057.056.114.112.114.224.113 0 .17.056.113.111-.113.056-.113.056-.113-.111zm0-14.921h.227c-.057 0-.114.111-.114.279-.113 0-.113-.112-.113-.28zm0 12.015c.057 0 .113.111.113.28-.113 0-.113-.113-.113-.28zm.682-10.45c-.114.111-.227.223-.284.223.113.28.113.503-.114.67-.057-.055-.114-.055-.17-.055-.057.055 0 .055.17.055 0 .056 0 .112-.057.112s-.057.056-.057.112c.228.224.228.391.114.615.057.056.114.056.17-.056.057-.112.057-.056.171.056-.284.056-.34.167-.227.28a.34.34 0 0 1 .057.39l.227.224c-.114.112-.114.223 0 .223-.057.056-.227.112-.398.112.114.112.114.224 0 .28-.114.056-.114.167 0 .28h.114c.057-.057.113-.113.227-.113 0 .056-.057.112-.114.224-.056.056-.056.112.114.112.228-.224.284-.447.228-.671-.057-.28 0-.615.17-1.006-.114 0-.227 0-.227.056s-.057.056-.114.056c0-.056 0-.112-.057-.112s-.057-.056-.057-.112c.285 0 .398-.223.398-.614-.227.111-.284.167-.284.111 0-.056-.057-.167-.114-.28.114 0 .228 0 .228-.055 0-.056.057-.056.227-.056-.114-.223-.17-.391-.114-.559-.056-.223-.056-.39-.227-.503v-.167c-.114-.056-.227-.056-.227.111.056.112.113.112.227.056zm-.17 5.197c-.228-.224-.285-.224-.285 0-.057.111-.057.223.114.223.114 0 .17-.056.17-.223zm-.228 8.103c-.114 0-.17-.056-.057-.168.114-.112.114-.056.057.168zm-.114-6.539c.057.112.114.112.114 0 0-.111 0-.111-.114 0zm.341 5.645c-.113.111-.113.223 0 .223-.056.056-.113.112-.113.224-.114 0-.228-.056-.228-.224 0-.223.114-.28.341-.223zm0-6.036c0-.056.057-.167.114-.28.057-.111.057-.223-.114-.223-.113 0-.227.056-.227.224 0 .223.057.28.227.28zm0-2.515c-.056.224-.056.28.114.28.057 0 .114-.056.114-.224 0-.112-.057-.223-.228-.223v.167c0-.111-.056-.167-.113-.111-.057.055-.057.111.113.111zm-.113 1.174c.113.056.17.223.113.391.228-.223.228-.335.171-.503-.114-.112-.057-.335.057-.67-.284.055-.341.167-.284.279 0 .112 0 .28-.057.503zm0-6.203c.057-.112.113-.112.113.056 0 .167-.056.111-.113-.056zm0 2.347c.057-.112.113-.112.113 0 0 .168-.056.168-.113 0zm0 4.638c.227 0 .284-.111.284-.28-.17 0-.284.057-.284.28zm.17 2.46a.42.42 0 0 0-.113.223c0 .112-.057.167-.114.223.057.056.17.168.227.336.114.167.057.335-.17.558.113 0 .17.056.17.168-.057.112 0 .112.17.056.058 0 .058-.056 0-.112-.056-.056-.056-.112.115-.112v.224c-.228 0-.285.112-.285.28 0 .055.057.055.17.055.115-.056.171 0 .171.056-.056.056-.113.168-.17.224-.057.111 0 .167.17.167v-.279a.42.42 0 0 1 .114.223c0 .056.057.168.228.168-.114-.28-.228-.447-.285-.615.285-.503.341-1.117.228-1.844-.114-.67-.228-1.341-.285-2.012-.113.392-.17.727-.17 1.006.057.28 0 .56-.17.894-.058.056-.058.112 0 .112zm-.057-11.234c.114 0 .171-.055.114-.111-.114-.056-.114 0-.114.111zm.285 2.348c-.285.111-.285.223-.114.223.227.056.227 0 .114-.223zm0-1.342v.224h-.228v-.224h.228zm-.228 10.227c0-.056.057-.056.114 0h-.114zm.228-9.165c-.114.112-.17.224-.057.224.114 0 .114-.056.057-.224zm-.114 6.874c.057 0 .114 0 .114.056s.057.056.113.056c0-.112-.056-.224-.113-.224-.057.056-.114.056-.114.112zm.227 5.253c-.227.335-.113.503.228.503 0-.056.057-.112.114-.168.056-.055.113-.111.113-.223-.227-.112-.34-.112-.455-.112v-.112h-.227c.057 0 .114 0 .114.056 0 0 .057.056.113.056zm-.113 3.241c0 .112 0 .224-.057.224s-.057-.056-.057-.224h.114zm.113-3.576v.223h.512v.224c0-.112-.057-.335-.227-.615-.114.112-.228.168-.285.168zm.285 1.23c-.114 0-.17-.057-.17-.113.056-.055 0-.055-.171 0 0 .056.056.112.113.224.114 0 .17 0 .228-.112zm.113 1.061c0 .056-.056.056-.227.056-.114-.056-.17 0-.114.168.228-.056.341-.056.512 0 0-.112 0-.168-.057-.168 0 0-.057 0-.114-.056-.056-.112-.056-.223 0-.223.057 0 .114-.056.114-.112h-.341c0 .223.057.335.227.335zm.114.559c0-.224-.114-.28-.398-.28 0 .224.114.28.398.28zm.057-.838v.223h.227c0-.167-.056-.223-.227-.223.114-.056.17-.112.114-.112-.057 0-.114-.056-.114-.224v.112h.227c0-.056-.056-.112-.113-.112s-.057-.056 0-.111c.113 0 .227 0 .227.055 0 .056.057 0 .227-.055-.227-.503-.34-.839-.511-1.006 0 .111 0 .223-.057.28-.057.055-.057.11-.057.223.057.055.114.111.17.111.058 0 .058.056.058.224-.114.223-.285.28-.512.28 0 .111.057.223.17.223.114 0 .114 0 .171.112zm-.284-.392h.227v-.223h-.227v.223zm.796-6.594h.227c.057-.112 0-.223-.17-.223-.171-.056-.228 0-.171.167.114-.056.114-.056.114.056zm.511-2.85c-.057-.224 0-.335.17-.391.171-.056.228-.224.228-.391-.113 0-.227 0-.227.055 0 .056-.057.056-.228.056.114-.28.228-.447.228-.503-.228 0-.341-.055-.398-.111.114.111.114.335-.057.614-.114.28-.057.503.284.671zm0 1.341c-.057.112-.113.224-.227.224-.057 0-.057.056 0 .223v.391h.114c.056 0 .113-.055.227-.111-.114-.056-.17-.224-.057-.391.114-.224.057-.336-.057-.503v.167zm-.113-6.37c.113-.392.284-.671.398-.895-.114 0-.228 0-.228-.056s-.057-.056-.227-.056c-.057.28-.057.615.057 1.006zm-.114 2.738h.227c.114-.112.114-.224-.113-.224-.057.112-.114.168-.114.224zm.341.223h-.284c0 .112.057.224.17.224.057-.056.114-.112.114-.224zm-.341 2.124c0 .223.057.335.114.503-.057 0-.114.056-.114.112.227-.056.341-.168.341-.28.057-.112 0-.28-.057-.391l-.227.224-.057-.168zm.227.95c0 .056.057.056.114.056 0-.056.057-.112.114-.224.057-.056.057-.112-.114-.223 0 .111-.057.167-.17.167-.114-.056-.171 0-.171.168.17 0 .227.056.227.056zm-.227 1.453c.057-.056.114-.112.227-.112-.113 0-.227 0-.227.112zm0 .838v.28c.341-.056.455-.224.455-.503-.057-.28-.114-.447-.228-.615 0 .559-.057.782-.227.838zm0 10.954c0 .055.057.111.114.111-.057.056-.057.112.113.112-.113-.056-.227-.112-.227-.223zm.398-18.33c-.284.055-.398.223-.341.39.057.224.17.336.34.392a1.81 1.81 0 0 1 0-.783zm-.057-2.348c-.114 0-.227.056-.227.112h.113c.057 0 .114-.056.114-.112zm-.227 13.189c.284-.056.34-.168.284-.335-.057-.168-.057-.336.114-.447-.285-.056-.398 0-.342.223a.854.854 0 0 1-.056.559zm0 .112c.056.056.113.112.113.223.114 0 .228-.056.228-.167 0-.112.057-.168.227-.168-.284-.056-.455-.056-.568.112zm.284-2.012c0-.112.057-.168.114-.224h-.228c-.227.112-.227.28-.114.392.171-.056.228-.112.228-.168zm0-7.712c0-.112-.057-.224-.228-.224.057.112.114.224.228.224zm0 8.606c0-.28-.057-.391-.114-.391-.057.28 0 .391.114.391zm.114 2.012c.056.112.113.112.113 0 0-.168-.057-.168-.113 0zm.227-2.794.114-.112v-.28c-.114 0-.228.056-.228.224-.113.112-.057.168.114.168zm0-4.303c.114-.056.227-.168.227-.224 0-.056.114-.168.285-.223-.341-.056-.512.111-.512.447zm0 3.353c.114-.056.227-.056.227 0s.057.111.114.111c.114-.055.17-.111.057-.223-.114-.056-.17-.112-.17-.224-.171.168-.228.28-.228.336zm.512-6.036c0-.056 0-.112.056-.112.057 0 .057-.056.057-.111h-.284v.223h.17zm.682-.503c0-.167-.057-.223-.228-.223 0 .111 0 .223.057.223.057.056 0 .112-.057.224.171 0 .228-.056.228-.224zm-.114 3.689c.114.111.17.167.17.055-.056-.111-.113-.111-.17-.055zm.114-3.856c.114.055.17.055.17-.056-.056-.112 0-.168.171-.168a.423.423 0 0 0-.114-.28c-.057.112-.113.224-.227.224-.057.056-.057.168 0 .28zm.227 3.52c.057-.056 0-.167-.057-.28-.113.113-.17.224-.17.336.057.112.114.168.227.168v-.224zm-.057 1.62c0 .113-.056.224-.113.224-.057.056-.057.056 0 .168l.227.112c.114-.224.17-.335.057-.447-.114-.112-.057-.168.17-.224-.113 0-.17-.056-.17-.167.057-.112 0-.168-.057-.168 0 .28 0 .391-.114.503zm.114 4.136c-.114 0-.227.056-.227.112h.113c.114-.056.114-.056.114-.112zm-.114-6.147c.228-.112.285-.335.228-.615-.057-.28.057-.559.341-.894-.284-.056-.455-.167-.512-.28-.113.56-.17 1.174-.057 1.79zm.114 2.794v.615c.114.056.17.168.114.335-.057.168-.114.336-.114.447.228 0 .341-.055.341-.167.057-.112.057-.224.17-.336-.283 0-.34-.167-.17-.447s.17-.447.057-.558a1.068 1.068 0 0 1-.398.111zm.228 2.46v-.224c-.114-.112-.228-.112-.228.056 0 .167.057.223.228.167zm.284-10.954c-.284 0-.398.056-.398.223 0 .168.057.28.227.336.17-.056.228-.28.17-.56v-.11c0-.057.058-.113.115-.224-.114.055-.114.167-.114.335zm0-.28c0-.111 0-.167.057-.167.057.056.057 0 .057-.168-.057-.056-.114-.056-.228.112-.057.168 0 .223.114.223zm.114-2.067c-.114.111-.114.223 0 .223.113 0 .113-.112 0-.223zm0 4.806c.113 0 .113.056 0 .223-.171-.111-.171-.223 0-.223zm0-5.7c-.057 0-.114.055-.114.111.057 0 .114-.056.114-.111zm.284 5.253-.114.111c0-.111.057-.111.114-.111zm0-.615c.113 0 .227.056.227.223-.17-.055-.227-.111-.227-.223zm.398 19.783a.438.438 0 0 1-.285.112h.114c.057-.112.114-.112.17-.112zm.511-1.118v.28c.057 0 .114-.112.114-.28h-.114zm.171-4.806c.057 0 .114.056.114.112s-.057.112-.114.112v-.224zm.74 1.286c.056.111.113.111.113 0-.057-.112-.057-.112-.114 0zm.34 1.844c-.057-.112-.057-.112-.17 0 .113.167.17.167.17 0zm.057.838c-.114 0-.227.056-.227.112h.113c.057-.056.114-.056.114-.112zm-.114.28c0-.112-.057-.112-.113 0 .056.111.113.111.113 0zm.512-1.9c0-.112.057-.168.17-.168.114.056.114.056.057.167h-.227zm0 .502c0-.111.057-.167.114-.111.057.111 0 .111-.114.111zm.057.671c0-.056.057-.056 0 0 .057 0 .114.056.114.224h-.114v-.224zm.455 1.006c.057-.112.113-.112.113 0-.056.112-.056.112-.113 0zM142.664 54.376c-.398.111-.625.39-.625.726-.057.335-.057.782-.057 1.23.227.055.284 0 .227-.224-.057-.224 0-.335.228-.224 0-.055-.057-.111-.228-.111 0-.28.114-.447.285-.615.113.726.17 1.397.113 2.068-.057.67-.057 1.34.114 2.067h-.284c0 .112.057.28.227.392-.227.223-.227.447 0 .726.228.28.17.559-.114.727 0 .223.057.447.228.67.17.28.17.447-.057.615.114.112.227.335.227.67.057.336 0 .56-.17.671.227.391.284.615.284.67.114 0 .228-.055.228-.223.113 0 .17.168.17.447-.057.28.057.503.227.56-.34.334-.34.614 0 .893 0 .112-.056.224-.17.224-.114 0-.17.056-.17.112.227.111.284.279.227.503.057.055.113.111.17.111.057 0 .057.056.057.224l-.114-.112c-.056-.056-.113-.056-.17-.056-.057.056 0 .056.17.056-.113.224-.113.28.057.224.17-.056.228 0 .17.167-.113 0-.17.056-.17.112.057.056.057.112.17.112-.056.112-.056.223.115.223.113.056.113.112 0 .224.34 0 .511.112.625.335.057.224.227.391.512.56-.057 0-.114.055-.114.11.057 0 .057 0 .057-.055-.057-.056 0-.056.057-.056.113.056.17.168.17.224-.057.111 0 .167.17.167 0 .056-.056.112-.113.112s-.114.056-.114.224c.057 0 .114 0 .114.055 0 .056.057.056.227.056 0 .056 0 .112-.056.112-.057 0-.057.056-.057.112-.057-.056-.114 0-.114.168 0 .167.057.223.114.167.057.056.057.112 0 .168-.057.056-.057.056.113.167-.113.112-.113.224 0 .224 0 .056 0 .056-.056.056-.057-.056 0 0 .056.168-.227.055-.284.167-.227.223.057.112.057.168-.114.224-.057-.056-.113-.056-.17-.056-.057.056 0 .056.17.056 0 .111.057.167.17.111a.307.307 0 0 0 .171-.279c.114.112.171.28.114.391-.057.112-.114.28-.114.391l-.227-.39c-.341.11-.512.279-.455.39.057.112-.113.224-.455.224-.056.223-.056.28.114.28 0 .111-.057.167-.17.167-.114-.056-.114 0-.057.168-.114-.056-.228-.056-.285-.056-.056.056-.17 0-.284-.168-.114.056-.114.112 0 .224.114.056.114.111-.114.111.057-.223.057-.223-.056-.167-.114.056-.057.167.056.167 0 .056.057.112.114.112-.057.112-.114.168-.227.112-.057-.056-.114-.112-.114-.224-.057.224-.17.224-.284.168-.114-.112-.284-.168-.512-.168.057.28.057.503 0 .671-.284-.112-.568-.224-.91-.224 0-.055.057-.111.228-.111-.057-.112-.284-.224-.625-.224 0-.335-.228-.559-.626-.615-.398-.111-.682-.335-.796-.614l-.113-.112v-.112h-.114v-.112c0 .056-.057.112-.114.112.057-.335 0-.559-.227-.615-.228-.111-.341-.167-.512-.223a.549.549 0 0 0 .057-.224c-.057-.056-.057-.111-.057-.223-.114-.056-.17-.056-.17.056.056.111 0 .111-.171.056.114-.056.17-.168.114-.224-.057-.112-.17-.168-.285-.223 0-.056.057-.056.114-.056.057.056.114 0 .227-.056-.056-.112-.17-.224-.227-.28-.114-.056-.17-.167-.227-.28l.113-.223c0-.056-.057-.111-.113-.223-.057-.056-.114-.056-.114 0-.114-.112-.227-.335-.227-.67h.113c-.113.111-.113.223.114.223v.112c.114-.056.227-.056.227 0 .114-.112.17-.224.114-.28-.057-.056-.114-.056-.17.056-.057.112-.057.168-.171.168l-.114-.224c0-.056.057-.112.114-.223-.284 0-.341-.056-.284-.224.057 0 .17-.056.284-.112-.114-.112-.227-.167-.227-.112 0 .056-.057.112-.228.112.057 0 .114-.112.114-.39.34.11.511.055.511-.28-.056-.056-.17-.112-.227-.168-.114-.056-.057-.168.057-.335-.114 0-.17.056-.17.167.056.112 0 .168-.057.168-.057-.28-.057-.391.056-.335.114.056.228 0 .341-.168-.113 0-.227-.056-.227-.224l-.227.112v.112c-.114-.112-.228-.335-.285-.559-.056-.223.057-.391.285-.559 0-.223-.057-.335-.17-.503-.115-.111-.058-.279.17-.503-.285-.055-.341-.335-.228-.782-.227 0-.284.112-.284.28 0 .223-.114.279-.284.279-.114-.28-.057-.559.284-.894a.42.42 0 0 1-.114-.224c0-.112.057-.167.228-.167-.057-.336-.057-.671-.057-1.006.057-.336 0-.671-.057-1.062-.057.056-.114.112-.114.223-.113-.111-.17-.335-.113-.614.056-.28.056-.447-.114-.615.057 0 .114-.056.114-.168 0-.112.056-.112.227-.056a112.203 112.203 0 0 0-.17-2.682c-.057-.727 0-1.509.17-2.291h.284v-.503c-.113-.056-.227-.056-.227 0s-.057.111-.114.111c-.057-.111 0-.279.17-.39.171-.113.285-.168.342-.113 0-.335.057-.502.114-.614.227.223.284.167.284-.112 0-.056-.057-.112-.228-.112-.113 0-.17.056-.113.224-.057 0-.114-.056-.114-.112v-.112c0-.112.057-.167.114-.112.057.056.17.056.284 0 0-.223 0-.335-.057-.39-.057-.057 0-.224.057-.392v-.223c-.114 0-.114.055 0 .223-.284 0-.398.112-.455.391-.057.28-.17.391-.455.391 0-.111 0-.335.057-.558.057-.224.057-.392.057-.56a.438.438 0 0 0-.284-.111c.227-.391.284-.838.227-1.285-.057-.447 0-.95.057-1.453a6.441 6.441 0 0 0-.341-.839c-.114-.223-.057-.447.057-.726-.228-.727-.228-1.509-.057-2.347.17-.839.17-1.51-.057-1.956.227-1.397.284-2.683.284-3.912 0-1.23-.057-2.515-.227-3.744-.455.39-.853.782-1.194 1.23-.341.446-.682.837-1.08 1.229 0 .111.057.223.227.223-.398.391-.796.782-1.08 1.23-.341.447-.682.838-1.023 1.229 0 .056.057.112.227.112-.91 1.509-1.82 3.073-2.729 4.638-.853 1.565-1.478 3.186-1.82 4.806 0 .112-.056.224-.113.224s-.114.056-.114.112c0 .055.057.111.114.111-.398.615-.625 1.23-.625 1.844-.057.671-.17 1.286-.341 1.956 0 .112-.057.224-.114.224-.057.056-.114.112-.114.224v.223c0 .056.057.112.114.224-.114.447-.284.894-.398 1.285a7.57 7.57 0 0 0-.284 1.397 38.928 38.928 0 0 1-.285 2.906c-.113.894-.227 1.844-.227 2.794a35.014 35.014 0 0 0-.341 1.789c-.114.67-.17 1.285-.17 1.956-.228.894-.455 1.844-.797 2.738-.34.894-.852 1.62-1.591 2.068h-1.706a14.088 14.088 0 0 0-.966-.895c-.285-.279-.569-.558-.74-.894-.056-.056-.056-.167.114-.28-.739-1.284-1.25-2.85-1.535-4.638-.284-1.788-.512-3.52-.625-5.197-.398-3.632-.455-7.488-.114-11.68.341-4.191.853-8.27 1.592-12.294.114-.615.455-.894.966-.838.512.055.91.167 1.251.447.341-.224.796-.224 1.365 0 .568.223 1.023.335 1.364.503.057 0 .114.055.114.111s-.057.056-.228 0c.341.28.569.615.683 1.062.113.447.227.95.227 1.509.057.559.057 1.174.057 1.788 0 .615.057 1.174.227 1.62.341-.39.626-.893.796-1.452.228-.559.512-1.006 1.024-1.341-.114-.336-.057-.56.227-.67.284-.113.398-.336.341-.672.341-.279.625-.558.853-.95.227-.335.455-.726.625-1.117.114 0 .228-.056.228-.112l.227-.224c0-.055 0-.111-.057-.111s-.057-.056-.057-.224c.626-.615 1.137-1.173 1.535-1.844.455-.615.91-1.23 1.479-1.844.227 0 .284.056.284.112.284-.503.625-.95 1.023-1.286.455-.335.796-.726 1.137-1.285.114.112.284.112.455-.112.17-.223.341-.391.455-.615 0 .112 0 .168.057.112.057-.056.113-.112.227-.112-.057-.111-.057-.223 0-.223l.228-.224h.284c.057 0 .17-.056.284-.223 1.308.112 2.672.335 3.98.614 1.307.28 2.33.895 3.07 1.845h-.114v.223c.284.336.455.783.512 1.341.057.56.057 1.118-.114 1.621.057.615.114 1.285.114 2.012 0 .782-.057 1.509-.228 2.235.114.447.114.894-.057 1.342-.17.447-.17.782-.056 1.117-.057.056-.057.168-.057.224.057.112 0 .112-.17.056.056.614 0 1.061-.171 1.397-.17.335-.17.782-.057 1.397-.114.28-.228.391-.284.391.113.391.113.727 0 1.006-.114.28-.228.67-.285 1.118.057.503-.057.894-.284 1.061.227.336.227.615.17.783-.056.168-.056.447.057.782a.438.438 0 0 1-.284.112c.228.335.228.615.057.838-.17.224-.17.503-.057.839-.114-.056-.17-.056-.17.111.056.112 0 .224-.057.224.113.112.17.28.113.391-.056.112-.17.28-.284.503.114.28.17.503.17.615-.056.167-.056.39-.056.614-.341.28-.455.503-.398.727.057.223-.057.503-.284.838 0 .056.056.056.17.056.114-.056.114 0 .057.168.057-.112.17-.224.227-.224.057 0 .171-.056.171-.223.057 0 .057.056.057.167.114-.056.17-.056.284-.111zm-5.458 10.059c-.057.112 0 .112.17 0 .058.112 0 .223-.17.223-.17.056-.227 0-.227-.056 0-.223.057-.335.114-.39.113 0 .17.055.113.223zm.057-3.074c-.057 0-.114-.112-.114-.28.285 0 .342.112.114.28zm.114-7.153v.391c-.057 0-.114-.056-.114-.223 0-.112.057-.168.114-.168zm0 13.636c-.057 0-.114-.056-.114-.224.057.056.114.112.114.224.114 0 .17.056.114.111-.057.056-.114.056-.114-.111zm0-14.921h.227c-.057 0-.113.111-.113.279-.057 0-.114-.112-.114-.28zm0 12.015c.057 0 .114.111.114.28-.057 0-.114-.113-.114-.28zm.682-10.45c-.114.111-.227.223-.284.223.114.28.114.503-.114.67-.057-.055-.114-.055-.17-.055-.057.055 0 .055.17.055 0 .056 0 .112-.057.112s-.057.056-.057.112c.228.224.228.391.114.615.057.056.114.056.17-.056.058-.112.058-.056.171.056-.284.056-.34.167-.227.28a.34.34 0 0 1 .057.39l.227.224c-.114.112-.114.223 0 .223-.057.056-.227.112-.398.112.114.112.114.224 0 .28-.114.056-.114.167 0 .28h.114c.057-.057.114-.113.227-.113 0 .056-.057.112-.113.224-.057.056-.057.112.113.112.228-.224.284-.447.228-.671-.057-.28 0-.615.17-1.006-.114 0-.227 0-.227.056s-.057.056-.114.056c0-.056 0-.112-.057-.112s-.057-.056-.057-.112c.285 0 .398-.223.398-.614-.227.111-.284.167-.284.111 0-.056-.057-.167-.114-.28.114 0 .228 0 .228-.055 0-.056.057-.056.227-.056-.114-.223-.17-.391-.114-.559-.056-.223-.056-.39-.227-.503v-.167c-.114-.056-.227-.056-.227.111.057.112.113.112.227.056zm-.17 5.197c-.228-.224-.285-.224-.285 0-.057.111-.057.223.114.223.114 0 .17-.056.17-.223zm-.228 8.103c-.114 0-.17-.056-.057-.168.114-.112.114-.056.057.168zm-.114-6.539c.057.112.114.112.114 0 0-.111 0-.111-.114 0zm.342 5.645c-.114.111-.114.223 0 .223-.057.056-.114.112-.114.224-.114 0-.228-.056-.228-.224 0-.223.114-.28.342-.223zm0-6.036c0-.056.056-.167.113-.28.057-.111.057-.223-.113-.223-.114 0-.228.056-.228.224 0 .223.057.28.228.28zm0-2.515c-.057.224-.057.28.113.28.057 0 .114-.056.114-.224 0-.112-.057-.223-.227-.223v.167c0-.111-.057-.167-.114-.111-.057.055-.057.111.114.111zm-.114 1.174c.114.056.17.223.114.391.227-.223.227-.335.17-.503-.114-.112-.057-.335.057-.67-.284.055-.341.167-.284.279 0 .112 0 .28-.057.503zm0-6.203c.057-.112.114-.112.114.056 0 .167-.057.111-.114-.056zm0 2.347c.057-.112.114-.112.114 0 0 .168-.057.168-.114 0zm0 4.638c.227 0 .284-.111.284-.28-.17 0-.284.057-.284.28zm.17 2.46a.42.42 0 0 0-.113.223c0 .112-.057.167-.114.223.057.056.17.168.227.336.114.167.057.335-.17.558.114 0 .17.056.17.168-.056.112 0 .112.17.056.058 0 .058-.056 0-.112-.056-.056-.056-.112.115-.112v.224c-.228 0-.285.112-.285.28 0 .055.057.055.17.055.115-.056.171 0 .171.056-.056.056-.113.168-.17.224-.057.111 0 .167.17.167v-.279a.42.42 0 0 1 .114.223c0 .056.057.168.228.168-.114-.28-.228-.447-.285-.615.285-.503.341-1.117.228-1.844-.114-.67-.228-1.341-.285-2.012-.113.392-.17.727-.17 1.006.057.28 0 .56-.17.894-.057.056-.057.112 0 .112zm-.056-11.234c.113 0 .17-.055.113-.111-.113-.056-.113 0-.113.111zm.284 2.348c-.284.111-.284.223-.114.223.227.056.227 0 .114-.223zm0-1.342v.224h-.228v-.224h.228zm-.228 10.227c0-.056.057-.056.114 0h-.114zm.228-9.165c-.114.112-.17.224-.057.224.114 0 .114-.056.057-.224zm-.114 6.874c.057 0 .114 0 .114.056s.057.056.113.056c0-.112-.056-.224-.113-.224-.057.056-.114.056-.114.112zm.227 5.253c-.227.335-.113.503.228.503 0-.056.057-.112.114-.168.056-.055.113-.111.113-.223-.227-.112-.34-.112-.455-.112v-.112h-.227c.057 0 .114 0 .114.056 0 0 .057.056.113.056zm-.113 3.241c0 .112 0 .224-.057.224s-.057-.056-.057-.224h.114zm.113-3.576v.223h.512v.224c0-.112-.057-.335-.227-.615-.114.112-.228.168-.285.168zm.285 1.23c-.114 0-.17-.057-.17-.113.056-.055 0-.055-.171 0 0 .056.056.112.113.224.114 0 .17 0 .228-.112zm.113 1.061c0 .056-.056.056-.227.056-.114-.056-.17 0-.114.168.228-.056.341-.056.512 0 0-.112 0-.168-.057-.168 0 0-.057 0-.114-.056-.056-.112-.056-.223 0-.223.057 0 .114-.056.114-.112h-.284c-.057.223 0 .335.17.335zm.114.559c0-.224-.114-.28-.398-.28 0 .224.114.28.398.28zm.057-.838v.223h.227c0-.167-.056-.223-.227-.223.114-.056.17-.112.114-.112-.057 0-.114-.056-.114-.224v.112h.227c0-.056-.056-.112-.113-.112s-.057-.056 0-.111c.113 0 .227 0 .227.055 0 .056.057 0 .228-.055-.228-.503-.342-.839-.512-1.006 0 .111 0 .223-.057.28-.057.055-.057.11-.057.223.057.055.114.111.17.111.058 0 .058.056.058.224-.114.223-.285.28-.512.28 0 .111.057.223.17.223.114 0 .114 0 .171.112zm-.284-.392h.227v-.223h-.227v.223zm.796-6.594h.227c.057-.112 0-.223-.17-.223-.171-.056-.228 0-.171.167.114-.056.114-.056.114.056zm.511-2.85c-.056-.224 0-.335.17-.391.171-.056.228-.224.228-.391-.113 0-.227 0-.227.055 0 .056-.057.056-.227.056.113-.28.227-.447.227-.503-.227 0-.341-.055-.398-.111.114.111.114.335-.057.614-.114.28-.057.503.284.671zm0 1.341c-.056.112-.113.224-.227.224-.057 0-.057.056 0 .223v.391h.114c.057 0 .113-.055.227-.111-.114-.056-.17-.224-.057-.391.114-.224.057-.336-.057-.503v.167zm-.113-6.37c.113-.392.284-.671.398-.895-.114 0-.228 0-.228-.056s-.057-.056-.227-.056c-.057.28-.057.615.057 1.006zm-.114 2.738h.227c.114-.112.114-.224-.113-.224-.057.112-.114.168-.114.224zm.341.223h-.284c0 .112.057.224.17.224.057-.056.114-.112.114-.224zm-.341 2.124c0 .223.057.335.114.503-.057 0-.114.056-.114.112.227-.056.341-.168.341-.28.057-.112 0-.28-.057-.391l-.227.224-.057-.168zm.227.95c0 .056.057.056.114.056 0-.056.057-.112.114-.224.057-.056.057-.112-.114-.223 0 .111-.057.167-.17.167-.114-.056-.171 0-.171.168.17 0 .227.056.227.056zm-.227 1.453c.057-.056.114-.112.227-.112-.113 0-.227 0-.227.112zm0 .838v.28c.341-.056.455-.224.455-.503-.057-.28-.114-.447-.228-.615 0 .559-.056.782-.227.838zm0 10.954c0 .055.057.111.114.111-.057.056-.057.112.113.112-.113-.056-.227-.112-.227-.223zm.398-18.33c-.284.055-.398.223-.341.39.057.224.17.336.34.392a1.81 1.81 0 0 1 0-.783zm-.057-2.348c-.114 0-.227.056-.227.112h.113c.057 0 .114-.056.114-.112zm-.227 13.189c.284-.056.34-.168.284-.335-.057-.168-.057-.336.114-.447-.285-.056-.398 0-.341.223a.854.854 0 0 1-.057.559zm0 .112c.057.056.113.112.113.223.114 0 .228-.056.228-.167 0-.112.057-.168.227-.168-.284-.056-.398-.056-.568.112zm.284-2.012c0-.112.057-.168.114-.224h-.228c-.227.112-.227.28-.113.392.17-.056.227-.112.227-.168zm0-7.712c0-.112-.057-.224-.227-.224.056.112.113.224.227.224zm0 8.606c0-.28-.057-.391-.114-.391 0 .28 0 .391.114.391zm.114 2.012c.056.112.113.112.113 0 0-.168-.057-.168-.113 0zm.227-2.794.114-.112v-.28c-.114 0-.228.056-.228.224-.113.112-.057.168.114.168zm0-4.303c.114-.056.227-.168.227-.224 0-.056.114-.168.285-.223-.341-.056-.512.111-.512.447zm0 3.353c.114-.056.227-.056.227 0s.057.111.114.111c.114-.055.17-.111.057-.223-.114-.056-.17-.112-.17-.224-.171.168-.228.28-.228.336zm.512-6.036c0-.056 0-.112.057-.112.056 0 .056-.056.056-.111h-.284v.223h.17zm.682-.503c0-.167-.057-.223-.227-.223 0 .111 0 .223.056.223.057.056 0 .112-.056.224.17 0 .227-.056.227-.224zm-.114 3.689c.114.111.17.167.17.055-.056-.111-.113-.111-.17-.055zm.114-3.856c.114.055.17.055.17-.056-.056-.112 0-.168.171-.168a.423.423 0 0 0-.114-.28c-.057.112-.113.224-.227.224-.057.056-.057.168 0 .28zm.227 3.52c.057-.056 0-.167-.057-.28-.113.113-.17.224-.17.336.057.112.114.168.227.168v-.224zm-.057 1.62c0 .113-.056.224-.113.224-.057.056-.057.056 0 .168l.227.112c.114-.224.17-.335.057-.447-.114-.112-.057-.168.17-.224-.113 0-.17-.056-.17-.167.057-.112 0-.168-.057-.168 0 .28 0 .391-.114.503zm.114 4.136c-.114 0-.227.056-.227.112h.113c.114-.056.114-.056.114-.112zm-.114-6.147c.228-.112.285-.335.228-.615-.057-.28.057-.559.341-.894-.284-.056-.455-.167-.512-.28-.113.56-.17 1.174-.057 1.79zm.114 2.794v.615c.114.056.17.168.114.335-.057.168-.114.336-.114.447.228 0 .341-.055.341-.167.057-.112.057-.224.17-.336-.283 0-.34-.167-.17-.447s.17-.447.057-.558a1.068 1.068 0 0 1-.398.111zm.228 2.46v-.224c-.114-.112-.228-.112-.228.056 0 .167.057.223.228.167zm.284-10.954c-.284 0-.398.056-.398.223 0 .168.057.28.227.336.17-.056.228-.28.17-.56v-.11c0-.057.058-.113.115-.224-.057.055-.114.167-.114.335zm0-.28c0-.111 0-.167.057-.167.057.056.057 0 .057-.168-.057-.056-.114-.056-.228.112-.057.168 0 .223.114.223zm.114-2.067c-.114.111-.114.223 0 .223.113 0 .113-.112 0-.223zm0 4.806c.113 0 .113.056 0 .223-.171-.111-.171-.223 0-.223zm0-5.7c-.057 0-.114.055-.114.111.057 0 .114-.056.114-.111zm.284 5.253-.114.111c0-.111.057-.111.114-.111zm0-.615c.114 0 .227.056.227.223-.17-.055-.227-.111-.227-.223zm.398 19.783a.438.438 0 0 1-.284.112h.113c.057-.112.114-.112.17-.112zm.511-1.118v.28c.057 0 .114-.112.114-.28h-.114zm.171-4.806c.057 0 .114.056.114.112s-.057.112-.114.112v-.224zm.74 1.286c.056.111.113.111.113 0-.057-.112-.057-.112-.114 0zm.34 1.844c-.057-.112-.057-.112-.17 0 .17.167.17.167.17 0zm.057.838c-.114 0-.227.056-.227.112h.113c.057-.056.114-.056.114-.112zm-.114.28c0-.112-.056-.112-.113 0 .057.111.113.111.113 0zm.512-1.9c0-.112.057-.168.17-.168.114.056.114.056.057.167h-.227zm0 .502c0-.111.057-.167.114-.111.057.111 0 .111-.114.111zm.057.671c0-.056.057-.056 0 0 .057 0 .114.056.114.224h-.114v-.224zm.455 1.006c.057-.112.113-.112.113 0-.056.112-.056.112-.113 0zM172 34.425c-.114.28-.114.559 0 .894-.114 1.23-.227 2.347-.341 3.241-.114.894-.228 1.9-.455 2.962 0 1.509-.057 2.85-.17 4.08a20.929 20.929 0 0 1-.626 3.465c.057.279.057.503-.057.67-.113.224-.057.447.057.783-.284 1.061-.398 2.067-.455 3.073-.057 1.006-.227 1.956-.568 2.85.113.894.113 1.9 0 2.906-.114 1.006-.228 2.012-.284 2.906 0 .224.056.336.227.391-.114.671-.17 1.398-.114 2.18.057.782.114 1.509.114 2.18-.057.111-.114.223-.114.279 0 .056-.057.112-.113.223.113 1.174.227 2.236.227 3.13.057.894.17 1.956.341 3.074.114.279.227.447.227.614.057.168.057.392.057.727.057.112.114.223.114.335 0 .112.057.224.114.335-.114 0-.228.056-.228.224 0 .112.057.112.17 0 .115-.112.171-.112.171.112.114.111.114.167 0 .167-.113-.056-.227 0-.284.056.057.112.057.28.057.391-.057.112 0 .28.057.392-.284 0-.341.223-.228.614-.34.112-.511.336-.511.615-.228 0-.284.112-.284.28-.114.055-.228.055-.228-.056 0-.112-.057-.168-.114-.224l-.511.224c-.114.056-.228.167-.228.335-.057.168-.17.168-.34-.056 0 .112.056.224.17.224.113 0 .113.111.057.279-.341.224-.683.224-1.024.056a5.348 5.348 0 0 1-1.023-.67 4.83 4.83 0 0 1-.796-1.007c-.227-.39-.398-.726-.569-1.006a17.62 17.62 0 0 1-1.25-3.8 35.938 35.938 0 0 1-.626-4.415c-.113-1.564-.113-3.073-.113-4.694.056-1.565.056-3.073.17-4.526-.284.502-.455 1.061-.568 1.62a2.965 2.965 0 0 1-.626 1.341c-.057.28-.113.503-.17.671-.057.224-.17.335-.341.503a3.877 3.877 0 0 1-.853 1.9c-.455.559-.796 1.174-1.137 1.844-.682.503-1.308.95-1.876 1.286-.626.335-1.479.503-2.616.614-1.99-.056-3.581-.726-4.775-2.067a6.783 6.783 0 0 1-.569-.783c-.17-.28-.398-.503-.625-.782 0-.336-.057-.559-.227-.67-.114-.113-.171-.336-.114-.671-.057-.056-.114-.112-.17-.224-.058-.056-.058-.112-.171-.224a4.93 4.93 0 0 0-.114-1.005 8.51 8.51 0 0 0-.284-.95c-.455-2.571-.398-5.198.17-7.936a45.07 45.07 0 0 1 2.16-7.32c.114-1.007.456-1.901.91-2.683.455-.839.853-1.621 1.08-2.403.398-.615.796-1.23 1.138-1.845.34-.67.682-1.285.966-1.844.455-.28.853-.614 1.08-1.006.285-.447.569-.782.91-1.117.512-.392 1.194-.615 1.933-.727.739-.112 1.592-.168 2.388-.168.852 0 1.648.056 2.501.224.853.112 1.592.224 2.274.28.114-.224.114-.336 0-.504a.703.703 0 0 1-.227-.502c0-.336.114-.503.284-.615.228-.056.455-.056.74-.056.283.056.625.056.909.168.284.055.568.055.853-.112.796.112 1.592.223 2.387.28.91-.168 1.535.167 2.104.67zm-20.012 33.14c-.114-.112-.17-.112-.17 0 .056.111.113.111.17 0zm5.97-11.792v.223c.113 0 .227-.056.227-.167.057-.112 0-.168-.057-.224l-.17.168c.113-.224.227-.392.284-.56.057-.167.17-.334.284-.558l-.114-.112c.114-.223.228-.447.285-.726a.987.987 0 0 1 .397-.615c-.113-.112-.17-.28-.056-.391.113-.112.227-.224.34-.224-.113-.112-.17-.28-.113-.503.057-.223.17-.335.284-.503.057.112.057.224-.057.336-.113.111-.17.223-.17.447.284-.28.398-.56.398-.894 0-.336.057-.615.114-.895 0 .112.056.224.227.224.057-.28.17-.447.227-.615.114-.112.171-.335.171-.614-.057-.056-.114-.056-.17.055-.057.112-.057.056-.057-.055.113-.112.227-.28.227-.448 0-.167.114-.223.284-.223-.113-.335-.113-.559.114-.67.227-.112.227-.28.114-.504.284-.056.398-.28.398-.67 0-.391.113-.615.398-.615 0-.503.056-.894.227-1.118.114-.223.284-.559.398-.95-.057-.223-.057-.335.057-.503.113-.111.057-.28-.057-.39.284-.336.398-.727.398-1.174 0-.448.114-.727.284-.895-.114-.279-.114-.503.057-.67.17-.224.17-.391-.057-.615.114-.112.17-.28.17-.503-.056-.223 0-.391.058-.615-.057-.447-.228-.894-.512-1.397-.057 0-.114-.056-.228-.112-.511 0-.966.224-1.307.671-.74.615-1.308 1.285-1.763 2.18-.454.838-.966 1.62-1.535 2.347 0 .111-.056.335-.17.614-.114.28-.228.448-.341.615-.114.615-.341 1.174-.569 1.844-.227.615-.511 1.23-.853 1.845 0 .67-.227 1.173-.682 1.453a5.693 5.693 0 0 1-.625 2.179c-.341.67-.512 1.453-.626 2.347-.397.391-.511.783-.397 1.062 0 .056-.057.112-.114.112s-.114.056-.114.223c-.057.503-.114 1.062-.17 1.565-.057.503-.114 1.062-.228 1.565-.057 1.956.114 3.912.626 5.924.113.055.17.055.17-.056-.057-.112 0-.112.17-.056.455-.894.91-1.844 1.251-2.85.341-1.006.796-1.956 1.251-2.85 0 .223.057.223.228.055.113-.167.113-.279 0-.335 0 .056-.057.112-.114.168-.057.056-.114 0-.114-.056.228-.224.284-.28.228-.28 0 .112.056.224.227.224.114-.223.114-.335 0-.391-.114-.056-.114-.224 0-.503.057 0 .114.056.114.112s.057.056.227 0a.846.846 0 0 0 .227-.56c0-.223.114-.334.398-.334 0-.112-.056-.168-.113-.168-.057.056-.114 0-.114-.168.057 0 .057-.056.057-.167 0 0 .057-.056.17-.056zm-.399 0c.114.111.114.223 0 .223-.113-.056-.113-.112 0-.223zm.228-.615c.114.056.17.112.057.168-.114.055-.114.055-.057.167-.114 0-.17-.056-.114-.112.057-.055.114-.111.114-.223zm2.501-5.197c.057-.112.114-.112.114 0 0 .111-.057.111-.114 0zm1.706-4.695c0 .112-.057.112-.114 0 .057-.167.114-.167.114 0zm.114-1.9c0 .224-.057.28-.114.28 0-.168 0-.28.114-.28z"/>
        </g>
        <g fill="#212322">
            <path d="M61.99 98.189a3.182 3.182 0 0 1-.682-2.012l1.194-.335c.057.615.17 1.118.341 1.453.228.391.512.559 1.024.559.34 0 .625-.112.796-.28.17-.167.284-.447.284-.838 0-.391-.057-.727-.228-.95-.17-.28-.454-.559-.796-.838l-1.648-1.397c-.341-.28-.569-.56-.682-.895-.171-.335-.228-.726-.228-1.173 0-.67.228-1.23.625-1.62.398-.392.967-.56 1.65-.56.738 0 1.364.224 1.705.615.398.391.625 1.006.682 1.844l-1.137.28c-.057-.56-.17-1.006-.341-1.286-.17-.28-.512-.447-.967-.447-.34 0-.625.112-.796.28-.17.167-.284.447-.284.782 0 .28.057.503.17.727.114.223.285.39.512.558l1.65 1.398c.397.39.738.782 1.022 1.173.228.447.398.894.398 1.453 0 .67-.227 1.23-.625 1.677a2.395 2.395 0 0 1-1.649.614c-.91-.056-1.535-.28-1.99-.782zM67.335 89.303h3.752v1.006h-2.388v3.13h1.933v.95H68.7v3.465h2.445v.95H67.39v-9.5zM72.338 89.303h1.933c.966 0 1.705.224 2.16.615.455.391.682 1.062.682 1.956 0 1.23-.398 1.956-1.194 2.235l1.365 4.75h-1.308l-1.25-4.47h-1.024v4.47h-1.364v-9.556zm1.876 4.08c.568 0 1.023-.112 1.25-.335.228-.224.398-.615.398-1.23 0-.391-.056-.67-.113-.894-.057-.224-.228-.391-.455-.503-.227-.112-.512-.168-.967-.168h-.568v3.13h.455zM78.819 89.303h1.307l1.706 7.712 1.706-7.712h1.307l.17 9.5h-1.08l-.113-6.873-1.649 6.874h-.739l-1.649-6.874-.113 6.874h-1.08zM87.062 98.133c-.398-.503-.625-1.285-.625-2.291v-3.577c0-1.006.227-1.732.625-2.235.398-.503 1.08-.783 2.047-.783.967 0 1.592.28 2.047.783.398.503.625 1.23.625 2.235v3.633c0 1.006-.227 1.732-.625 2.291-.398.559-1.08.782-1.99.782-1.023-.056-1.649-.335-2.104-.838zm3.07-.726c.171-.28.285-.727.285-1.342v-4.191c0-.559-.114-1.006-.285-1.285-.17-.28-.511-.392-1.023-.392-.512 0-.853.112-1.023.392-.17.28-.284.726-.284 1.285v4.191c0 .56.113 1.006.284 1.342.17.279.511.447 1.023.447.512 0 .853-.112 1.023-.447zM93.202 89.303h.91l2.73 6.315v-6.315h1.136v9.5h-.853l-2.785-6.482v6.483h-1.138v-9.5zM100.025 98.189a3.182 3.182 0 0 1-.682-2.012l1.193-.335c.057.615.171 1.118.342 1.453.227.391.511.559 1.023.559.341 0 .625-.112.796-.28.17-.167.284-.447.284-.838 0-.391-.057-.727-.227-.95a5.189 5.189 0 0 0-.796-.838l-1.649-1.397c-.341-.28-.568-.56-.682-.895-.17-.335-.228-.726-.228-1.173 0-.67.228-1.23.626-1.62.398-.392.966-.56 1.649-.56.739 0 1.364.224 1.705.615.398.391.625 1.006.682 1.844l-1.137.28c-.057-.56-.17-1.006-.34-1.286-.171-.28-.513-.447-.967-.447-.341 0-.626.112-.796.28-.17.167-.285.447-.285.782 0 .28.057.503.171.727.114.223.284.39.512.558l1.648 1.398c.398.39.74.782 1.024 1.173.227.447.398.894.398 1.453 0 .67-.228 1.23-.626 1.677a2.395 2.395 0 0 1-1.648.614c-.91-.056-1.535-.28-1.99-.782zM108.268 89.303h3.753v.95h-2.388v3.186h1.876v.95h-1.876v4.47h-1.365v-9.556zM113.442 98.133c-.398-.503-.625-1.285-.625-2.291v-3.577c0-1.006.227-1.732.625-2.235.398-.503 1.08-.783 2.047-.783.966 0 1.592.28 2.046.783.398.503.626 1.23.626 2.235v3.633c0 1.006-.228 1.732-.626 2.291-.398.559-1.08.782-1.99.782-.966-.056-1.648-.335-2.103-.838zm3.07-.726c.17-.28.284-.727.284-1.342v-4.191c0-.559-.113-1.006-.284-1.285-.17-.28-.512-.392-1.023-.392-.512 0-.853.112-1.024.392-.17.28-.284.726-.284 1.285v4.191c0 .56.114 1.006.284 1.342.17.279.512.447 1.024.447.511 0 .852-.112 1.023-.447zM119.582 89.303h1.933c.967 0 1.706.224 2.16.615.455.391.683 1.062.683 1.956 0 1.23-.398 1.956-1.194 2.235l1.364 4.75h-1.307l-1.251-4.47h-1.024v4.47h-1.364v-9.556zm1.876 4.08c.569 0 1.024-.112 1.25-.335.228-.224.399-.615.399-1.23 0-.391-.057-.67-.114-.894-.057-.224-.227-.391-.455-.503-.227-.112-.511-.168-.966-.168h-.569v3.13h.455zM129.815 90.31h-1.648v-1.007h4.548v1.006h-1.592v8.495h-1.364v-8.495zM133.795 89.303h1.365v4.08h2.501v-4.08h1.365v9.5h-1.365v-4.47h-2.501v4.47h-1.365zM140.617 89.303h3.753v1.006h-2.388v3.13h1.933v.95h-1.933v3.465h2.445v.95h-3.753v-9.5zM148.861 98.189a3.182 3.182 0 0 1-.682-2.012l1.194-.335c.057.615.17 1.118.34 1.453.228.391.513.559 1.024.559.341 0 .626-.112.796-.28.17-.167.284-.447.284-.838 0-.391-.056-.727-.227-.95a5.189 5.189 0 0 0-.796-.838l-1.649-1.397c-.34-.28-.568-.56-.682-.895-.17-.335-.227-.726-.227-1.173 0-.67.227-1.23.625-1.62.398-.392.967-.56 1.649-.56.739 0 1.364.224 1.705.615.398.391.626 1.006.683 1.844l-1.137.28c-.057-.56-.171-1.006-.342-1.286-.17-.28-.511-.447-.966-.447-.341 0-.625.112-.796.28-.17.167-.284.447-.284.782 0 .28.057.503.17.727.114.223.285.39.512.558l1.649 1.398c.398.39.739.782 1.023 1.173.227.447.398.894.398 1.453 0 .67-.227 1.23-.625 1.677a2.395 2.395 0 0 1-1.65.614c-.909-.056-1.534-.28-1.989-.782zM154.66 98.133c-.398-.503-.625-1.285-.625-2.291v-3.577c0-1.006.227-1.732.625-2.235.398-.503 1.08-.783 2.047-.783.966 0 1.592.28 2.046.783.398.503.626 1.23.626 2.235v3.633c0 1.006-.228 1.732-.626 2.291-.398.559-1.08.782-1.99.782-1.023-.056-1.705-.335-2.103-.838zm3.07-.726c.17-.28.284-.727.284-1.342v-4.191c0-.559-.113-1.006-.284-1.285-.17-.28-.512-.392-1.023-.392-.512 0-.853.112-1.024.392-.17.28-.284.726-.284 1.285v4.191c0 .56.114 1.006.284 1.342.17.279.512.447 1.024.447.511 0 .796-.112 1.023-.447zM161.71 98.524c-.398-.28-.626-.614-.796-1.117-.17-.503-.228-1.062-.228-1.789v-6.315h1.308v6.371c0 .727.114 1.286.284 1.62.17.392.512.56 1.024.56.511 0 .852-.168 1.023-.56.17-.39.284-.95.284-1.62v-6.37h1.25v6.314c0 .727-.056 1.342-.226 1.789-.171.503-.398.838-.796 1.117-.398.28-.91.391-1.592.391-.626 0-1.194-.111-1.535-.39zM167.395 89.303h1.364v8.55h2.445v.95h-3.809z"/>
        </g>
        <g fill="#6B1931">
            <path d="M65.345 74.885c-.114 0-.228-.167-.341-.223v-.056c-.228 0-.341-.336-.626-.336-.739-.167-1.762-.111-2.558 0-.114.336-.398.224-.625.224-.683.335-1.422.112-2.16.335-.058.224-.115.056-.171.168 0 0 .056-.056.056-.168-.398-.28-.682.336-1.023 0-.227.224-.398.056-.625.056-.512 0-1.024.335-1.478.447 0-.167.056-.056.056-.167-.17-.168-.284.167-.398.223 0-.168.114-.056.114-.223-.17-.28-.455.67-.682.223.114 0 .341 0 .398-.335-.228.056-.398.223-.625.391 0-.056 0-.056.056-.168-.34.056-.739.112-.966.447-.341.168-.74 0-1.08.392l-.569.111c-.057 0-.114 0-.17.056v-.056c0 .056 0 .056-.057.112l-.057.056-1.137.28v.055c-.057 0-.114 0-.17-.056 0 .056-.058.056-.171.112v-.056c-.114-.056-.17 0-.285.112h-.17v-.056h-.114c-.113 0-.227-.056-.227-.112-.057-.055-.057-.111-.17-.223.113-.112.17-.224.113-.335a1.168 1.168 0 0 0-.227-.336c.34-.223.454-.447.284-.782-.114-.335-.057-.615.227-.894-.113-.112-.227-.28-.227-.391.114-.503.17-1.006.057-1.453-.114-.447-.114-.95-.057-1.453-.114 0-.228-.056-.228-.224.228-.056.285-.223.285-.447a.711.711 0 0 0-.228-.559c.228-.223.228-.559.114-1.062a.423.423 0 0 1-.114.28c-.057.056-.113.056-.227-.112-.114.056-.17.168-.114.28a.292.292 0 0 1-.114.39l-.284-.111a5.953 5.953 0 0 1-.284-1.174c-.057-.447-.114-.95-.114-1.453 0-.223-.057-.28-.114-.223-.056.056-.056.111 0 .223-.056.056-.113.28-.113.615-.114.056-.228.168-.284.224-.057.111-.171.223-.285.335 0 .112.057.167.17.167.115-.055.171 0 .171.168-.056 0-.113 0-.113.056s-.057.056-.114.056c-.057-.056-.114-.112-.114-.224-.057-.056-.057-.111 0-.223-.113-.112-.17-.224-.113-.335.056-.112.056-.224-.114-.336 0 .112-.057.28-.114.503-.057.224-.17.224-.284.112.057.112.114.223.17.223.057 0 0 .056-.17.112.057-.056.057-.112 0-.112s-.114.056-.114.112c.114 0 .17 0 .057.056-.114.056-.17 0-.227-.056.056-.335.17-.559.227-.67.114-.112.057-.28-.057-.503-.114.056-.17.167-.114.28.057.11.057.223-.113.223 0-.112-.057-.168-.17-.168-.114.056-.114 0-.058-.168 0-.111 0-.223.057-.28.057-.055.057-.11.057-.223-.114 0-.227-.056-.227-.111.057-.056.057-.168 0-.28.284.112.398.056.398-.223 0-.28.17-.336.511-.28 0-.28.114-.391.285-.391a1.875 1.875 0 0 0-.342-.838c-.17-.224-.17-.56-.056-.95-.057 0-.171.056-.285.223 0 .224 0 .336.057.503.057.112 0 .28-.17.391 0 .112.056.224.17.28.114.056.17.167.17.28-.056.111-.113.223-.227.223-.057.056-.113.112-.113.223h-.285c.057-.111.057-.223 0-.223-.056-.056-.113-.056-.227-.168.057-.056.114-.112.17-.112.057 0 .057-.056.171-.111-.057-.112-.057-.224-.057-.336.057-.111.057-.223.057-.335a.175.175 0 0 0-.227 0c-.114.056-.17-.056-.17-.28-.115.056-.228.28-.228.615.113.056.227.056.227-.111.057-.112.114-.112.228 0-.114.111-.342.39-.626.782.114 0 .228.056.228.112h.284c-.057 0-.057 0-.057-.056 0 .056-.057.056-.114.112.114 0 .114.055 0 .223v-.223c-.113.279-.17.503-.057.614.114.168.057.391-.056.615.227 0 .284.112.284.28-.057-.112-.17-.168-.228-.112-.113.056-.056.167.057.28-.113.279-.113.446 0 .614.057-.112.114-.168.228-.056.057.112.113.223.113.335-.113 0-.17-.056-.17-.167.057-.112 0-.112-.17-.056-.114.782-.171 1.509-.171 2.123.057.615 0 1.286-.057 2.012.114.056.17.224.17.391-.056.224-.113.28-.227.28 0 1.285 0 2.515-.057 3.52 0 .28 0 .56-.057.839-1.819.112-3.41.503-5.344.838.057-.168 0-.168-.057-.168-1.421.28-2.9.447-4.377 1.23.057.167-.057 0-.114.056-.057.167 0 .167-.057.39-.17.057-.284.727-.398.56 0 .335.057.559.114.726-.114.056-.057.168-.114.336.057.167.057.503-.057.726.057 0 .057 0 .057.112 0-.056-.057 0-.057-.112-.057 0 0 .168-.057.224.285.111.683.111.74.503h.34c.228-.336.455 0 .683-.224 1.307.056 2.501-.67 3.866-.559.455-.335.91-.167 1.307-.447.057 0 0 .168.114.112.341-.224.682 0 .967-.335.113.111.284-.056.398.111.284-.223.568 0 .852-.39.057.11.057.167.114.167.114-.056.455-.112.967-.224-.057.28-.057.56-.057.894.057.56 0 1.006-.17 1.342a.628.628 0 0 0 .283.056c.057-.056.114 0 .228.167a.423.423 0 0 1-.114.28.423.423 0 0 0-.114.279c.114.112.171.224.171.28 0 0-.114.055-.17.111.113.112.17.336.113.559-.057.224-.057.447.114.615-.057 0-.114.112-.114.28-.057 0-.114 0-.114-.057 0-.056-.056-.056-.113-.056 0 .336-.057.503-.114.615.284 0 .398.056.398.224.114.28.057.39-.227.39-.057-.055-.057-.11 0-.223.056-.056.056-.111-.114-.111 0 .503 0 1.061-.057 1.564-.057.503.057 1.062.227 1.565-.398.28-.398.67 0 1.174-.113.111-.113.335 0 .614.114.28.114.56-.113.727-.114 0-.17-.056-.17-.168.056-.112 0-.167-.171-.167.056.223.113.335.17.447.057.111.057.28.17.559h-.284c0 .111.057.223.171.223.114.056.17.112.17.224-.113.055-.227.055-.227.055-.057-.055-.114-.055-.227-.055.34.279.568.614.796 1.061 0 .392-.057.727-.057 1.062a71.152 71.152 0 0 0-.341 2.515h-.17c.056.447.056.838-.058 1.285-.113.392-.227.839-.398 1.286-.17.447-.34.894-.454 1.285-.114.447-.228.894-.228 1.285l.17.168c.058.056.114.056.171.168.284.67.512 1.34.682 2.012.171.67.398 1.229.74 1.732v.28c.284.223.454.558.568.95.114.39.284.67.569.838v.28c.511.502 1.023.95 1.648 1.284.569.392 1.251.503 2.047.448 1.194-2.404 1.99-5.254 2.274-8.439.284-3.185.455-6.37.569-9.556 0-.224 0-.391-.057-.56v-.279c0-.055-.057-.167-.057-.223-.057-.224-.114-.391-.17-.447 0-.112.056-.224.17-.224.114 0 .17-.056.17-.223a1.039 1.039 0 0 1-.113-.447c0-.168-.057-.28-.228-.336h.228a9.524 9.524 0 0 1-.17-1.788c.056-.615 0-1.23-.058-1.956h.228c.057-.782.113-1.509.113-2.123 0-.615.057-1.342.114-2.124-.114-.112-.227-.28-.227-.391.227-.447.34-.839.227-1.342l-1.194.056-1.648.336c-.057.056-.114-.056-.171.056.057.223.057.335 0 .614.057.056.114.056.227.056.057-.056.114 0 .114.056.114 1.062-.114 1.788-.796 2.235-.34-.279-.398-.558-.227-.894.17-.335.17-.67.057-1.006 0 .056-.057.112-.114.112s-.114-.056-.114-.112c.17-.782.114-1.564-.057-2.347h.057c0-.167.057-.167.114-.167.739-.056 1.421-.392 2.103-.392 0-.056.057-.111.057-.111l.228-.056v.111a12.59 12.59 0 0 1 1.08-.335l.284-.056c.682-.167 1.421-.28 1.592-.167.455-.56.91-.056 1.421-.392.114.168.341-.055.455-.223.512 0 .853 0 1.308-.28 0 .056 0 .168.057.168.056-.223.17-.335.34-.391-.056.168.058.112 0 .223.171.112.285 0 .399-.167 0 .056-.057.056-.057.167.17-.223.398.112.568 0 .114-.055.114-.167.171-.167.17-.056.284.167.455-.168.113 0 .17.112.284.168.341-.335.682-.168 1.023-.056.228-.335.341-.224.512-.168.057-.223.227-.167.284-.223.057 0 0 .056 0 .167.114-.055.114-.167.228-.055.057 0 .113-.056.17-.168.057.168.341-.056.512.112.455-.392.91-.56 1.478-.783-.17 0 .228-.503.512-1.006 0 .056.057.112.113 0 .057.056-.056-.056-.113-.39zm-12.167 7.712c.114 0 .228.056.228.224-.057 0-.114 0-.114-.056s-.057-.056-.114-.056v-.112zm-.056 2.85h.113v.224h-.113v-.224zm-4.833-4.806c.227.056.284 0 .227-.167v-.056h.057c0 .167-.057.335-.113.503-.114.056-.17.056-.17-.056.113-.056.056-.168 0-.224zm-.966.391c0 .112-.057.224-.114.224s-.114.056-.114.112c-.114 0-.17-.056-.17-.224.056-.112 0-.223-.171-.223 0-.112 0-.168.057-.224.227-.056.398-.056.568-.112a.58.58 0 0 1-.34.28c.056.167.113.167.284.167zm.113 1.398c-.057.111-.113.167-.227.111-.057-.056-.057-.167.114-.28.113-.055.17.057.113.169zm.74-8.942v-.223h.227c0 .055 0 .111-.057.111s-.057.056-.057.112h-.114zm.17 3.353c0-.112.057-.168.057-.223.113.055.17.111.113.223h-.17zm-.057-4.918c.114-.223.227-.503.227-.838.114 0 .228-.056.285-.224.057-.167.057-.335-.114-.447.057-.111.17-.223.284-.223.114 0 .114-.056 0-.224 0-.056.057-.056.17-.056.115.056.171 0 .171-.167.114 0 .228.112.228.391a.438.438 0 0 1-.284.112c0 .056.056.112.113.112s.057.055 0 .223c-.34.28-.455.559-.398.894.057.336 0 .67-.227 1.062.057 0 .114 0 .17.056.057.056.057.056.171.056-.057.223-.17.335-.227.447-.114.112-.114.223-.057.335-.228.056-.285 0-.228-.223.057-.224 0-.336-.17-.336-.228-.39-.228-.67-.114-.95zm-.91 3.018c-.056 0-.113-.056-.113-.223.113.055.113.111.113.223zm-.056 1.006c-.057-.112-.057-.28 0-.503.227.224.284.447.227.726-.057.224-.114.503-.17.727-.114 0-.171 0-.285.056-.057-.056-.057-.112-.17-.112v.112c-.171.056-.342.112-.455.168.057-.224.113-.448.113-.671 0-.28.228-.447.74-.503zM45.9 68.85h.285c.227-.336.284-.671.227-1.006.284.056.398.28.341.67-.057.392-.227.615-.568.67v-.223H45.9v-.111zm.512 6.091-.227.224v-.224h.227zm-.227 1.397c.227.056.227.224.17.447-.057.168-.057.336 0 .447-.057.056-.057.056-.057.112-.057 0-.113 0-.17.056 0-.056 0-.112-.057-.112-.057-.056-.057-.167-.17-.335.17-.056.284-.224.284-.615zm-.683 4.806v-.167c.057 0 .114 0 .17-.056v.056c0 .111-.056.167-.17.167zm.17 1.677c.058-.112.115-.112.115 0s0 .112-.114 0zm0 8.438v-.223c.115-.056.228-.056.228.112 0 .167-.057.167-.227.111zm.171-2.515c-.113.056-.113.056-.056-.111.17 0 .17 0 .056.111zm.455.112c-.113.056-.17 0-.113-.167h.227c.057.111 0 .167-.114.167zm.284 1.062c.057-.112.114-.112.114 0s-.057.112-.114 0zm.569 1.285c-.057.168-.114.224-.227.224 0-.112 0-.224.056-.224.057 0 .057-.055.057-.223.114.056.17.056.114.223zm-.227-.223v-.391c.056 0 .113 0 .113.056 0 .055.057.055.114.055-.057.168-.114.28-.227.28zm.398-6.203h-.114a.423.423 0 0 1-.114.28c-.057 0-.114-.057-.114-.224 0-.112.057-.168.228-.112v-.391c.114 0 .227.056.227.167.057.112 0 .224-.113.28zm0-1.342c-.057.224-.114.392-.228.56.057 0 .114.055.114.223-.228 0-.284.112-.228.335.057.224 0 .391-.056.559-.114 0-.228-.112-.228-.28 0 .224-.057.392-.114.56a1.124 1.124 0 0 0 0 .614c.228-.112.285-.335.228-.559-.057-.223.057-.335.398-.223 0 .112 0 .223.057.28.057.055.057.167.057.279-.114 0-.228-.112-.228-.28 0 .67 0 1.286.057 1.9.057.615 0 1.23-.17 1.844-.228 0-.285-.167-.228-.447.057-.279 0-.558-.17-.726-.114.056-.171.112-.171.223.057.056 0 .168-.057.28-.341-.056-.455-.224-.398-.503.057-.28.057-.447-.114-.615.114-.223.171-.391.171-.615-.057-.223 0-.39.17-.614-.113-.112-.17-.391-.113-.727.057-.335.057-.615-.114-.726a.628.628 0 0 0 .17-.447c-.056-.168 0-.224.171-.224-.057-.112-.113-.28-.17-.391-.057-.112-.114-.224-.228-.28.114-.279.285-.502.398-.67.114-.224.114-.447-.113-.783a.599.599 0 0 0-.171.392c.057.111-.057.223-.227.28v-.616c.056 0 .113 0 .17-.056.057-.055.057-.055.17-.055-.113-.28-.17-.503-.056-.615a.34.34 0 0 0-.057-.391c.17-.056.398-.056.568-.112.114.223.057.391-.227.559.114.28.227.447.341.614.114.168.057.392-.17.615.113 0 .284 0 .454.056.171.056.342.056.455.056 0 .112.057.224.114.224-.114.111-.17.279-.227.502zM45.9 85.391c.057-.111.114-.111.114 0 0 .112-.057.112-.114 0zm1.592-3.353v.224c-.057 0-.114-.056-.114-.112 0-.112.057-.112.114-.112 0-.111.057-.223.114-.28.057 0 .114.113.114.28h-.228zm.284 1.565c0-.28 0-.447.057-.615.057-.111.057-.279.17-.39.114.111.171.335.171.614-.057.28-.17.391-.398.391zm.512-2.068c.114 0 .284.112.398.28-.227 0-.398-.056-.398-.28zm2.16 9.557c-.113 0-.113.056-.056.223-.228 0-.285-.112-.228-.28.057-.223 0-.335-.17-.502.113-.224.284-.28.398-.224.056.112.056.224.056.28-.056.056 0 .167.171.28 0 .167-.057.223-.17.223zm.228-3.41c-.114.168-.057.28.057.336-.114.112-.228.224-.285.224 0 .279 0 .502-.056.782-.057.28.056.503.227.67-.114 0-.227.056-.227.168-.057.112-.114.112-.228.056a.482.482 0 0 0-.227-.391c.284-.335.34-.838.227-1.453.114 0 .228-.056.228-.224.056-.167.113-.28.227-.335.114-.056.114 0 .057.168zm-.455-1.508c.114.112.17.28.114.503-.057.223-.057.335.113.503.114-.056.228-.056.228.112 0 .111-.057.167-.228.111v-.223c-.113 0-.227.056-.227.112 0 .055.057.055.114.055.057-.055.113 0 .113.168-.113 0-.227.056-.227.168 0 .111-.057.223-.114.335-.284-.28-.34-.559-.284-.95.057-.447.17-.727.398-.894zm-.341-1.118c-.057.112-.114.335-.227.559-.057.224 0 .391.227.559-.057.112-.114.223-.227.335a1.168 1.168 0 0 1-.228.335c-.057-.111-.114-.223-.227-.223-.057-.056-.114-.112-.114-.224.227-.28.284-.558.227-.838-.056-.28 0-.615.057-.95.114 0 .228.056.228.224.113.055.17.167.284.223zm-.17-.559h-.228v-.111h.227v.111zM43.798 5.42c.113 0 .113-.055 0-.111a.434.434 0 0 1-.228.112c-.113 0-.057.056.057.223-.057-.167.057-.223.17-.223zM43.172 5.98c.17-.056.17-.112-.057-.112-.17.168-.113.223.057.112z"/>
            <path d="M43.4 5.588h1v1h-1zM41.865 8.16c.113.055.113.055.057-.113-.171 0-.171.056-.057.112zM41.069 9.22c.113 0 .227-.055.284-.223.057-.111.057-.223-.114-.223-.057.223-.17.335-.17.447-.057.112-.17.28-.284.391.34 0 .454-.112.284-.391zM40.898 9.947c-.113-.111-.227-.111-.227 0 0 .112.114.112.227 0zM41.467 7.991a.423.423 0 0 0-.114-.279c.057.168.057.28.114.28zM3.546 22.13c.114-.056.057-.112-.057-.223-.057.223-.057.28.057.223zM37.373 16.71c0-.112-.056-.112-.113 0 .113.167.113.167.113 0zM37.487 16.542c-.114-.112-.17-.112-.17 0 .056.112.113.112.17 0zM37.146 16.933c.057.056.057.056 0 0 .057-.056.057-.112 0-.112s-.057.056 0 .112c-.057-.056-.057-.056 0 0zM36.919 17.995c0-.056-.057-.112-.114-.224 0 .224 0 .28.114.224zM36.407 18.218c.114.112.17.168.17.224 0-.168-.056-.224-.17-.224zM37.999 15.033c-.114.112-.228.223-.228.28h.285c.056-.168 0-.28-.057-.28z"/>
            <path d="M36.919 17.715c-.057-.056-.114-.056-.114.112.114 0 .17-.056.114-.112zM36.577 18.386v.056c.057.056.057 0 0-.056zM40.5 9.333h-.227c.114.056.17.056.227 0zM40.102 10.842v.111h.228c-.057-.111-.114-.111-.228-.111zM46.186 69.073h.113c0-.112-.057-.112-.113 0zM38.795 13.468v.224h.113c0-.168-.056-.224-.113-.224zM38.567 14.362c-.057-.111-.057-.223 0-.223.057-.056.114-.112.114-.224-.227-.056-.284-.056-.284.112a.423.423 0 0 1-.114.28c.114 0 .227 0 .227.055h.057zM38.454 14.642c-.057-.056 0-.112.056-.224-.113 0-.227.112-.227.28.17.055.17 0 .17-.056zM39.42 13.189c-.114-.112-.17-.224-.17-.336.056-.111.056-.223.056-.335.114.112.17.168.17.056-.056-.112 0-.168.171-.168 0-.056 0-.111-.056-.167-.057-.056-.057-.056-.057-.168.057 0 .113.056.113.112-.056-.112.057-.28.285-.503.284-.224.284-.391 0-.615a2.979 2.979 0 0 1-.569 1.118c-.227.28-.398.726-.568 1.23a.313.313 0 0 0 .284-.168c.057 0 .17-.056.341-.056zM40.387 10.674c.113-.056.17-.112.113-.224-.057 0-.113.056-.227.112-.057.112 0 .168.114.112zM17.873 54.208c.057.112.114.112.114 0 0-.168-.057-.168-.114 0zM45.333 83.883c.113-.224.057-.336-.057-.503a3.446 3.446 0 0 0-.114.894c0 .39.057.614.228.67 0-.111 0-.28-.057-.39-.057-.113 0-.224.17-.224-.227-.056-.284-.224-.17-.447zM17.19 44.82c-.113-.057-.227 0-.227.055-.057 0-.113.056-.113.224 0 .112.056.167.113.112 0-.112.057-.224.228-.224 0 .056.057.112.113.112.057-.168 0-.28-.113-.28zM49.597 68.347h1v1h-1zM46.015 65.385v.056-.056zM46.356 64.044c-.114-.056-.114-.056-.057.111.114 0 .17-.056.057-.111zM36.464 18.721c.17-.056.17-.056.057-.167h-.228c-.057.167 0 .223.17.167zM16.963 42.807c0-.223-.057-.279-.227-.223.057.112.057.223.057.223-.057 0-.057.056-.057.224.17 0 .227-.056.227-.224zM31.29 31.742c0-.111-.057-.111-.114 0 .057.168.114.168.114 0zM36.18 19.224c-.057.112-.057.168 0 .224.056-.112.227-.28.397-.503-.113.056-.227.056-.227 0-.057-.056-.114-.112-.227-.112.113.168.113.28.056.391zM16.281 32.748c0-.111-.057-.223-.227-.223 0 .112.057.223.113.223h.114zM27.993 42.472h1v1h-1zM26.97 46.496c-.057.223-.057.335 0 .391.227-.168.227-.28 0-.391zM5.138 15.256c.114-.055.057-.111-.057-.223-.057.223-.057.28.057.223zM41.808 7.489h.114c0-.112-.057-.224-.228-.224.114.168.17.224.114.224zM16.054 31.686l.113.112c0-.056 0-.112.057-.112s.057-.055.057-.111h-.227v.111zM7.583 7.6c-.057.056-.057.112.113.112 0-.168-.056-.223-.113-.112zM17.589 49.178c-.057.056-.057.112.113.112 0-.168-.056-.168-.113-.112zM24.866 25.595c-.057-.28-.114-.615-.17-.95 0 .056-.058.168-.058.224-.17.335-.113.558.228.726zM32.37 29.898c0-.112.057-.223.114-.223s.057-.056 0-.224c-.057 0-.17.056-.284.224.114.056.17.111.17.223zM19.067 61.25c0 .111.057.223.114.223.056 0 .113-.112.113-.28-.17-.055-.227-.055-.227.056zM24.695 24.645c0-.056 0-.168-.057-.223v.055c.057.056.057.112.057.168zM33.962 24.7c0 .113-.057.336-.113.56a3.22 3.22 0 0 0-.114.726c.114-.112.227-.335.34-.67.171-.392.115-.56-.113-.615zM50.677 63.988c.114-.112.114-.168 0-.224h-.228c0 .112-.056.28-.227.391 0 .056 0 .112.057.224.057.056.057.112.057.223.227-.055.34-.223.398-.39-.114-.057-.17-.113-.057-.224zM50.279 83.715c.057.112.114.112.114 0 0-.168 0-.168-.114 0zM47.891 53.09c.114 0 .114-.056 0-.223-.114.167-.114.223 0 .223zM47.777 54.32v-.224.224c-.056 0-.113.056-.113.111h.113v-.111zM34.53 23.136c-.056.056 0 .056.171 0v-.112c-.057 0-.113 0-.17.112zM16.281 32.357c.114.056.17.056.17-.056-.056-.112-.113-.056-.17.056zM17.816 48.117c.057-.112 0-.224-.17-.224a.423.423 0 0 0-.114.28c.17.111.284.055.284-.056zM48.29 52.531c0-.056 0-.111-.058-.111-.057 0-.057.055-.057.111s0 .112.057.112.057-.056.057-.112zM16.395 24.31c.057 0 .057 0 .057-.056l-.057.056c0-.112 0-.056 0 0zM16.452 24.254v-.056.056zM1.954 37.275c0-.112-.057-.112-.113 0 .113.112.113.112.113 0z"/>
            <path d="M35.213 53.817c-.114-.056-.17-.168-.114-.28.057-.111.114-.223.114-.28 0-.055 0-.055-.057-.055-.057.056-.057 0-.057-.056.114-.223.228-.391.285-.615.056-.223.17-.39.284-.558-.114-1.118 0-2.124.34-2.962.342-.839.57-1.845.626-3.074.285-.28.341-.615.228-1.062.113-.112.227-.335.284-.559.057-.223.114-.447.114-.614.227-.783.398-1.565.568-2.236.17-.726.398-1.453.626-2.18a.423.423 0 0 1-.114-.279c.341-.838.625-1.676.796-2.459.17-.782.34-1.564.398-2.347.34-.28.511-.726.568-1.34.057-.616.228-1.119.569-1.454 0-.335.057-.615.227-.894.114-.28.17-.559.114-.894.114 0 .17 0 .17-.056-.056-.056 0-.056.171-.056.057-.503.17-1.006.341-1.453.17-.447.341-.95.569-1.453 0-.112 0-.224-.057-.224s-.057-.055-.057-.111c.398-.727.74-1.51.966-2.403.228-.894.569-1.677.967-2.403 0-.112 0-.224-.057-.224s-.057-.056-.057-.223c.285-.28.398-.56.455-.839.057-.28.114-.614.227-1.006.342-.111.569-.335.626-.67.114-.336.227-.615.455-.894-.057-.336.057-.615.284-.839.284-.223.398-.559.398-.95.227-.28.398-.559.568-.838.171-.28.342-.615.455-1.006.114-.056.228-.168.228-.335.057-.168.17-.224.34-.168.285 3.13.285 6.203.114 9.11-.227 2.905-.34 5.923-.397 9.108-.114.112-.171.224-.114.336.057.112.057.223-.114.335.057.224.114.447.114.67 0 .112-.057.224-.114.224s-.114.056-.114.224c.114 0 .228.056.228.112-.228.279-.284.558-.228.894.057.335.057.614-.113.782.284.112.34.335.227.615a.79.79 0 0 0 .057.726c-.114.112-.17.224-.17.224.056.056 0 .112-.171.223.114.615.227 1.174.227 1.845 0 .614-.113 1.117-.398 1.508.114 0 .228.056.228.112 0 1.23-.057 2.236-.228 3.074-.113.782-.17 1.844-.113 3.13l-.228.223c0 .056 0 .112.057.112s.057.056.057.223c-.114.112-.17.28-.114.391a.292.292 0 0 1-.114.392c.114.447.171.894.057 1.397-.113.447-.057.894.057 1.397 0 .112-.057.167-.17.167-.114-.055-.114 0-.057.168 0 .28 0 .559-.057.95-.057.335 0 .67.17.95l-.113.112c.057.224.057.335 0 .503-.057.112-.057.335 0 .615-.341.335-.455.838-.284 1.564.113.727.056 1.23-.285 1.565.114 0 .228.056.228.224-.114.223-.17.447-.057.726.114.28.057.615-.057.95 0 .056.057.056.17.056.114-.056.171 0 .171.168-.057.28-.114.447-.114.615 0 .111-.056.335-.113.614.227.056.398.112.568.168.17.056.341 0 .455-.168-.114-.223-.17-.39-.17-.559.056-.167 0-.279-.171-.335v.67c-.114 0-.228 0-.228.057-.056.056-.113.056-.227.056 0-.112.057-.336.227-.615l.171-.336c.057-.111.057-.223.17-.335-.056 0-.113 0-.113-.056s.057-.056.114-.056v.112c.113 0 .17-.056.113-.223-.057-.112-.113-.224-.227-.224.284-.28.398-.503.398-.782 0-.28-.057-.56-.114-.894-.057-.056-.057-.056-.114-.056.057 0 .114.056.114.056l.114-.112c.057-.112.114-.336.227-.615.057-.28.057-.503-.113-.67 0-.056.056-.112.113-.112s.114-.056.114-.112c-.114-.112-.227-.28-.227-.391h.284c0-.391.057-.615.114-.67-.114-.057-.171-.169-.171-.224.057-.112 0-.224-.17-.336.113-.223.227-.39.227-.614 0-.224.057-.448.227-.615.057 0 .114.112.114.391.114 0 .227-.112.227-.391 0-.28.114-.447.285-.503.284.391.227.782-.057 1.23-.285.446-.341.893-.17 1.34-.399.392-.342.95.113 1.677-.114 0-.228.056-.228.112.228.112.285.28.285.503-.057-.112-.228-.112-.398 0 0 .112.057.223.113.223.057 0 .114.056.228.112-.114.056-.17.168-.17.335.056.168 0 .336-.171.447.227.224.284.336.284.503-.398.392-.625.727-.625 1.062.113.056.17 0 .17-.167-.057-.168 0-.224.17-.224 0 .28-.056.447-.17.503-.113.056-.057.112.17.224 0 .111-.056.223-.113.223-.057.056-.114.112-.114.224.341.111.341.335.114.614.227.112.227.447.114 1.006.113 0 .227-.056.227-.223.057-.112.114-.112.228 0v-.224h.227v.224h-.227a.846.846 0 0 0-.228.559c-.057.223-.114.39-.227.558-.114-.111-.17-.279-.114-.39.057-.113.057-.224-.114-.224-.056.111-.056.223-.056.335.056.112 0 .168-.171.224.057.111.17.223.227.223.114 0 .17.112.17.391-.056 0-.113 0-.113-.056s-.057-.056-.113-.056c0 .28 0 .448.056.56.057.111 0 .223-.056.446.056 0 .227-.167.397-.503.057.336.057.615-.113.783-.114.223-.228.447-.284.67.113.112.17.224.17.336-.057.112-.057.28-.17.559.113-.056.227-.056.227-.056.057.056.114 0 .227-.056 0-.224 0-.335-.057-.447a1.168 1.168 0 0 0-.227-.336c.114-.055.227-.111.284-.223.057-.056.17-.056.285 0-.057-.112-.057-.224.056-.28a.307.307 0 0 0 .171-.279c-.227-.112-.284-.335-.227-.559.056-.223 0-.447-.057-.726.057 0 .113 0 .113-.056s.057-.056.228-.056a.423.423 0 0 0-.114-.28c-.057-.055-.057-.167 0-.279.284-.28.455-.615.569-1.006.113-.391 0-.726-.341-1.006l.17-.67c.057-.28.114-.503.228-.671-.114-.112-.228-.223-.285-.223v-.28c.057 0 .114.056.17.224.058.111.058.111.171 0-.34-.336-.398-.671-.227-1.006.227-.336.227-.67.114-1.062.113 0 .227-.056.227-.112s.057-.112.228-.112c0 .056 0 .112.056.112.057 0 .057.056.057.112 0 .112-.057.223-.113.223-.057 0-.114.056-.228.224.057.112.114.112.228 0 .056-.112.113-.112.227 0-.114.112-.17.224-.057.224.114 0 .17.055.17.223-.227.112-.284.28-.227.447.057.168.057.335 0 .559.114.056.114.224 0 .503.228 0 .284.056.228.168-.057.111-.057.167.113.223-.057.503-.227 1.062-.398 1.565.114.056.228.223.228.503-.114.112-.228.112-.284 0 .056.335.056.559.056.67-.056.112-.056.336-.056.671.284.112.397.056.34-.223-.056-.28.057-.336.228-.224.057-.112.057-.224-.057-.224-.114-.055-.057-.055.057-.167.114.112.227.28.284.391-.113.112-.284.28-.511.391-.228.112-.285.28-.228.503.114 0 .228-.056.228-.223.056-.112.056-.168.17-.112.057.112.057.223-.057.223-.113 0-.17.056-.17.224.113-.056.227-.056.227 0s.057.112.228.112c0-.112 0-.224.056-.336.057-.111.057-.223.057-.447.285 0 .398-.111.398-.39-.113-.057-.227-.057-.227.055s-.057.056-.114-.056c0-.223 0-.447.057-.726.057-.28.114-.56.227-.839.114 0 .171.056.057.224-.113.168-.057.223.057.223.114-.279.228-.447.228-.614-.114-.056-.171-.224-.171-.447.057-.224.057-.392.057-.56.057.113.114.224.227.224.057 0 .114.056.114.224.057.112.057.223 0 .223s-.114.056-.114.224c.114.223.114.391-.057.615a.586.586 0 0 0-.056.67c.227.28.284.503.227.783-.057.28-.114.614-.227 1.061 0 .056.056.056.113.056.057-.056.114 0 .114.056 0 .336-.057.615-.227.894a.94.94 0 0 0 0 .783c.113-.336.284-.447.397-.391a6.446 6.446 0 0 0-.284 1.117c-.057.447-.17.839-.284 1.23.114 0 .227.056.227.223-.056.224-.056.503 0 .839.057.335.228.614.512.838 0 .056-.057.056-.17.056-.114-.056-.114 0-.057.167.113 0 .227.056.227.168 0 .112.057.224.114.335h-.285c0 .112 0 .224.057.224s.057.056.057.223c-.227.112-.34.336-.455.671-.113.335-.056.559.057.67-.113.504-.284 1.062-.398 1.621-.113.56-.057 1.118.228 1.62-.114.113-.228.504-.228.504h.512l.853-.391.682-.224.853-.447s.113-.615.113-1.006c-.113-.112-.17-.223-.113-.335a.35.35 0 0 0 0-.335c.227-.112.284-.336.227-.671-.057-.335-.114-.559-.227-.67.227-.224.227-.448.113-.783-.113-.335-.056-.615.228-.894-.114-.336-.114-.615 0-.783 0-.056-.057-.111-.114-.111s-.114-.056-.114-.224c.057-.056.114-.056.228-.056.057.056.057 0 0-.167 0-.727.057-1.51.17-2.348.114-.838.057-1.62-.17-2.235h.227a.597.597 0 0 1 0-.615c.114-.223.114-.447-.113-.726h.227c-.114-1.118-.057-2.068.17-2.906.228-.838.285-1.844.171-3.074.057.056.114.056.114-.112-.057-.894 0-1.732.17-2.403.17-.67.17-1.509-.057-2.514.228-.895.342-1.845.342-2.85.056-1.006.113-1.957.227-2.962 0-.112-.057-.224-.17-.224-.114 0-.171-.056-.171-.224.227 0 .284-.111.284-.279-.284-.391-.284-.782 0-1.174a4.849 4.849 0 0 1 .057-2.011c.17-.727.17-1.342.057-1.845.227-.223.284-.447.227-.838-.057-.335-.057-.726-.17-1.006l.227-.223c-.114-.447-.17-.894-.114-1.341.057-.448.114-.895.114-1.453.114 0 .17-.056.17-.112-.056-.056 0-.112.171-.112a5.54 5.54 0 0 1-.17-1.397c.057-.447.057-.894.17-1.397-.113-.112-.227-.28-.227-.447 0-.168.114-.336.284-.447-.114-.727-.17-1.286-.057-1.789.114-.447.057-1.062-.057-1.788.114-.112.171-.28.114-.503-.057-.224-.057-.391.114-.615-.114-.39-.114-.894 0-1.453s.114-1.006-.114-1.34l.228-.224a9.885 9.885 0 0 1 .056-2.236c.114-.782.17-1.62.228-2.57a.885.885 0 0 1-.228-.615c0-.28.057-.503.228-.67 0-.113-.057-.224-.17-.224-.114-.056-.171-.112-.171-.224a.703.703 0 0 0 .227-.503c-.114-.335-.17-.67-.114-1.006.057-.335 0-.726-.227-1.006.114-.335.17-.67.114-1.006-.057-.335-.114-.67-.114-1.006-.057-.335-.057-.67-.057-1.005.057-.336-.114-.615-.455-.783.114 0 .228-.056.228-.223-.114-.727-.341-1.342-.569-1.9a41.001 41.001 0 0 0-.853-1.9 1.117 1.117 0 0 1-.625-.615c-.17-.28-.455-.391-.853-.391-.227-.392-.625-.56-1.194-.503a1.699 1.699 0 0 0-.284-.392 10.261 10.261 0 0 1-1.592-.28c-.455-.11-.966-.167-1.478-.11-.057 0-.114-.057-.114-.113 0-.055-.057-.111-.227-.111-.114 0-.228 0-.284.056-.057.055-.114.055-.228.055-.739-.335-1.421-.39-2.046-.167a4.498 4.498 0 0 0-1.65 1.006c0 .111 0 .223.058.223.057 0 .057.056.057.224-.342.39-.683.782-1.024 1.062-.34.335-.625.782-.91 1.285.114 0 .228-.056.228-.112.057-.056.057-.056.17.112-.113.335-.34.615-.625.894-.284.28-.455.559-.625.894h.227c0 .224-.057.28-.114.28-.056-.056-.113-.112-.227-.112-.057 0-.114.056-.114.112.114.056.17.167.17.223-.056.112-.056.168-.17.224-.057-.056-.113-.112-.227-.112-.057 0-.114.056-.114.112.057 0 .114.056.114.167 0 .112-.057.112-.227.056 0 .727-.228 1.286-.626 1.789-.398.447-.682 1.005-.91 1.676h-.227c-.057.335-.17.615-.341.95-.17.28-.341.559-.455.838-.057-.223-.227-.223-.398 0 0-.111.057-.223.17-.223.114-.056.058-.056-.056-.168-.114-.056-.284.056-.398.28.114.055.227.111.227.223 0 .056-.057.056-.227 0 .227.224.227.391.114.615-.114.223-.228.447-.285.615.114.279.17.447.114.503-.057.055-.114.055-.17-.056 0-.056-.057-.056-.057-.056 0-.112 0-.224-.057-.28-.057-.056 0-.167.057-.28h-.285v.504l.171.112s-.057.056-.057.111a.43.43 0 0 1 .114.448c-.057.167-.114.335-.228.447-.056 0-.113 0-.113-.056s-.057-.056-.114-.056c0 .112 0 .223.057.223s0 .056-.057.224c-.114.056-.17.168-.114.223.057.112.057.224 0 .448 0 .055-.057.111-.113.111-.057 0-.114.056-.228.112a6.446 6.446 0 0 0-.284 1.118c-.057.447-.227.39-.512-.056h-.227c-.114.28-.228.447-.228.615-.056.111-.056.335-.056.614-.057.112-.114.168-.114.112 0-.056-.057-.056-.228 0 .057.224.057.335-.056.391-.114.056-.114.224-.057.391.057-.055.113-.055.17 0 0-.055.057-.055.114-.055-.057-.112-.057-.224 0-.28.057-.056.057-.167-.114-.28.114 0 .228.057.285.113.113-.224.227-.392.227-.615.057-.224.114-.447.227-.615.228.335.171.615-.056.894-.228.28-.342.559-.342.894h-.284c.114.112.114.28 0 .503-.114.224-.227.336-.284.503l-.228-.39c.114.11.228.055.228-.224h-.228c-.113.279-.227.503-.227.782a.784.784 0 0 0 .227.168l.228.223h-.228c.057.224.057.335-.056.503-.114.112-.17.28-.228.503a1.382 1.382 0 0 0-.113.559c0 .223-.114.335-.398.223 0-.111.056-.223.113-.279-.113.112-.284.335-.511.615-.228.28-.228.559-.114.726-.114 0-.228.112-.228.28-.113.111-.17.223-.113.223 0 .224.057.335.113.503-.227.056-.34.224-.34.447-.057.224-.057.503-.171.727.057 0 .17.056.284.223a.307.307 0 0 0-.17.28c.056.111-.057.28-.228.39-.114-.11-.17-.223-.114-.279.057-.055.057-.111-.113-.111 0 .111-.057.28-.114.39-.057.113-.057.28.114.504h.227a.628.628 0 0 0-.17.447c.056.168-.057.223-.228.223h.228v.224h-.228v-.224c0-.111.057-.223.114-.335.057-.112.114-.223.114-.335h-.285a8.589 8.589 0 0 1-.455 1.285c-.17.391-.34.838-.454 1.286.113 0 .227.055.227.111-.398.28-.512.615-.398 1.062-.227.112-.284.28-.284.503v.67h-.228c-.056.336-.113.671-.227 1.007-.057.335-.227.67-.398 1.005.227.224.227.336.057.392-.17.056-.17.223-.057.503h-.227c.056.28.056.447-.114.614-.114.112-.114.28 0 .503-.227.056-.341.224-.341.447-.057.224-.057.447-.057.671 0 .224-.057.503-.114.727-.057.279-.227.447-.398.502 0 .112.057.168.114.168.057-.056.114 0 .114.168-.341.112-.512.335-.455.67a.878.878 0 0 1-.228.783c0-.28.057-.67.228-1.174-.284.336-.398.783-.455 1.286-.057.503-.17.894-.455 1.173a.47.47 0 0 1 .228.391h-.285c0 .28.057.392.114.392 0-.224.057-.28.114-.28-.114.503-.228 1.006-.228 1.509-.056.503-.227.894-.568 1.118.057.056.114.056.17-.056.057-.112.057-.056.057.056a.703.703 0 0 0-.227.503c0 .223-.114.335-.284.39.056.224.056.392-.057.616-.114.223-.17.447-.228.614-.113-.112-.17-.335-.17-.67.057-.336.057-.615.057-.783-.114.056-.17.056-.17-.056.056-.111.056-.167.17-.167a.68.68 0 0 1-.285-.28.292.292 0 0 1 .114-.39c0 .11.057.223.227.223-.284-.336-.34-.727-.227-1.286a3.944 3.944 0 0 0 .057-1.397c-.057 0-.114-.056-.114-.112.228-.335.228-.726 0-1.229-.227-.503-.227-.894 0-1.23.057-.111.057-.223-.113-.223-.114 0-.228-.056-.228-.224.228-.335.228-.67.057-1.005-.17-.336-.17-.615-.057-.895-.114-.056-.227-.167-.227-.223a.42.42 0 0 0-.114-.224c.114 0 .227 0 .227-.056 0-.055.057-.055.114-.055-.114-.448-.227-.783-.227-1.006 0-.224-.057-.56-.114-.95.057-.112.17-.168.227-.168.114.056.114 0 .057-.168-.227-.39-.284-.726-.227-1.062.057-.335-.057-.67-.341-1.061.227-.28.227-.447.17-.615-.113-.168-.057-.391.057-.615-.057-.056-.114-.167-.17-.28-.057-.111 0-.223.17-.279l-.17-1.173c-.057-.391-.057-.894-.057-1.453 0-.056-.057-.112-.114-.112s-.057-.056 0-.112c-.057-.112-.057-.223 0-.223.057-.056.057-.112 0-.224 0-.112-.057-.167-.114-.167-.057.055-.113 0-.113-.168.113-.056.17-.056.17-.056-.057.056 0 .056.17.056-.056-.112-.056-.224-.056-.335.057-.112 0-.224-.17-.336 0-.056.056-.112.227-.112-.114-.111-.17-.279-.114-.39a.292.292 0 0 0-.114-.392h.114V28.39c0-.447-.114-.726-.284-.894.34-.335.398-.726.227-1.285-.17-.503-.17-.95-.057-1.286.17.056.228.168.285.224-.057-.391-.114-.726-.114-1.006h.227c0-.67-.227-1.173-.625-1.453-.057-.112-.057-.223.057-.223.113-.056.17-.112.17-.224-.113-.391-.17-.726-.113-1.062.056-.335.056-.67-.114-1.006.227-.39.227-.782.057-1.117-.17-.336-.17-.727.057-1.006-.114-.839-.17-1.565-.114-2.236a6.925 6.925 0 0 0-.114-2.123c.114-.056.17-.224.17-.447-.056-.224-.056-.503-.17-.839-.057-.447-.114-.894-.114-1.34 0-.448-.056-.727-.227-.95.114-.336.17-.616.114-.951a2.17 2.17 0 0 0-.284-.726l.227-.392c-.057-.111-.114-.223-.17-.223-.057 0-.057-.056-.057-.224 0-.782-.114-1.62-.342-2.459a14.354 14.354 0 0 0-.852-2.347 1.918 1.918 0 0 1-.967-.615 1.918 1.918 0 0 0-.966-.614c-.057-.224-.17-.336-.341-.503-.171-.112-.342-.28-.569-.391-.114 0-.341 0-.569-.056-.227-.056-.34.056-.34.223.227.056.34.056.34.056l.228-.223c0 .111.057.223.114.335.056.112.056.168-.114.223-.057 0-.114 0-.228-.055-.056-.056-.17-.056-.284-.056-.227-.224-.284-.336-.227-.392-.341-.111-.682-.167-1.024-.111a2.498 2.498 0 0 1-1.25-.112C15.997.168 15.769 0 15.428 0c-.34 0-.739.056-1.023.112.057 0 .114 0 .114.056s-.057.056-.114.056a6.231 6.231 0 0 0-1.592.614c.114 0 .228.112.228.28-.455-.056-.796.056-.91.447-.114.335-.341.503-.682.447a6.48 6.48 0 0 1-1.251 1.732c-.512.503-.91 1.118-1.25 1.844-.115-.055-.228-.055-.228.056 0 .112-.057.168-.228.168 0 .391-.057.67-.227.838-.17.168-.227.391-.17.727-.114 0-.228-.056-.228-.112-.057-.056-.057-.056-.17.112.056.056.113.056.227.056.057-.056.057 0 0 .167-.228 0-.228.056-.17.168.113.112.056.112-.171.056-.057.112-.057.167.057.167.113-.055.113 0 .056.168-.113 0-.17.056-.17.224.057.111 0 .223-.057.223v.224c-.057 0-.17-.056-.284-.224a1.7 1.7 0 0 1-.114.615.292.292 0 0 0 .114.391c-.114.056-.228.112-.228.224 0 .056-.057.111-.227.111 0 .112 0 .224.057.224s.057.056.057.224c-.057 0-.114 0-.17.055-.058.056-.058.056-.172.056-.113.447-.227.839-.227 1.062 0 .28-.17.503-.512.782.114.056.228.28.228.615 0 .056-.057.056-.114.056-.057-.056-.114 0-.227.168.113 0 .227.111.227.28 0 .223-.057.334-.114.39-.113-.056-.17-.167-.113-.28.057-.11.057-.223-.114-.223.057.224.057.28-.057.28s-.17.056-.227.223c.113.112.227.224.227.336 0 .111.057.223.228.335-.114-.056-.171-.056-.171.056.057.112 0 .112-.17.056.056-.056.113-.224.113-.391-.114 0-.227.055-.227.111s-.057.056-.114-.111a10.85 10.85 0 0 1-.17.838c-.057.223-.057.503-.171.726.114 0 .227.056.227.224-.057.112-.113.223-.113.28 0 .055-.057.167-.228.279-.057-.056-.113-.056-.227 0-.057.39-.057.726 0 .95.057.223.057.503-.114.838-.114 0-.227-.056-.227-.168 0-.111-.057-.056-.228.056 0 .336 0 .56-.057.615-.056.112 0 .223.171.447-.057 0-.114 0-.114-.056s-.057 0-.227.056c-.228.447-.228.894-.114 1.397.114.447.057.894-.227 1.285a.482.482 0 0 0-.228-.39c.057.335.057.67.057 1.061-.057.391-.057.727-.17 1.006-.114 0-.17 0-.17.056.056.056 0 0-.171-.056v.559c0 .223.056.447.227.615a96.664 96.664 0 0 0-.682 4.806c-.228 1.509-.341 3.13-.512 4.806-.057.056-.057.056.057.056.114-.056.17 0 .17.167-.113.112-.227.168-.227.112 0-.056-.057-.056-.114 0a9.524 9.524 0 0 0-.17 1.788c.057.615 0 1.118-.17 1.565 0 .056.056.056.17.056.113-.056.113 0 .057.168-.114.055-.228.223-.228.447a.711.711 0 0 1-.227.559c.284.39.284 1.005.057 1.844-.228.838-.228 1.453.057 1.9-.114 0-.228.056-.228.112.114.111.114.279 0 .503-.114.223-.114.335 0 .502-.227 1.565-.284 3.13-.227 4.695a18.73 18.73 0 0 1-.398 4.694c.227.28.284.615.227 1.062-.057.447-.114.838-.114 1.173-.056 0-.113 0-.113-.055 0-.056-.057-.056-.114-.056 0 .503-.057.894-.114 1.061 0-.055.114 0 .285.224 0 .447-.057.782-.228.894 0 4.136 0 8.16-.057 12.071-.057 3.912 0 7.936.17 12.071.115 3.353.342 6.706.683 10.06.341 3.353 1.25 6.37 2.729 8.885.91.056 1.762-.112 2.445-.503.682-.391 1.364-.838 1.933-1.397v-.28c.34-.223.568-.502.682-.894.114-.39.341-.726.682-1.005v-.28c.398-.503.682-1.118.91-1.844.227-.67.455-1.397.796-2.124.057-.056.113-.111.227-.167.057-.056.114-.056.228-.168 0-.447-.057-.894-.228-1.397-.17-.447-.341-.894-.568-1.397-.228-.447-.342-.894-.512-1.341-.114-.448-.17-.895-.114-1.342h-.227c-.114-1.006-.284-1.844-.398-2.682-.114-.783-.114-1.62 0-2.57 0-.057 0-.057-.057-.057-.057.056-.057 0-.057-.056-.114-1.285-.227-2.403-.284-3.353a51.63 51.63 0 0 1-.114-3.353c-.227-1.23-.227-2.515 0-3.856-.114-.112-.227-.223-.284-.223.114-.67.17-1.342.17-2.124-.056-.726-.056-1.509-.17-2.235.227-.28.227-.56.114-.95-.114-.336-.114-.727 0-1.006 0-.056 0-.112-.057-.112s-.057-.056-.057-.112c.114-.894.17-1.676.17-2.235-.056-.559-.056-1.285-.056-2.124 0-.056 0-.112-.057-.112s-.057-.055-.057-.111c.057-.894.114-1.789.17-2.627.057-.838 0-1.676-.17-2.626.114-.895.17-1.789.17-2.571-.056-.783-.056-1.62-.056-2.57 0-.057.056-.224.227-.504v-1.844a6.752 6.752 0 0 1 .057-1.844c.114-.615.057-1.285-.057-1.9.057 0 .114-.056.227-.112-.113-.447-.17-.838-.056-1.062.113-.28.113-.67.056-1.173-.113 0-.227-.056-.227-.112.284-.224.398-.503.341-.894-.057-.391-.114-.67-.227-.894.057-.112.113-.224.227-.224.057 0 .114-.056.114-.224a.597.597 0 0 1 0-.614c.114-.224.114-.447-.114-.67.114-.113.228-.224.228-.28a5.23 5.23 0 0 1 .056-1.62c.114-.56.17-1.007.17-1.454h.115a3.07 3.07 0 0 1 .113-1.732c.228-.615.228-1.23.114-1.845.057 0 .114-.055.114-.223 0-.335.113-.727.284-1.285h-.227v-.112c.227-.112.284-.391.227-.783-.057-.39-.057-.726 0-1.005.057-.112.17-.28.227-.448a.933.933 0 0 0 .171-.558c0-.056 0-.112-.057-.224-.057-.056-.057-.168-.057-.28a.42.42 0 0 1 .114-.223c.057-.112.114-.223.114-.335l-.114-.112c0-.112 0-.223.057-.28.057-.055.057-.111.057-.223.057-.335.113-.615.227-.894.057-.28.114-.559.114-.894.057-.056.114-.112.227-.112-.113-.224-.113-.503.114-.894s.227-.727 0-1.006c.284-.224.455-.503.512-.894.056-.391.113-.783.113-1.174h.228c-.057-.335 0-.67.227-1.006.228-.335.284-.67.228-1.006.113 0 .227-.056.227-.223-.114-.112-.114-.28.057-.447.17-.168.17-.391.057-.615a8.608 8.608 0 0 0 .852-2.291c.171-.838.455-1.565.967-2.291.284.894.341 2.011.227 3.353a10.39 10.39 0 0 0 .228 3.353c0 .056 0 .111-.057.167-.057.056 0 .112.057.224.057.056.113.056.17-.056.057-.112.057-.056.057.056 0 .056-.057.112-.114.112-.056 0-.113.055-.113.111.113.28.17.56.113.839-.056.28-.056.558.114.838-.284 0-.341.056-.284.112.341.223.512.614.512 1.173 0 .56.056 1.174.113 1.677.057.447.114.95.114 1.509 0 .559-.057 1.061-.227 1.509.113.279.17.502.113.67a.495.495 0 0 0-.398.224c.114 0 .228.056.285.223.056.168.056.336 0 .447-.057-.056-.228-.111-.398-.111 0 .335 0 .726-.057 1.117-.057.447.057.838.34 1.23-.113.056-.227.167-.34.335-.114.168-.057.335.057.447 0-.28.056-.335.227-.223.114.111.227.223.227.279-.113.056-.17.112-.113.223.057.056.057.168-.114.28.057.056.114.112.227.112.057 0 .114.056.228.111-.057.112-.057.224 0 .224.057.056.114.112.114.224-.114-.056-.228 0-.285.167a.575.575 0 0 1-.284.335c.057 0 .114.056.114.112v.112c.113.112.284.224.398.28-.114 0-.228.055-.228.223.228.112.285.28.285.503-.228 0-.285.056-.228.223.057.168-.057.224-.284.224a.34.34 0 0 1-.057.391c-.114.112-.057.224.057.28.114-.112.17-.224.114-.224-.057 0-.057-.056 0-.112h.284c-.057.336-.057.615 0 .783.057.223.114.447.114.67-.114-.056-.228-.167-.228-.223-.057-.112-.114-.168-.227-.168.057.335.057.615 0 .838-.057.224-.057.503.113.839 0-.224.114-.28.285-.28 0-.112-.057-.223-.228-.223-.113-.056-.113-.112 0-.224.114.112.228.28.228.447.057.168.057.336.17.56-.113-.057-.17-.057-.17 0 .057.055 0 .11-.057.11.057-.11.057-.223-.057-.223s-.17.056-.17.112c.056 0 .056.056-.114.224-.114.111-.114.223.113.279 0-.112.057-.223.228-.223.114-.056.227 0 .284.167-.114.335-.114.727.114 1.174.227.447.17.838-.114 1.173.114.112.227.28.227.391v.503c.228.336.228.783.171 1.286-.114.503-.057 1.006.057 1.453 0 .112.057.28.227.447.114.168.114.223-.113.223 0 .224.056.447.113.671.057.28.057.503-.113.67.34.112.454.392.284.839-.114.447-.114.782.114 1.006a.307.307 0 0 0-.171.28c.057.111 0 .223-.17.279.227 0 .284.056.284.223 0 .112-.057.28-.114.391.284 0 .341.056.227.168-.113.112-.17.224-.113.335.227 0 .284.056.227.224-.057.112-.057.223.114.223-.114.056-.228.168-.228.28 0 .112-.113.223-.284.223.057.112.114.224.17.224.058 0 .058.056.058.223-.228 0-.285.056-.285.224.114 0 .228.056.228.224.057.111.17.223.34.223-.056.224-.113.335-.17.335-.057.056 0 .112.17.224h-.283c0 .503.056 1.062.227 1.62.17.56.114 1.118-.17 1.621.113.112.227.336.227.67 0 .336.114.56.398.671-.114.112-.17.224-.17.224.056.056 0 .112-.171.224.057.111.113.167.227.055.057-.111.114-.055.114.056 0 .056.057.224.227.503-.34.224-.398.447-.227.783.17.335.17.614.057.894.113.056.227.056.227-.056.057-.112.057-.056.17.056 0 .056 0 .112.057.112s.057.055.057.111c-.227 0-.284.056-.284.112.227.056.284.224.227.391-.056.224-.17.336-.284.503.284.447.398 1.006.398 1.677 0 .056.057.056.114.056.057-.056.114 0 .114.056.113.111.17.223.113.335-.057.112-.057.223.114.335-.227 0-.284.056-.284.224h.113v.111c0-.055.057-.111.114-.111v.503h.17c-.056.056-.113.056-.17 0 .057.503.114 1.061.284 1.62.228.783.455 1.51.796 2.236-.057.111-.113.167-.227.167-.057-.056-.114 0-.227.168.397.112.625.28.625.503-.228 0-.284.056-.228.223.057.112.228.28.512.392-.057 1.509.284 2.738 1.024 3.632.739.894 1.819 1.286 3.183 1.174.398-.112.74-.224.967-.224.227-.056.455-.167.739-.447.34-.056.625-.168.966-.28.285-.111.569-.279.853-.39.341-.392.625-.727.967-1.006l.966-.95c.114 0 .227-.056.227-.168 0-.112.057-.112.228-.056.739-1.509 1.421-3.018 1.99-4.583.625-1.564.966-3.297 1.08-5.253-.057-.335-.057-.614.114-.838.113-.223.17-.503.113-.838a.307.307 0 0 0 .17-.28c-.056-.111 0-.223.171-.279 0-.112 0-.224-.056-.224-.057 0-.057-.055-.057-.223a3.964 3.964 0 0 0 .455-1.397c0-.95.056-1.397.227-1.9zm12.45-2.068c.058-.056.058-.168.058-.28.056.056.113.224.113.392-.17 0-.227-.056-.17-.112zm-.284-.615c0-.112.114-.223.398-.223-.113.167-.227.223-.398.223zm.398-.28h-.227v-.223h.227v.224zm3.696 21.628a.703.703 0 0 1-.228-.503c-.056-.223 0-.335.17-.503.171.168.228.503.058 1.006zm-.114-13.077c.057 0 .057-.056.057-.112.114-.055.17 0 .17.168-.056.168-.113.224-.227.168-.057-.168-.057-.224 0-.224zm-.739-6.091h.227v.112h-.227v-.112zm-1.137 3.13c0-.057.057-.112.227-.112 0 .111-.056.111-.227.111zm.227-.504c0 .056-.056.056-.227 0 0-.111.057-.223.114-.223.057-.056.113-.112.113-.224.057.056.114.224.114.391-.114 0-.114 0-.114.056zm.341-4.862c.114-.111.171-.056.228.056 0 .112-.057.168-.114.168-.057-.056-.114 0-.114.056-.113-.056-.113-.168 0-.28zm-.34.056h.227v.224h-.228v-.224zm-.228.503c.057 0 .114-.056.114-.112.057.112.113.224.227.28.057.056.057.168-.114.28-.113.055-.17 0-.17-.168.057-.168 0-.224-.17-.224.056 0 .056-.056.113-.056zm.057 1.174c.114.056.057.112-.057.223.057 0 .114.056.227.112.228-.223.341-.503.512-.894.114.112.114.28 0 .447a3.212 3.212 0 0 1-.398.447c-.057.112-.057.28-.057.503.057.224 0 .335-.17.503-.228-.112-.228-.335-.17-.615.113-.28.056-.447-.171-.559.113-.167.17-.223.284-.167zm-1.024 8.55v-.335c.114 0 .171.056.171.167-.057.112-.114.168-.17.168zm.171-11.512c0 .056 0 .112-.057.168-.057.055-.057.055-.057.167-.113-.112-.227-.223-.227-.28h.341v-.055zm-.284.615c.057 0 .113-.056.113-.224.114.056.171.168.114.28-.057.111-.17.167-.284.111-.057-.111 0-.167.057-.167zm-.17.28c.113.055.056.11-.058.11 0 .113-.057.168-.113.113-.057-.056-.057-.112.113-.112-.057-.112 0-.168.057-.112zM44.195 5.14c.057-.111.17-.111.284-.056.057.112.057.168-.114.168-.113-.056-.17 0-.113.168-.114-.056-.114-.168-.057-.28zM24.468 23.304c-.114 0-.228-.112-.228-.28.171 0 .228.112.228.28zm-14.384-2.962c.057-.112.114-.112.114 0 0 .168-.057.168-.114 0zm6.481 12.686c.057-.112.114-.112.114 0 0 .167-.057.167-.114 0zm.341 2.682c-.056.056-.113 0-.113-.223.113.111.17.167.113.223zM18.1 49.96h-.227v-.111h.227v.112zm.057 4.64c0-.057.057-.113.114-.113s.114.056.114.112h-.228zm.626 2.737h-.228v-.111h.228v.111zm2.9-1.676c-.115-.112-.171-.28-.115-.503.057-.224.228-.335.512-.391a.628.628 0 0 0-.17.447c.056.167 0 .335-.228.447zm-2.787-26.936c.228.111.228.279.17.447-.113.167-.113.28-.056.335.114 0 .17.056.17.224-.056.167-.113.223-.227.167 0-.112.057-.223.114-.223s.057-.056 0-.224h-.284c.113-.112.17-.223.056-.335-.113-.112-.17-.224-.17-.336.227.056.284 0 .227-.055zm.17 29.395c0-.224.058-.28.228-.28-.057.056-.057.112-.057.224 0 .056 0 .056-.17.056zm.171 2.906c-.113.112-.113 0-.056-.335.113.111.17.223.056.335zm.398-3.465c-.113.112-.113.112 0 0 .057-.112.114-.056 0 0zm.626-9.556c.113-.28.113-.615-.057-1.118-.17-.503-.398-.782-.625-.838.113-.112.113-.28-.057-.391-.17-.112-.114-.168.17-.112-.227-.112-.34-.335-.34-.615-.058-.28 0-.503.17-.615-.057-.056-.228-.111-.398-.111V42.64c0-.615.057-1.174.113-1.677-.227 0-.34.056-.34.224-.058.112-.114.223-.228.223.227-.335.227-.614.17-.95-.113-.28-.056-.559.171-.726-.057-.056-.114-.112-.17-.112-.057 0-.057-.056-.171-.112.057-.056.114-.111.17-.111.057 0 .057-.056.171-.224-.114-.391-.17-.67-.17-.838.056-.168 0-.391-.171-.727.227-.112.284-.28.227-.391-.057-.112 0-.223.228-.223.057-.112.057-.168-.057-.168-.114.056-.114 0-.057-.168.057 0 .114 0 .17-.056.057-.056.114-.056.228-.056 0-.39-.114-.614-.284-.67.284-.28.227-.503-.057-.783-.284-.279-.341-.503-.17-.782-.114-.112-.228-.28-.228-.391 0-.112-.057-.28-.114-.503.228 0 .284-.056.228-.168-.057-.112-.057-.167.113-.223 0-.056-.057-.056-.113 0-.057.056-.114.056-.228-.112.114-.056.228-.168.228-.224 0-.055.056-.167.227-.223 0-.112-.057-.224-.114-.224-.057-.056-.057-.111 0-.223.057 0 .114 0 .114.056s.057.056.227.056c0-.056 0-.112-.056-.112-.057 0-.057-.056-.057-.112-.114 0-.228 0-.228-.056s-.057-.056-.227-.056c.114-.112.227-.223.227-.28 0-.055.114-.11.285-.223l-.228-.223c.114-.224.114-.336 0-.503-.114-.112-.17-.28-.114-.391.114 0 .228.055.228.223 0 .112.114.224.284.224.114.838.228 1.732.341 2.57.114.839.057 1.733-.057 2.571.398.67.512 1.565.398 2.738.228.727.341 1.453.398 2.236.057.782.114 1.565.228 2.403 0 .112-.057.167-.114.167-.057-.055-.114 0-.114.168.341.615.512 1.285.512 2.18 0 .838.114 1.62.284 2.347-.057.223-.17.335-.284.447-.114.112-.17.28-.114.559-.113-.056-.227-.224-.227-.447 0-.336-.114-.503-.341-.56zm.227 1.453c.114-.112.228-.224.341-.224.114-.056.057-.112-.057-.223.228-.056.342-.056.398 0-.113.335-.284.503-.511.614v.28c.113 0 .227.112.227.28-.114.055-.17.055-.17-.057.056-.111 0-.167-.057-.223-.114-.168-.17-.28-.17-.447zm.91 3.465c.284-.056.398 0 .398.223-.284.28-.455.503-.512.67-.114 0-.227 0-.227-.055 0-.056-.057-.056-.228-.056.114-.112.057-.335-.227-.67.284 0 .512-.057.796-.112zm.682 4.75c-.341-.056-.625-.056-.796-.168-.057 0-.114 0-.114-.056s-.056-.056-.113-.056v-.111c-.114 0-.228-.056-.228-.112h.228v.112c.113 0 .227.055.227.223h.228c.113-.056.17-.168.113-.223-.057-.112-.057-.168.114-.168 0-.056-.057-.112-.17-.112-.114 0-.114-.056-.057-.223.398-.056.682-.056.91 0 0 .111-.058.223-.115.223-.056 0-.113.056-.227.112 0 .112 0 .223.057.223s0 .056-.057.224c.057-.056.114-.112.227-.112.057 0 .114-.056.114-.223.114.335 0 .503-.34.447zm1.706-.894h-.114v-.224h.114v.224zm.17 0c0-.056.057-.112.114-.112 0 .056 0 .112-.114.112zm1.024-14.363c.056-.111.113-.111.113 0 0 .112-.057.112-.113 0zm7.334-11.847c0-.056 0-.112.056-.112.057 0 .057.056.057.112h-.113zm.625-1.341c-.057.055-.057.111-.057.223-.114-.056-.17-.112-.114-.223.057-.056.057-.168-.113-.28.056 0 .113 0 .17.056.057.056.057.056.17.056 0 0 0 .112-.056.168zm.341-1.118c-.057 0-.114.056-.114.223a.307.307 0 0 1-.17-.279c.057-.112.113-.168.227-.112.114.112.114.168.057.168zm.057-.391c-.114.167-.114.167 0 0 .114-.112.114-.112 0 0zm.17-.447v-.224l.114-.112c.057 0 .114.056.114.224-.057.112-.114.167-.228.112zm.171-.447c-.227 0-.227-.056-.17-.168.113-.112.17-.224.17-.335l.227.223c-.056 0-.17.112-.227.28zm.796-2.627v-.224h.227c0 .168-.057.224-.227.224z"/>
            <path d="M34.815 23.136c.057 0 0 0 0 0 .057 0 .057 0 0 0 .057-.112.057-.112 0-.112v.112zM35.895 20.845c-.057-.224-.057-.391.057-.615.114-.223.057-.335-.057-.503-.113 0-.17.112-.17.28.057.223 0 .28-.17.28.113.278.113.39-.115.39.057 0 .114.056.114.224.17-.056.284-.112.341-.056zM34.815 23.136c-.057 0-.057 0-.17-.056v.224c.17 0 .227-.056.17-.168zM18.953 31.854h.114c0-.056 0-.056-.114 0zM49.426 64.938c.057-.112.114-.224.114-.28 0-.056.057-.111.227-.223v-.503c.057 0 .114-.056.228-.168.056-.112.056-.168 0-.223l-.228.223v-.28c-.284.224-.34.392-.284.615.057.224 0 .392-.227.615-.057.112 0 .224.17.224zM47.891 54.767h-.114c0 .056 0 .112.057.112s.057 0 .057-.112zM47.607 57.17c0 .112 0 .223-.057.223-.057.056-.057.056-.057.168.114 0 .228-.056.228-.224.056-.223 0-.279-.114-.167zM45.39 85.056c-.114-.056-.171-.056-.171 0 .057.056 0 .112-.057.224.17 0 .228-.056.228-.224zM44.992 91.762c-.057.112-.057.168.056.168.114-.056.171 0 .171.056.057-.168 0-.224-.227-.224zM45.219 94.836c-.114-.112-.17-.112-.17 0 .056.112.056.112.17 0zM46.356 62.311s-.057 0-.17-.056c0 .112.056.168.17.056zM46.583 82.82c.057.113.114.113.114 0 0-.111-.057-.111-.114 0zM46.981 86.844c0-.111-.056-.111-.113 0 .113.112.113.112.113 0zM46.583 84.609c.057.112.114.112.114 0 0-.168-.057-.168-.114 0zM46.356 62.255c.057 0 .057 0 0 0 .057 0 .057 0 0 0zM47.607 61.585c0-.112-.057-.112-.114 0 .057.111.114.111.114 0zM47.777 56.052c0-.112-.056-.112-.113 0 .113.168.113.168.113 0zM46.413 86.453c.057 0 .114 0 .114.056s.056.056.113.056a1.13 1.13 0 0 0 0-.615c0 .112-.057.224-.113.224-.114.056-.114.167-.114.28zM46.583 63.708c.057-.056.114-.112.228-.112 0 0-.057 0-.228.112z"/>
            <path d="M47.323 62.758c-.057 0-.114-.056-.114-.112-.114.056-.228.168-.228.28a.384.384 0 0 1-.34.223c.227-.335.34-.614.34-.95.057-.279.057-.614.171-1.006-.114.112-.17.168-.17.056.056-.111 0-.167-.057-.223-.114.447-.171.726-.114.894-.114 0-.228.056-.228.224 0 .055-.056.111-.113.167 0 0 0 .056-.057.112 0 .056-.057.112-.114.223-.113 0-.17-.055-.17-.223.057-.112 0-.224-.057-.224-.057.112-.057.224-.057.224.057 0 .057.056.057.223.227 0 .284.056.284.224 0 .112-.057.224-.114.224-.056.055-.113.111-.113.223.284 0 .454.056.511.224l.228-.224c.057-.056.057-.056.057.056-.057.112 0 .168.17.168a.47.47 0 0 0 .228-.392c-.057 0-.114.056-.171.112-.057.056-.057.056-.17-.112.056-.055.113-.111.227-.111.057-.112.114-.168.114-.28zM48.573 66.279c.057-.335.057-.67-.113-1.006.056.112.056.224 0 .224-.057.055-.114.055-.114.167.114 0 .17.056.114.224 0 .223 0 .335.113.391z"/>
            <path d="M46.413 63.429c-.114.112-.114.223.114.28-.057-.168-.057-.28-.114-.28zM47.493 66.614c0 .112-.057.168-.114.224.114.056.228 0 .228-.168.057-.168 0-.223-.057-.223 0 .055-.057.111-.057.167zM47.323 61.696c.056.112.056.168 0 .168-.057-.056-.114 0-.114.056h.227c-.057-.168-.057-.224-.113-.224zM46.697 64.155c.057-.111.057-.223-.057-.223-.113-.056-.17 0-.227.056.114-.056.17-.056.17.111-.056.056 0 .112.114.056zM46.3 61.864c0 .056-.058.056-.114.056-.057-.056-.114 0-.114.168h.227v-.224zM46.47 61.25c-.114 0-.228.055-.228.111.17 0 .228 0 .228-.112zM47.323 59.293c0-.111-.057-.111-.114 0 .057.168.114.168.114 0zM47.209 62.535c.057.111.114.111.114 0 0-.112-.057-.112-.114 0z"/>
        </g>
    </g>
</svg>
