<svg width="14" height="18" viewBox="0 0 14 18" xmlns="http://www.w3.org/2000/svg">
    <g fill="#6C1931" fill-rule="nonzero">
        <path d="M5.496 1.087h3.008v.506H9.59v-.577C9.59.456 9.135 0 8.575 0h-3.15C4.865 0 4.41.456 4.41 1.016v.577h1.086v-.506zM12.098 5.897H1.902c-.28 0-.5.239-.477.518l.852 10.543A1.132 1.132 0 0 0 3.405 18h7.19c.59 0 1.08-.453 1.128-1.042l.852-10.543a.478.478 0 0 0-.477-.518zM4.371 16.875a.543.543 0 0 1-.576-.509l-.534-8.655a.543.543 0 0 1 1.084-.067L4.88 16.3c.019.3-.21.557-.508.575zm3.178-.542a.543.543 0 0 1-1.086 0V7.677a.543.543 0 1 1 1.086 0v8.656zm3.19-8.624-.51 8.656a.543.543 0 1 1-1.084-.064l.51-8.656a.542.542 0 1 1 1.084.064zM13.977 4.22l-.357-1.069a.69.69 0 0 0-.655-.472H1.035a.69.69 0 0 0-.655.472l-.357 1.07a.448.448 0 0 0 .425.59h13.104a.448.448 0 0 0 .425-.59z"/>
    </g>
</svg>
