<svg width="20" height="18" viewBox="0 0 20 18" xmlns="http://www.w3.org/2000/svg">
    <path d="m9.845 5.455 2.882 2.872v-.145A2.727 2.727 0 0 0 10 5.455h-.155m-3.909.727 1.41 1.409c-.046.19-.073.382-.073.59A2.727 2.727 0 0 0 10 10.91c.2 0 .4-.027.59-.073l1.41 1.41c-.61.3-1.282.481-2 .481a4.545 4.545 0 0 1-4.545-4.545c0-.718.181-1.391.481-2M.91 1.155l2.073 2.072.409.41A10.757 10.757 0 0 0 0 8.181C1.573 12.172 5.455 15 10 15c1.41 0 2.755-.273 3.982-.764l.39.382 2.655 2.655 1.155-1.155L2.064 0M10 3.636a4.545 4.545 0 0 1 4.545 4.546c0 .582-.118 1.145-.327 1.654l2.664 2.664A10.767 10.767 0 0 0 20 8.182c-1.573-3.991-5.455-6.818-10-6.818-1.273 0-2.49.227-3.636.636l1.972 1.955A4.59 4.59 0 0 1 10 3.636z" fill="#6B1931" fill-rule="nonzero"/>
</svg>
