<svg width="21" height="18" viewBox="0 0 21 18" xmlns="http://www.w3.org/2000/svg">
    <path d="M10.033 17.808A.66.66 0 0 0 10.5 18a.66.66 0 0 0 .467-.192l8.398-8.332a5.524 5.524 0 0 0 0-7.847A5.594 5.594 0 0 0 15.398 0c-1.5 0-2.907.579-3.966 1.629l-.932.925-.932-.925A5.593 5.593 0 0 0 5.602 0c-1.5 0-2.908.579-3.967 1.63a5.523 5.523 0 0 0 0 7.845l8.398 8.333zM2.569 2.532a4.282 4.282 0 0 1 3.032-1.246c1.145 0 2.222.443 3.031 1.247l1.4 1.388a.687.687 0 0 0 .934 0l1.4-1.389a4.287 4.287 0 0 1 3.032-1.246 4.28 4.28 0 0 1 3.032 1.246 4.254 4.254 0 0 1 0 6.041l-7.93 7.87-7.93-7.87a4.253 4.253 0 0 1 0-6.041z" fill="#6C1931" fill-rule="nonzero"/>
</svg>
