<svg width="18" height="17" xmlns="http://www.w3.org/2000/svg">
    <path d="m8.984 16.493-1.307-1.181a175.622 175.622 0 0 1-3.248-2.995 36.425 36.425 0 0 1-2.257-2.404C1.342 8.956.773 8.092.464 7.318A6.38 6.38 0 0 1 0 4.936C0 3.558.47 2.39 1.413 1.434 2.355.478 3.529 0 4.935 0c1.63 0 2.98.633 4.049 1.898C10.052.633 11.402 0 13.034 0c1.405 0 2.58.478 3.521 1.434.942.957 1.413 2.124 1.413 3.502 0 1.096-.366 2.235-1.097 3.416-.731 1.182-1.525 2.208-2.383 3.08-.857.871-2.256 2.179-4.197 3.922l-1.307 1.14z" fill="#000" fill-rule="nonzero" opacity=".3"/>
</svg>
