<svg width="53" height="49" xmlns="http://www.w3.org/2000/svg">
    <path d="m26.5 49-3.857-3.51c-4.395-4.01-7.588-6.976-9.579-8.897-1.99-1.921-4.21-4.302-6.657-7.143s-4.126-5.41-5.037-7.708A19.077 19.077 0 0 1 0 14.663c0-4.093 1.39-7.56 4.167-10.402C6.945 1.421 10.408 0 14.556 0c4.811 0 8.793 1.88 11.944 5.638C29.651 1.88 33.633 0 38.444 0c4.148 0 7.61 1.42 10.389 4.261C51.61 7.102 53 10.57 53 14.663c0 3.258-1.079 6.642-3.236 10.151-2.157 3.51-4.5 6.559-7.028 9.148-2.529 2.59-6.655 6.474-12.38 11.654L26.5 49z" fill="#000" fill-rule="nonzero" opacity=".2"/>
</svg>
