<svg width="156" height="156" viewBox="0 0 156 156" xmlns="http://www.w3.org/2000/svg">
    <defs>
        <linearGradient x1="55.356%" y1="0%" x2="60.44%" y2="107.486%" id="a">
            <stop stop-color="#D04109" offset="0%"/>
            <stop stop-color="#641634" offset="100%"/>
        </linearGradient>
    </defs>
    <g fill="none" fill-rule="evenodd">
        <rect fill="url(#a)" width="156" height="156" rx="77.85"/>
        <path d="M75.386 123.136A2.992 2.992 0 0 0 77.5 124c.796 0 1.556-.309 2.114-.864l37.989-37.495c9.863-9.732 9.863-25.573 0-35.309C112.81 45.604 106.44 43 99.658 43c-6.783 0-13.15 2.604-17.941 7.329L77.5 54.494l-4.217-4.162C68.492 45.604 62.121 43 55.343 43c-6.784 0-13.154 2.604-17.946 7.332-9.863 9.736-9.863 25.577 0 35.305l37.989 37.499zM41.622 54.394c3.667-3.614 8.541-5.608 13.716-5.608 5.18 0 10.05 1.994 13.712 5.612l6.332 6.248c1.112 1.1 3.112 1.1 4.224 0l6.332-6.252a19.447 19.447 0 0 1 13.72-5.608c5.179 0 10.05 1.994 13.716 5.608 7.59 7.494 7.59 19.687 0 27.185L77.5 116.992 41.622 81.575c-7.59-7.49-7.59-19.687 0-27.181z" fill="#FFFCF5" fill-rule="nonzero"/>
    </g>
</svg>
