<svg width="11" height="20" viewBox="0 0 11 20" xmlns="http://www.w3.org/2000/svg">
    <path d="M3.004 11.29H.526c-.4 0-.526-.151-.526-.527V7.735c0-.4.15-.526.526-.526h2.478V5.006c0-1.001.175-1.952.676-2.828C4.205 1.277 4.956.676 5.907.325A5.57 5.57 0 0 1 7.835 0h2.453c.35 0 .5.15.5.5v2.854c0 .35-.15.5-.5.5-.676 0-1.352 0-2.028.026-.676 0-1.026.325-1.026 1.026-.025.751 0 1.477 0 2.253h2.904c.4 0 .55.15.55.55v3.03c0 .4-.125.525-.55.525H7.234v8.16c0 .426-.125.576-.576.576H3.53c-.375 0-.525-.15-.525-.526V11.29z" fill="#FFF" fill-rule="nonzero"/>
</svg>
