<svg width="21" height="21" viewBox="0 0 21 21" xmlns="http://www.w3.org/2000/svg">
    <g fill="#6C1931" fill-rule="nonzero">
        <path d="M9.599 19.324H2.463a.813.813 0 0 1-.663-.337.81.81 0 0 1-.118-.733c.81-2.516 3.283-4.274 6.013-4.274 1.27 0 2.489.382 3.526 1.104a.821.821 0 0 0 1.142-.203.818.818 0 0 0-.203-1.14 7.799 7.799 0 0 0-1.636-.872 4.166 4.166 0 0 0 1.358-2.75 6.117 6.117 0 0 1 4.302-1.743c1.27 0 2.49.382 3.526 1.104a.821.821 0 0 0 1.142-.203.818.818 0 0 0-.203-1.14 7.799 7.799 0 0 0-1.636-.872 4.163 4.163 0 0 0 1.372-3.09 4.184 4.184 0 0 0-8.366 0c0 1.22.525 2.317 1.361 3.081a7.83 7.83 0 0 0-1.785.968A4.184 4.184 0 0 0 3.53 9.78c0 1.215.522 2.31 1.354 3.074-2.225.833-4.029 2.62-4.763 4.9a2.429 2.429 0 0 0 .354 2.199 2.437 2.437 0 0 0 1.988 1.01H9.6a.82.82 0 1 0 0-1.638zm6.603-17.686a2.543 2.543 0 0 1 2.542 2.538 2.543 2.543 0 0 1-5.085 0c0-1.4 1.14-2.538 2.543-2.538zM7.712 7.24a2.543 2.543 0 0 1 2.543 2.539 2.543 2.543 0 0 1-5.085 0c0-1.4 1.14-2.539 2.542-2.539z"/>
        <path d="M20.657 13.374a.821.821 0 0 0-1.144.19L15.47 19.2a.465.465 0 0 1-.323.16.462.462 0 0 1-.351-.125l-2.618-2.509a.821.821 0 0 0-1.16.024.818.818 0 0 0 .024 1.157l2.62 2.512a2.117 2.117 0 0 0 1.594.575 2.116 2.116 0 0 0 1.531-.818l4.06-5.66a.818.818 0 0 0-.19-1.143z"/>
    </g>
</svg>
