<svg width="68" height="68" xmlns="http://www.w3.org/2000/svg">
    <g fill="#000" fill-rule="nonzero" opacity=".2">
        <path d="M66.046 5.539h-3.592V1.96A1.958 1.958 0 0 0 60.5 0c-1.08 0-1.954.878-1.954 1.961V5.54h-3.592C53.874 5.539 53 6.417 53 7.5c0 1.083.875 1.961 1.954 1.961h3.592v3.578c0 1.083.875 1.961 1.954 1.961 1.08 0 1.954-.878 1.954-1.961V9.46h3.592C67.126 9.461 68 8.583 68 7.5a1.958 1.958 0 0 0-1.954-1.961zM10.939 46.959c0-.537.022-1.072.061-1.603-2.64-.743-4.978-2.28-6.774-4.356C1.635 43.467 0 47.053 0 51.039V68h10.939V46.959zM20 31.18a17.094 17.094 0 0 1-2.482-10.002A10.505 10.505 0 0 0 15.605 21C9.757 21 5 25.81 5 31.723 5 36.574 8.204 40.68 12.584 42c1.203-4.291 3.791-8.126 7.416-10.82zM34 35c-7.168 0-13-5.832-13-13S26.832 9 34 9s13 5.832 13 13-5.832 13-13 13z"/>
        <path d="M46.159 34A17.2 17.2 0 0 1 34 39.017 17.2 17.2 0 0 1 21.841 34C17.701 36.964 15 41.809 15 47.272V68h38V47.272C53 41.81 50.298 36.964 46.159 34z"/>
    </g>
</svg>
