<svg width="19" height="19" xmlns="http://www.w3.org/2000/svg">
    <g fill="#000" fill-rule="nonzero">
        <path d="M18.443 1.578H17.42V.558a.558.558 0 1 0-1.113 0v1.02h-1.023a.558.558 0 0 0 0 1.117h1.023v1.019a.558.558 0 1 0 1.113 0V2.695h1.023a.558.558 0 0 0 0-1.117zM3.164 13.19c0-.148.006-.295.018-.442a4.077 4.077 0 0 1-1.96-1.203A3.736 3.736 0 0 0 0 14.317V19h3.164v-5.81zM5.545 8.683a4.767 4.767 0 0 1-.706-2.815 3.022 3.022 0 0 0-3.566 2.967c0 1.366.912 2.521 2.16 2.892a5.714 5.714 0 0 1 2.112-3.044zM9.59 9.818a3.686 3.686 0 0 1-3.68-3.682 3.686 3.686 0 0 1 3.68-3.681 3.686 3.686 0 0 1 3.683 3.681A3.686 3.686 0 0 1 9.59 9.818z"/>
        <path d="M13.01 9.545a4.768 4.768 0 0 1-3.374 1.396 4.768 4.768 0 0 1-3.374-1.396 4.537 4.537 0 0 0-1.898 3.691V19h10.545v-5.764c0-1.52-.75-2.866-1.898-3.69z"/>
    </g>
</svg>
