<svg width="156" height="156" viewBox="0 0 156 156" xmlns="http://www.w3.org/2000/svg">
    <defs>
        <linearGradient x1="55.356%" y1="0%" x2="60.44%" y2="107.486%" id="a">
            <stop stop-color="#D04109" offset="0%"/>
            <stop stop-color="#641634" offset="100%"/>
        </linearGradient>
    </defs>
    <g fill="none" fill-rule="evenodd">
        <rect fill="url(#a)" width="156" height="156" rx="77.85"/>
        <g fill="#FFFCF5" fill-rule="nonzero">
            <path d="M70.967 115.417H39.026a3.625 3.625 0 0 1-2.968-1.523 3.697 3.697 0 0 1-.528-3.318c3.629-11.383 14.695-19.332 26.912-19.332a27.293 27.293 0 0 1 15.787 4.994 3.651 3.651 0 0 0 5.111-.92 3.725 3.725 0 0 0-.91-5.156 34.788 34.788 0 0 0-7.324-3.944 18.92 18.92 0 0 0 6.08-12.44c5.181-5.094 11.974-7.884 19.255-7.884a27.293 27.293 0 0 1 15.787 4.994 3.651 3.651 0 0 0 5.111-.92 3.725 3.725 0 0 0-.91-5.156 34.788 34.788 0 0 0-7.323-3.944 18.922 18.922 0 0 0 6.14-13.977c0-10.417-8.4-18.891-18.724-18.891-10.325 0-18.725 8.474-18.725 18.891 0 5.511 2.352 10.478 6.095 13.935a34.78 34.78 0 0 0-7.992 4.38c-2.771-6.943-9.517-11.856-17.378-11.856-10.324 0-18.724 8.475-18.724 18.891 0 5.495 2.338 10.45 6.062 13.905-9.958 3.765-18.033 11.85-21.32 22.162-1.09 3.42-.513 7.047 1.584 9.95 2.097 2.903 5.341 4.568 8.902 4.568h31.941c2.028 0 3.671-1.659 3.671-3.704 0-2.046-1.644-3.705-3.671-3.705zm29.555-80.009c6.276 0 11.381 5.151 11.381 11.483 0 6.331-5.105 11.483-11.381 11.483S89.14 53.222 89.14 46.89c0-6.332 5.106-11.483 11.382-11.483zm-38 25.35c6.276 0 11.382 5.151 11.382 11.483 0 6.332-5.106 11.483-11.381 11.483-6.276 0-11.382-5.151-11.382-11.483 0-6.332 5.106-11.483 11.382-11.483z"/>
            <path d="M120.465 88.503a3.65 3.65 0 0 0-5.122.856l-18.097 25.503a2.072 2.072 0 0 1-1.445.725 2.056 2.056 0 0 1-1.573-.567l-11.716-11.35a3.648 3.648 0 0 0-5.191.107 3.727 3.727 0 0 0 .105 5.237l11.727 11.36a9.422 9.422 0 0 0 7.136 2.605 9.44 9.44 0 0 0 6.731-3.537c.043-.053.084-.108.124-.164l18.17-25.607a3.726 3.726 0 0 0-.849-5.168z"/>
        </g>
    </g>
</svg>
