<svg width="38" height="38" xmlns="http://www.w3.org/2000/svg">
    <g fill="none" fill-rule="evenodd">
        <rect fill="#D8D8D8" opacity=".5" width="38" height="38" rx="19"/>
        <path d="M19.5 21.888c2 0 4.084.436 6.25 1.306 2.167.871 3.25 2.01 3.25 3.417V29H10v-2.39c0-1.406 1.083-2.545 3.25-3.416 2.166-.87 4.25-1.306 6.25-1.306zm0-2.389c-1.296 0-2.407-.463-3.333-1.388-.926-.926-1.39-2.038-1.39-3.334 0-1.296.464-2.417 1.39-3.36C17.093 10.471 18.204 10 19.5 10c1.296 0 2.408.472 3.334 1.416.926.944 1.389 2.065 1.389 3.361 0 1.296-.463 2.408-1.39 3.334-.925.925-2.037 1.388-3.333 1.388z" fill="#FFF" fill-rule="nonzero"/>
    </g>
</svg>
