<svg width="16" height="16" viewBox="0 0 16 16" xmlns="http://www.w3.org/2000/svg">
    <g fill="#6C1931" fill-rule="nonzero">
        <path d="M12 0H4C1.8 0 0 1.8 0 4v8c0 2.2 1.8 4 4 4h8c2.2 0 4-1.8 4-4V4c0-2.2-1.8-4-4-4zm2.667 12A2.67 2.67 0 0 1 12 14.667H4A2.67 2.67 0 0 1 1.333 12V4A2.67 2.67 0 0 1 4 1.333h8A2.67 2.67 0 0 1 14.667 4v8z"/>
        <circle cx="12.334" cy="3.667" r="1"/>
        <path d="M8 4a4 4 0 1 0-.001 7.999A4 4 0 0 0 8 4zm0 6.667a2.667 2.667 0 1 1 0-5.334 2.667 2.667 0 0 1 0 5.334z"/>
    </g>
</svg>
