<svg width="58" height="37" viewBox="0 0 58 37" xmlns="http://www.w3.org/2000/svg">
    <g fill="#FFFCF5" fill-rule="nonzero">
        <path d="M28.304 11.475a.4.4 0 0 0 0 .298c-.038.41-.077.782-.115 1.08-.039.298-.077.634-.154.988 0 .503-.019.95-.057 1.36-.038.41-.115.8-.21 1.155.018.093.018.167-.02.223-.038.075-.02.15.02.26-.097.355-.135.69-.154 1.025-.02.336-.077.652-.192.95a4.09 4.09 0 0 1 0 .97c-.038.334-.077.67-.096.968 0 .074.02.112.077.13a2.978 2.978 0 0 0-.039.727c.02.26.039.503.039.726-.02.037-.039.075-.039.093 0 .019-.019.038-.038.075.038.391.077.745.077 1.043.019.298.057.652.115 1.025.038.093.077.149.077.204.019.056.019.13.019.243a.26.26 0 0 1 .038.111c0 .038.02.075.038.112-.038 0-.076.019-.076.075 0 .037.019.037.057 0 .039-.038.058-.038.058.037.038.037.038.056 0 .056-.039-.019-.077 0-.096.018.019.038.019.094.019.13-.02.038 0 .094.02.131-.097 0-.116.075-.077.205-.116.037-.173.112-.173.205-.077 0-.096.037-.096.093-.038.019-.077.019-.077-.018 0-.038-.019-.056-.038-.075l-.172.075c-.039.018-.077.055-.077.111-.02.056-.058.056-.115-.018 0 .037.019.074.057.074.039 0 .039.037.02.093a.33.33 0 0 1-.346.019 1.806 1.806 0 0 1-.345-.224 1.613 1.613 0 0 1-.268-.335c-.077-.13-.134-.242-.192-.335a5.826 5.826 0 0 1-.422-1.267 11.85 11.85 0 0 1-.21-1.472c-.039-.521-.039-1.024-.039-1.564.02-.522.02-1.025.058-1.51a1.824 1.824 0 0 0-.192.541.984.984 0 0 1-.21.447c-.02.093-.04.168-.058.224-.02.074-.058.111-.115.167a1.286 1.286 0 0 1-.288.634 3.358 3.358 0 0 0-.383.614 7.83 7.83 0 0 1-.633.429c-.21.112-.498.168-.882.205-.67-.019-1.208-.242-1.61-.69a2.262 2.262 0 0 1-.192-.26c-.057-.093-.134-.168-.21-.261 0-.112-.02-.186-.078-.224-.038-.037-.057-.111-.038-.223-.019-.019-.038-.037-.057-.075-.02-.018-.02-.037-.058-.074 0-.13-.02-.242-.038-.335-.02-.094-.058-.205-.096-.317a6.85 6.85 0 0 1 .057-2.645c.192-.913.441-1.714.729-2.44.038-.336.153-.634.307-.895.153-.28.287-.54.364-.8.134-.206.268-.41.383-.616.115-.223.23-.428.326-.614.154-.093.288-.205.364-.336.096-.149.192-.26.307-.372.173-.13.403-.205.652-.242.25-.038.537-.056.805-.056.288 0 .556.018.844.074.287.038.537.075.767.093.038-.074.038-.111 0-.167a.233.233 0 0 1-.077-.168c0-.112.038-.167.096-.205.076-.018.153-.018.249-.018.096.018.21.018.307.056a.393.393 0 0 0 .287-.038c.269.038.537.075.806.093a.772.772 0 0 1 .709.224zM21.556 22.52c-.039-.037-.058-.037-.058 0 .02.038.038.038.058 0zm2.032-3.93v.074c.038 0 .076-.018.076-.055.02-.038 0-.056-.019-.075l-.057.056c.038-.075.076-.13.096-.186.019-.056.057-.112.095-.187l-.038-.037c.038-.074.077-.149.096-.242a.329.329 0 0 1 .134-.205c-.038-.037-.057-.093-.019-.13.038-.038.077-.075.115-.075-.038-.037-.057-.093-.038-.168.019-.074.057-.111.096-.167.019.037.019.074-.02.112-.038.037-.057.074-.057.149a.392.392 0 0 0 .134-.298c0-.112.02-.205.038-.299 0 .038.02.075.077.075.02-.093.058-.149.077-.205.038-.037.057-.112.057-.205-.019-.018-.038-.018-.057.019-.02.037-.02.018-.02-.019.039-.037.077-.093.077-.149 0-.056.039-.074.096-.074-.038-.112-.038-.187.038-.224.077-.037.077-.093.039-.168.096-.018.134-.093.134-.223s.038-.205.134-.205c0-.168.02-.298.077-.373.038-.074.096-.186.134-.316-.02-.075-.02-.112.02-.168.038-.037.018-.093-.02-.13a.574.574 0 0 0 .134-.391c0-.15.039-.243.096-.299-.038-.093-.038-.167.02-.223.057-.075.057-.13-.02-.205.038-.037.058-.093.058-.168-.02-.074 0-.13.019-.205a1.263 1.263 0 0 0-.173-.465c-.019 0-.038-.019-.076-.038a.542.542 0 0 0-.441.224 2.23 2.23 0 0 0-.595.727c-.153.279-.326.54-.517.782 0 .037-.02.112-.058.205-.038.093-.076.149-.115.205-.038.205-.115.39-.192.614-.076.205-.172.41-.287.615 0 .224-.077.391-.23.485-.02.26-.096.502-.211.726-.115.224-.173.484-.21.782-.135.13-.173.261-.135.354 0 .019-.02.038-.038.038-.02 0-.039.018-.039.074l-.057.522c-.02.167-.039.354-.077.521-.02.652.038 1.304.21 1.975.04.018.058.018.058-.019-.019-.037 0-.037.058-.018.153-.298.307-.615.422-.95.115-.336.268-.652.421-.95 0 .074.02.074.077.018.038-.056.038-.093 0-.112 0 .019-.019.038-.038.056-.02.019-.039 0-.039-.018.077-.075.096-.093.077-.093 0 .037.02.074.077.074.038-.074.038-.112 0-.13-.039-.019-.039-.075 0-.168.019 0 .038.019.038.037 0 .019.02.019.077 0a.28.28 0 0 0 .077-.186c0-.075.038-.112.134-.112 0-.037-.02-.056-.039-.056-.019.019-.038 0-.038-.056.02 0 .02-.018.02-.055-.02 0 0-.02.057-.02zm-.134 0c.038.037.038.074 0 .074-.058-.018-.058-.037 0-.074zm.057-.205c.038.019.058.037.02.056-.04.018-.04.018-.02.056-.038 0-.057-.019-.038-.038.038-.018.038-.037.038-.074zm.844-1.732c.019-.038.038-.038.038 0 0 .037-.02.037-.038 0zm.575-1.565c0 .037-.02.037-.039 0 .039-.056.039-.056.039 0zm.038-.634c0 .075-.02.094-.038.094 0-.056.019-.094.038-.094zM37.851 18.125c-.134.037-.21.13-.21.242-.02.112-.02.261-.02.41.077.019.096 0 .077-.074-.02-.075 0-.112.076-.075 0-.018-.019-.037-.076-.037 0-.093.038-.15.096-.205.038.242.057.466.038.69-.02.223-.02.446.038.688h-.096c0 .038.02.094.077.13-.077.075-.077.15 0 .243s.058.186-.038.242c0 .075.019.15.076.224.058.093.058.149-.019.205.039.037.077.111.077.223.02.112 0 .186-.058.224.077.13.096.205.096.223.039 0 .077-.018.077-.074.038 0 .057.056.057.149-.019.093.02.167.077.186-.115.112-.115.205 0 .298 0 .037-.019.075-.057.075-.039 0-.058.018-.058.037.077.037.096.093.077.168.019.018.038.037.057.037.02 0 .02.018.02.074l-.039-.037c-.019-.019-.038-.019-.057-.019-.02.019 0 .019.057.019-.038.075-.038.093.02.075.057-.02.076 0 .057.055-.038 0-.058.02-.058.038.02.018.02.037.058.037-.02.037-.02.074.038.074.039.02.039.038 0 .075.115 0 .173.037.211.112.02.074.077.13.173.186-.02 0-.039.019-.039.037.02 0 .02 0 .02-.018-.02-.019 0-.019.019-.019.038.019.057.056.057.075-.019.037 0 .055.058.055 0 .019-.02.038-.039.038s-.038.018-.038.074c.02 0 .038 0 .038.019 0 .018.02.018.077.018 0 .02 0 .038-.02.038-.018 0-.018.018-.018.037-.02-.019-.039 0-.039.056s.02.074.039.056c.019.018.019.037 0 .056-.02.018-.02.018.038.055-.038.038-.038.075 0 .075 0 .019 0 .019-.02.019-.018-.019 0 0 .02.056-.077.018-.096.055-.077.074.02.037.02.056-.038.075-.02-.02-.038-.02-.058-.02-.019.02 0 .02.058.02 0 .037.02.055.057.037a.102.102 0 0 0 .058-.093c.038.037.058.093.038.13a.338.338 0 0 0-.038.13l-.077-.13c-.115.037-.172.093-.153.13.02.038-.038.075-.153.075-.02.074-.02.093.038.093 0 .037-.02.056-.058.056-.038-.019-.038 0-.019.056-.038-.019-.076-.019-.096-.019-.019.019-.057 0-.095-.056-.039.019-.039.038 0 .075.038.019.038.037-.039.037.02-.074.02-.074-.019-.056-.038.019-.02.056.02.056 0 .019.018.037.038.037-.02.038-.039.056-.077.038-.02-.019-.039-.038-.039-.075-.019.075-.057.075-.095.056-.039-.037-.096-.056-.173-.056.02.093.02.168 0 .224a.823.823 0 0 0-.307-.075c0-.018.02-.037.077-.037-.02-.037-.096-.075-.21-.075 0-.111-.078-.186-.212-.205-.134-.037-.23-.111-.268-.204l-.038-.038v-.037h-.039v-.037c0 .018-.019.037-.038.037.019-.112 0-.186-.077-.205a1.229 1.229 0 0 0-.172-.074c.019-.038.019-.075.019-.075-.02-.019-.02-.037-.02-.074-.038-.019-.057-.019-.057.018.02.037 0 .037-.057.019.038-.019.057-.056.038-.075-.02-.037-.058-.056-.096-.074 0-.019.02-.019.038-.019.02.019.039 0 .077-.018-.02-.038-.057-.075-.077-.094-.038-.018-.057-.055-.076-.093l.038-.074c0-.019-.02-.037-.038-.075-.02-.018-.039-.018-.039 0-.038-.037-.076-.111-.076-.223h.038c-.038.037-.038.074.038.074v.038c.039-.02.077-.02.077 0 .038-.038.058-.075.038-.094-.019-.018-.038-.018-.057.019-.02.037-.02.056-.058.056l-.038-.075c0-.018.02-.037.038-.074-.095 0-.115-.019-.095-.075.019 0 .057-.018.095-.037-.038-.037-.076-.056-.076-.037 0 .018-.02.037-.077.037.02 0 .038-.037.038-.13.115.037.173.018.173-.093-.02-.02-.058-.038-.077-.056-.038-.019-.019-.056.02-.112-.039 0-.058.019-.058.056.02.037 0 .056-.02.056-.018-.093-.018-.13.02-.112.038.019.077 0 .115-.056-.038 0-.077-.019-.077-.075l-.076.038v.037a.432.432 0 0 1-.096-.186c-.02-.075.019-.13.096-.187a.255.255 0 0 0-.058-.167c-.038-.037-.02-.093.058-.168-.096-.018-.115-.112-.077-.26-.077 0-.096.037-.096.092 0 .075-.038.094-.096.094-.038-.094-.019-.187.096-.298a.14.14 0 0 1-.038-.075c0-.037.019-.056.076-.056-.019-.112-.019-.223-.019-.335.02-.112 0-.224-.019-.354-.02.019-.038.037-.038.074-.039-.037-.058-.111-.039-.204.02-.094.02-.15-.038-.205.02 0 .038-.019.038-.056 0-.038.02-.038.077-.019-.02-.354-.038-.652-.058-.894-.019-.242 0-.503.058-.764h.096v-.167c-.038-.02-.077-.02-.077 0 0 .018-.019.037-.038.037-.02-.037 0-.093.057-.13.058-.038.096-.056.115-.038 0-.112.02-.167.039-.205.076.075.096.056.096-.037 0-.019-.02-.037-.077-.037-.038 0-.058.018-.038.074-.02 0-.039-.018-.039-.037v-.037c0-.038.02-.056.039-.038.019.02.057.02.095 0 0-.074 0-.111-.019-.13-.019-.019 0-.074.02-.13v-.075c-.039 0-.039.019 0 .075-.096 0-.135.037-.154.13-.02.093-.057.13-.153.13 0-.037 0-.111.019-.186.019-.074.019-.13.019-.186a.149.149 0 0 0-.096-.037.665.665 0 0 0 .077-.429c-.02-.149 0-.316.019-.484a2.133 2.133 0 0 0-.115-.28c-.038-.074-.02-.149.02-.242a1.535 1.535 0 0 1-.02-.782c.057-.28.057-.503-.02-.652.077-.466.097-.894.097-1.304 0-.41-.02-.838-.077-1.248a2.73 2.73 0 0 0-.403.41c-.115.149-.23.28-.364.41 0 .037.02.074.077.074-.134.13-.269.26-.364.41-.115.149-.23.28-.346.41 0 .018.02.037.077.037-.307.503-.613 1.024-.92 1.546a5.875 5.875 0 0 0-.614 1.602c0 .037-.019.075-.038.075s-.038.018-.038.037c0 .018.019.037.038.037-.134.205-.21.41-.21.615-.02.223-.058.428-.116.652 0 .037-.019.074-.038.074-.02.019-.038.038-.038.075v.074c0 .019.019.038.038.075-.038.149-.096.298-.134.428-.039.13-.077.28-.096.466-.02.354-.058.67-.096.969a7.332 7.332 0 0 0-.077.931c-.038.168-.076.373-.115.596a3.746 3.746 0 0 0-.057.652c-.077.298-.154.615-.269.913-.115.298-.287.54-.536.69h-.576a4.73 4.73 0 0 0-.325-.299 1.224 1.224 0 0 1-.25-.298c-.019-.019-.019-.056.039-.093-.25-.428-.422-.95-.518-1.546a19.308 19.308 0 0 1-.21-1.733 20.15 20.15 0 0 1-.04-3.893c.116-1.397.288-2.757.538-4.098.038-.205.153-.298.325-.28.173.02.307.056.422.15.115-.075.269-.075.46 0 .192.074.345.111.46.167.02 0 .039.019.039.037 0 .02-.02.02-.077 0a.645.645 0 0 1 .23.354c.039.15.077.317.077.503.019.187.019.392.019.596 0 .205.02.392.077.54.115-.13.21-.297.268-.484.077-.186.173-.335.345-.447-.038-.112-.019-.186.077-.223.096-.038.134-.112.115-.224.115-.093.21-.186.287-.317.077-.111.154-.242.211-.372.039 0 .077-.019.077-.037l.077-.075c0-.018 0-.037-.02-.037-.019 0-.019-.019-.019-.075.211-.205.384-.39.518-.614.153-.205.307-.41.498-.615.077 0 .096.019.096.037.096-.167.211-.316.345-.428a1.42 1.42 0 0 0 .384-.429c.038.038.096.038.153-.037.058-.074.115-.13.154-.205 0 .037 0 .056.019.037.019-.018.038-.037.076-.037-.019-.037-.019-.074 0-.074l.077-.075h.096c.02 0 .057-.019.096-.074.44.037.9.111 1.342.204.44.094.786.299 1.035.615h-.038v.075c.096.112.153.26.172.447.02.186.02.372-.038.54.02.205.038.428.038.67 0 .261-.019.504-.076.746a.715.715 0 0 1-.02.447.509.509 0 0 0-.019.372c-.019.019-.019.056-.019.075.02.037 0 .037-.057.019.019.204 0 .353-.058.465-.058.112-.058.261-.02.466-.038.093-.076.13-.095.13a.5.5 0 0 1 0 .336 1.51 1.51 0 0 0-.096.372c.02.168-.02.298-.096.354.077.112.077.205.058.261a.426.426 0 0 0 .019.26.149.149 0 0 1-.096.038c.077.112.077.205.02.28-.058.074-.058.167-.02.279-.038-.019-.057-.019-.057.037.019.037 0 .075-.02.075.039.037.058.093.039.13-.02.037-.058.093-.096.168a.661.661 0 0 1 .057.205c-.019.055-.019.13-.019.204-.115.094-.153.168-.134.243.02.074-.02.167-.096.28 0 .018.02.018.058.018.038-.019.038 0 .019.056.019-.038.057-.075.077-.075.019 0 .057-.019.057-.074.02 0 .02.018.02.055.038-.018.057-.018.095-.037zm-1.84 3.353c-.02.038 0 .038.057 0 .02.038 0 .075-.057.075-.058.018-.077 0-.077-.019 0-.074.02-.112.038-.13.039 0 .058.018.039.074zm.019-1.024c-.02 0-.039-.038-.039-.093.096 0 .116.037.039.093zm.038-2.385v.13c-.019 0-.038-.018-.038-.074 0-.037.019-.056.038-.056zm0 4.546c-.019 0-.038-.02-.038-.075.019.019.038.037.038.075.039 0 .058.018.039.037-.039.018-.039.018-.039-.037zm0-4.974h.077c-.02 0-.038.037-.038.093-.039 0-.039-.037-.039-.093zm0 4.005c.02 0 .039.037.039.093-.039 0-.039-.037-.039-.093zm.23-3.484c-.038.038-.076.075-.096.075.039.093.039.168-.038.223-.02-.018-.038-.018-.057-.018-.02.018 0 .018.057.018 0 .02 0 .038-.02.038-.018 0-.018.018-.018.037.076.075.076.13.038.205.02.019.038.019.058-.019.019-.037.019-.018.057.019-.096.019-.115.056-.077.093a.112.112 0 0 1 .02.13l.076.075c-.038.037-.038.074 0 .074-.019.02-.076.038-.134.038.038.037.038.074 0 .093-.038.019-.038.056 0 .093h.038c.02-.019.039-.037.077-.037 0 .018-.02.037-.038.074-.02.019-.02.038.038.038.077-.075.096-.15.077-.224a.563.563 0 0 1 .057-.335c-.038 0-.076 0-.076.018 0 .019-.02.019-.039.019 0-.019 0-.037-.019-.037-.02 0-.02-.019-.02-.038.097 0 .135-.074.135-.204-.077.037-.096.055-.096.037 0-.019-.019-.056-.038-.093.038 0 .077 0 .077-.019s.019-.019.076-.019c-.038-.074-.057-.13-.038-.186-.02-.074-.02-.13-.077-.168v-.055c-.038-.02-.076-.02-.076.037.019.037.038.037.076.018zm-.057 1.733c-.077-.075-.096-.075-.096 0-.02.037-.02.074.038.074.039 0 .058-.018.058-.074zm-.077 2.7c-.038 0-.057-.018-.02-.055.04-.037.04-.019.02.056zm-.038-2.179c.019.038.038.038.038 0 0-.037 0-.037-.038 0zm.115 1.882c-.039.037-.039.074 0 .074-.02.019-.039.038-.039.075-.038 0-.076-.019-.076-.075 0-.074.038-.093.115-.074zm0-2.012c0-.019.019-.056.038-.093.02-.037.02-.075-.038-.075-.039 0-.077.019-.077.075 0 .074.02.093.077.093zm0-.838c-.02.074-.02.093.038.093.02 0 .038-.019.038-.075 0-.037-.019-.074-.076-.074v.056c0-.037-.02-.056-.039-.037-.019.018-.019.037.039.037zm-.039.391c.039.019.058.074.039.13.076-.074.076-.111.057-.167-.038-.038-.019-.112.02-.224-.096.019-.116.056-.096.093 0 .038 0 .093-.02.168zm0-2.068c.02-.037.039-.037.039.019 0 .056-.02.037-.039-.019zm0 .783c.02-.038.039-.038.039 0 0 .056-.02.056-.039 0zm0 1.546c.077 0 .096-.037.096-.093-.057 0-.096.018-.096.093zm.058.82a.14.14 0 0 0-.038.074c0 .037-.02.056-.039.074.02.02.058.056.077.112.038.056.02.112-.058.186.039 0 .058.02.058.056-.02.038 0 .038.057.019.02 0 .02-.019 0-.037-.019-.019-.019-.038.039-.038v.075c-.077 0-.096.037-.096.093 0 .019.02.019.057.019.039-.019.058 0 .058.018-.02.019-.038.056-.058.075-.019.037 0 .056.058.056v-.093a.14.14 0 0 1 .038.074c0 .019.02.056.077.056-.038-.093-.077-.149-.096-.205.096-.168.115-.372.077-.615a8.064 8.064 0 0 1-.096-.67 1.22 1.22 0 0 0-.058.335c.02.093 0 .186-.057.298-.02.019-.02.037 0 .037zm-.02-3.745c.04 0 .058-.018.04-.037-.04-.019-.04 0-.04.037zm.097.783c-.096.037-.096.074-.039.074.077.019.077 0 .039-.074zm0-.448v.075h-.077v-.075h.077zm-.077 3.41c0-.02.02-.02.038 0h-.038zm.077-3.056c-.039.038-.058.075-.02.075.039 0 .039-.019.02-.075zm-.039 2.292c.02 0 .039 0 .039.018 0 .019.019.019.038.019 0-.037-.02-.075-.038-.075-.02.019-.039.019-.039.038zm.077 1.75c-.077.112-.038.168.077.168 0-.018.019-.037.038-.056.02-.018.038-.037.038-.074-.076-.037-.115-.037-.153-.037v-.038h-.077c.02 0 .039 0 .039.02 0 0 .019.018.038.018zm-.038 1.081c0 .037 0 .075-.02.075-.019 0-.019-.019-.019-.075h.039zm.038-1.192v.074H36.547v.075a.444.444 0 0 0-.076-.205c-.039.037-.077.056-.096.056zm.096.41c-.039 0-.058-.019-.058-.038.02-.018 0-.018-.057 0 0 .02.019.038.038.075.038 0 .058 0 .077-.037zm.038.354c0 .018-.02.018-.077.018-.038-.018-.057 0-.038.056a.272.272 0 0 1 .173 0c0-.037 0-.056-.02-.056 0 0-.019 0-.038-.018-.02-.038-.02-.075 0-.075s.038-.018.038-.037h-.115c0 .074.02.112.077.112zm.038.186c0-.075-.038-.093-.134-.093 0 .074.039.093.134.093zm.02-.28v.075h.076c0-.056-.019-.074-.076-.074.038-.02.057-.038.038-.038-.02 0-.038-.018-.038-.074v.037h.076c0-.019-.019-.037-.038-.037-.02 0-.02-.019 0-.037.038 0 .077 0 .077.018 0 .019.019 0 .076-.018-.076-.168-.115-.28-.172-.336 0 .037 0 .075-.02.093-.019.019-.019.038-.019.075.02.018.039.037.058.037.02 0 .02.019.02.075-.04.074-.097.093-.173.093 0 .037.019.074.057.074.038 0 .038 0 .058.038zm-.096-.13h.076v-.074h-.076v.074zm.268-2.198h.077c.019-.037 0-.074-.058-.074-.057-.02-.076 0-.057.055.038-.018.038-.018.038.019zm.173-.95c-.02-.075 0-.112.057-.13.058-.019.077-.075.077-.13-.038 0-.077 0-.077.018s-.019.018-.076.018c.038-.093.076-.149.076-.167-.076 0-.115-.019-.134-.037.038.037.038.111-.02.204-.037.094-.018.168.097.224zm0 .447c-.02.037-.039.075-.077.075-.02 0-.02.018 0 .074v.13h.038c.02 0 .039-.018.077-.037-.038-.018-.057-.074-.02-.13.04-.075.02-.112-.018-.168v.056zm-.039-2.124c.039-.13.096-.223.135-.298-.039 0-.077 0-.077-.018 0-.019-.02-.019-.077-.019a.685.685 0 0 0 .02.335zm-.038.913h.077c.038-.037.038-.074-.039-.074-.019.037-.038.056-.038.074zm.115.075h-.096c0 .037.02.074.058.074.019-.018.038-.037.038-.074zm-.115.708c0 .074.02.111.038.167-.019 0-.038.019-.038.038.077-.02.115-.056.115-.094.02-.037 0-.093-.02-.13l-.076.075-.019-.056zm.077.316c0 .019.019.019.038.019 0-.019.02-.037.038-.075.02-.018.02-.037-.038-.074 0 .037-.02.056-.057.056-.039-.019-.058 0-.058.056.058 0 .077.018.077.018zm-.077.485c.02-.019.038-.038.077-.038-.039 0-.077 0-.077.038zm0 .28v.092c.115-.018.153-.074.153-.167a.516.516 0 0 0-.076-.205c0 .186-.02.26-.077.28zm0 3.65c0 .019.02.037.038.037-.019.02-.019.038.039.038-.039-.019-.077-.038-.077-.075zm.134-6.11c-.096.019-.134.075-.115.13.02.075.058.112.115.13a.597.597 0 0 1 0-.26zm-.019-.782c-.038 0-.077.018-.077.037h.039c.019 0 .038-.019.038-.037zm-.077 4.396c.096-.019.115-.056.096-.112-.019-.056-.019-.112.039-.149-.096-.018-.135 0-.115.075.019.074 0 .149-.02.186zm0 .037c.02.019.039.038.039.075.038 0 .076-.019.076-.056 0-.037.02-.056.077-.056-.096-.019-.153-.019-.192.037zm.096-.67c0-.038.02-.056.039-.075h-.077c-.077.037-.077.093-.038.13.057-.018.076-.037.076-.055zm0-2.571c0-.037-.019-.075-.076-.075.019.038.038.075.076.075zm0 2.869c0-.093-.019-.13-.038-.13-.02.092 0 .13.038.13zm.039.67c.019.038.038.038.038 0 0-.056-.02-.056-.038 0zm.076-.931.039-.037v-.093c-.039 0-.077.018-.077.074-.038.037-.02.056.038.056zm0-1.434c.039-.02.077-.056.077-.075 0-.019.038-.056.096-.074-.115-.02-.173.037-.173.149zm0 1.117c.039-.018.077-.018.077 0 0 .019.02.037.038.037.039-.018.058-.037.02-.074-.039-.019-.058-.037-.058-.075-.058.056-.077.094-.077.112zm.173-2.012c0-.018 0-.037.019-.037.02 0 .02-.019.02-.037h-.097v.074h.058zm.23-.167c0-.056-.02-.075-.077-.075 0 .037 0 .075.02.075.018.018 0 .037-.02.074.058 0 .077-.018.077-.074zm-.039 1.23c.039.036.058.055.058.018-.02-.037-.038-.037-.058-.019zm.039-1.286c.038.018.057.018.057-.019-.019-.037 0-.056.058-.056a.14.14 0 0 0-.038-.093c-.02.037-.039.075-.077.075-.02.018-.02.056 0 .093zm.077 1.173c.019-.018 0-.055-.02-.093-.038.038-.057.075-.057.112.019.037.038.056.077.056v-.075zm-.02.54c0 .038-.019.075-.038.075-.02.019-.02.019 0 .056l.077.037c.038-.074.057-.111.019-.149-.038-.037-.02-.056.057-.074-.038 0-.057-.019-.057-.056.019-.037 0-.056-.02-.056 0 .093 0 .13-.038.168zm.039 1.38c-.039 0-.077.018-.077.036h.038c.039-.018.039-.018.039-.037zm-.039-2.05c.077-.037.096-.112.077-.205-.02-.093.02-.186.115-.298-.096-.019-.153-.056-.172-.093a1.549 1.549 0 0 0-.02.596zm.039.931v.205c.038.019.057.056.038.112-.02.056-.038.112-.038.15.076 0 .115-.02.115-.057.019-.037.019-.074.057-.112-.096 0-.115-.055-.057-.149.057-.093.057-.149.019-.186a.363.363 0 0 1-.134.037zm.076.82v-.074c-.038-.038-.076-.038-.076.018 0 .056.019.075.076.056zm.096-3.651c-.096 0-.134.019-.134.074 0 .056.02.094.077.112.057-.018.076-.093.057-.186v-.037c0-.019.02-.038.039-.075-.039.019-.039.056-.039.112zm0-.093c0-.037 0-.056.02-.056.019.019.019 0 .019-.056-.02-.019-.039-.019-.077.037-.02.056 0 .075.038.075zm.039-.69c-.039.038-.039.075 0 .075.038 0 .038-.037 0-.074zm0 1.603c.038 0 .038.018 0 .074-.058-.037-.058-.074 0-.074zm0-1.9c-.02 0-.039.018-.039.037.02 0 .039-.019.039-.037zm.095 1.75-.038.038c0-.037.02-.037.038-.037zm0-.204c.039 0 .077.018.077.074-.057-.018-.077-.037-.077-.074zm.135 6.594a.149.149 0 0 1-.096.037h.038c.02-.037.038-.037.058-.037zm.172-.373v.094c.02 0 .039-.038.039-.094h-.039zm.058-1.602c.019 0 .038.02.038.038s-.02.037-.038.037v-.075zm.249.429c.02.037.038.037.038 0-.019-.037-.019-.037-.038 0zm.115.615c-.02-.038-.02-.038-.058 0 .039.055.058.055.058 0zm.02.279c-.04 0-.078.019-.078.037h.039c.019-.018.038-.018.038-.037zm-.04.093c0-.037-.018-.037-.038 0 .02.037.039.037.039 0zm.173-.633c0-.037.02-.056.058-.056.038.019.038.019.019.056h-.077zm0 .167c0-.037.02-.055.039-.037.019.037 0 .037-.039.037zm.02.224c0-.019.019-.019 0 0 .019 0 .038.019.038.075h-.039v-.075zm.153.335c.019-.037.038-.037.038 0-.019.038-.019.038-.038 0zM48.108 18.125c-.135.037-.211.13-.211.242-.02.112-.02.261-.02.41.077.019.096 0 .077-.074-.019-.075 0-.112.077-.075 0-.018-.02-.037-.077-.037 0-.093.039-.15.096-.205.039.242.058.466.039.69-.02.223-.02.446.038.688h-.096c0 .038.02.094.077.13-.077.075-.077.15 0 .243.076.093.057.186-.039.242 0 .075.02.15.077.224.058.093.058.149-.02.205.04.037.078.111.078.223.019.112 0 .186-.058.224.077.13.096.205.096.223.038 0 .077-.018.077-.074.038 0 .057.056.057.149-.02.093.02.167.077.186-.115.112-.115.205 0 .298 0 .037-.02.075-.058.075-.038 0-.057.018-.057.037.076.037.096.093.076.168.02.018.039.037.058.037.02 0 .02.018.02.074l-.04-.037c-.018-.019-.038-.019-.057-.019-.019.019 0 .019.058.019-.039.075-.039.093.019.075.057-.02.077 0 .057.055-.038 0-.057.02-.057.038.02.018.02.037.057.037-.019.037-.019.074.039.074.038.02.038.038 0 .075.115 0 .172.037.21.112.02.074.077.13.173.186-.019 0-.038.019-.038.037.019 0 .019 0 .019-.018-.02-.019 0-.019.02-.019.038.019.057.056.057.075-.02.037 0 .055.057.055 0 .019-.019.038-.038.038-.02 0-.038.018-.038.074.019 0 .038 0 .038.019 0 .018.02.018.077.018 0 .02 0 .038-.02.038-.019 0-.019.018-.019.037-.019-.019-.038 0-.038.056s.02.074.038.056c.02.018.02.037 0 .056-.019.018-.019.018.039.055-.039.038-.039.075 0 .075 0 .019 0 .019-.02.019-.019-.019 0 0 .02.056-.077.018-.096.055-.077.074.02.037.02.056-.038.075-.02-.02-.039-.02-.058-.02-.02.02 0 .02.058.02 0 .037.019.055.057.037a.102.102 0 0 0 .058-.093c.038.037.057.093.038.13a.338.338 0 0 0-.038.13l-.077-.13c-.115.037-.173.093-.153.13.019.038-.039.075-.154.075-.019.074-.019.093.038.093 0 .037-.019.056-.057.056-.038-.019-.038 0-.02.056-.038-.019-.076-.019-.095-.019-.02.019-.058 0-.096-.056-.038.019-.038.038 0 .075.038.019.038.037-.038.037.019-.074.019-.074-.02-.056-.038.019-.019.056.02.056 0 .019.019.037.038.037-.02.038-.038.056-.077.038-.019-.019-.038-.038-.038-.075-.02.075-.057.075-.096.056-.038-.037-.096-.056-.172-.056.019.093.019.168 0 .224a.823.823 0 0 0-.307-.075c0-.018.02-.037.077-.037-.02-.037-.096-.075-.211-.075 0-.111-.077-.186-.211-.205-.134-.037-.23-.111-.269-.204l-.038-.038v-.037h-.038v-.037c0 .018-.02.037-.039.037.02-.112 0-.186-.076-.205a1.229 1.229 0 0 0-.173-.074c.02-.038.02-.075.02-.075-.02-.019-.02-.037-.02-.074-.038-.019-.057-.019-.057.018.019.037 0 .037-.058.019.039-.019.058-.056.039-.075-.02-.037-.058-.056-.096-.074 0-.019.019-.019.038-.019.02.019.038 0 .077-.018-.02-.038-.058-.075-.077-.094-.038-.018-.058-.055-.077-.093l.039-.074c0-.019-.02-.037-.039-.075-.019-.018-.038-.018-.038 0-.038-.037-.077-.111-.077-.223h.039c-.039.037-.039.074.038.074v.038c.038-.02.077-.02.077 0 .038-.038.057-.075.038-.094-.02-.018-.038-.018-.058.019-.019.037-.019.056-.057.056l-.038-.075c0-.018.019-.037.038-.074-.096 0-.115-.019-.096-.075.02 0 .058-.018.096-.037-.038-.037-.077-.056-.077-.037 0 .018-.019.037-.076.037.019 0 .038-.037.038-.13.115.037.172.018.172-.093-.019-.02-.057-.038-.076-.056-.039-.019-.02-.056.019-.112-.038 0-.058.019-.058.056.02.037 0 .056-.019.056-.019-.093-.019-.13.02-.112.038.019.076 0 .114-.056-.038 0-.076-.019-.076-.075l-.077.038v.037a.432.432 0 0 1-.096-.186c-.019-.075.02-.13.096-.187a.255.255 0 0 0-.057-.167c-.039-.037-.02-.093.057-.168-.096-.018-.115-.112-.077-.26-.076 0-.095.037-.095.092 0 .075-.039.094-.096.094-.039-.094-.02-.187.096-.298a.14.14 0 0 1-.039-.075c0-.037.02-.056.077-.056-.02-.112-.02-.223-.02-.335.02-.112 0-.224-.018-.354-.02.019-.039.037-.039.074-.038-.037-.057-.111-.038-.204.02-.094.02-.15-.038-.205.019 0 .038-.019.038-.056 0-.038.02-.038.077-.019-.02-.354-.039-.652-.058-.894-.02-.242 0-.503.058-.764h.095v-.167c-.038-.02-.076-.02-.076 0 0 .018-.02.037-.039.037-.019-.037 0-.093.058-.13.057-.038.096-.056.115-.038 0-.112.02-.167.038-.205.077.075.096.056.096-.037 0-.019-.019-.037-.077-.037-.038 0-.057.018-.038.074-.019 0-.038-.018-.038-.037v-.037c0-.038.019-.056.038-.038.02.02.058.02.096 0 0-.074 0-.111-.02-.13-.018-.019 0-.074.02-.13v-.075c-.038 0-.038.019 0 .075-.096 0-.134.037-.153.13-.02.093-.058.13-.154.13 0-.037 0-.111.02-.186.019-.074.019-.13.019-.186a.149.149 0 0 0-.096-.037.665.665 0 0 0 .076-.429c-.019-.149 0-.316.02-.484a2.133 2.133 0 0 0-.115-.28c-.039-.074-.02-.149.019-.242a1.535 1.535 0 0 1-.02-.782c.058-.28.058-.503-.019-.652.077-.466.096-.894.096-1.304 0-.41-.019-.838-.076-1.248a2.73 2.73 0 0 0-.403.41c-.115.149-.23.28-.364.41 0 .037.019.074.076.074a2.45 2.45 0 0 0-.364.41c-.115.149-.23.28-.345.41 0 .018.02.037.077.037-.307.503-.614 1.024-.92 1.546a5.875 5.875 0 0 0-.614 1.602c0 .037-.02.075-.038.075-.02 0-.039.018-.039.037 0 .018.02.037.039.037-.134.205-.211.41-.211.615-.02.223-.058.428-.115.652 0 .037-.02.074-.039.074-.019.019-.038.038-.038.075v.074c0 .019.02.038.038.075-.038.149-.095.298-.134.428-.038.13-.076.28-.096.466-.019.354-.057.67-.095.969a7.332 7.332 0 0 0-.077.931c-.038.168-.077.373-.115.596a3.746 3.746 0 0 0-.058.652c-.076.298-.153.615-.268.913-.115.298-.288.54-.537.69h-.575a4.73 4.73 0 0 0-.326-.299 1.224 1.224 0 0 1-.25-.298c-.018-.019-.018-.056.04-.093-.25-.428-.423-.95-.518-1.546a19.308 19.308 0 0 1-.211-1.733 20.15 20.15 0 0 1-.039-3.893c.115-1.397.288-2.757.537-4.098.038-.205.154-.298.326-.28.173.02.307.056.422.15.115-.075.268-.075.46 0 .192.074.345.111.46.167.02 0 .038.019.038.037 0 .02-.019.02-.076 0a.645.645 0 0 1 .23.354c.038.15.076.317.076.503.02.187.02.392.02.596 0 .205.019.392.076.54.115-.13.211-.297.269-.484.076-.186.172-.335.345-.447-.039-.112-.02-.186.076-.223.096-.038.135-.112.115-.224.116-.093.211-.186.288-.317.077-.111.153-.242.21-.372.04 0 .078-.019.078-.037l.076-.075c0-.018 0-.037-.019-.037s-.019-.019-.019-.075c.21-.205.383-.39.518-.614.153-.205.306-.41.498-.615.077 0 .096.019.096.037.096-.167.21-.316.345-.428a1.42 1.42 0 0 0 .383-.429c.039.038.096.038.154-.037.057-.074.115-.13.153-.205 0 .037 0 .056.02.037.018-.018.038-.037.076-.037-.02-.037-.02-.074 0-.074l.077-.075h.096c.019 0 .057-.019.095-.074.441.037.901.111 1.342.204.441.094.786.299 1.036.615h-.039v.075c.096.112.154.26.173.447.019.186.019.372-.039.54.02.205.039.428.039.67 0 .261-.02.504-.077.746a.715.715 0 0 1-.019.447.509.509 0 0 0-.02.372c-.018.019-.018.056-.018.075.019.037 0 .037-.058.019.02.204 0 .353-.057.465-.058.112-.058.261-.02.466-.038.093-.076.13-.095.13a.5.5 0 0 1 0 .336 1.51 1.51 0 0 0-.096.372c.019.168-.02.298-.096.354.077.112.077.205.057.261a.426.426 0 0 0 .02.26.149.149 0 0 1-.096.038c.076.112.076.205.019.28-.058.074-.058.167-.02.279-.038-.019-.057-.019-.057.037.02.037 0 .075-.019.075.038.037.058.093.038.13-.019.037-.057.093-.096.168a.661.661 0 0 1 .058.205c-.02.055-.02.13-.02.204-.114.094-.153.168-.133.243.019.074-.02.167-.096.28 0 .018.019.018.057.018.039-.019.039 0 .02.056.019-.038.057-.075.076-.075.02 0 .058-.019.058-.074.019 0 .019.018.019.055.038-.018.057-.018.096-.037zm-1.84 3.353c-.02.038 0 .038.057 0 .019.038 0 .075-.058.075-.057.018-.076 0-.076-.019 0-.074.019-.112.038-.13.038 0 .057.018.038.074zm.018-1.024c-.019 0-.038-.038-.038-.093.096 0 .115.037.038.093zm.039-2.385v.13c-.02 0-.039-.018-.039-.074 0-.037.02-.056.039-.056zm0 4.546c-.02 0-.039-.02-.039-.075.02.019.039.037.039.075.038 0 .057.018.038.037-.02.018-.038.018-.038-.037zm0-4.974h.076c-.019 0-.038.037-.038.093-.02 0-.038-.037-.038-.093zm0 4.005c.019 0 .038.037.038.093-.02 0-.038-.037-.038-.093zm.23-3.484c-.039.038-.077.075-.096.075.038.093.038.168-.038.223-.02-.018-.039-.018-.058-.018-.02.018 0 .018.058.018 0 .02 0 .038-.02.038-.019 0-.019.018-.019.037.077.075.077.13.039.205.019.019.038.019.057-.019.02-.037.02-.018.058.019-.096.019-.115.056-.077.093a.112.112 0 0 1 .02.13l.076.075c-.039.037-.039.074 0 .074-.02.02-.077.038-.134.038.038.037.038.074 0 .093-.039.019-.039.056 0 .093h.038c.02-.019.038-.037.077-.037 0 .018-.02.037-.039.074-.019.019-.019.038.039.038.076-.075.095-.15.076-.224a.563.563 0 0 1 .058-.335c-.039 0-.077 0-.077.018 0 .019-.019.019-.038.019 0-.019 0-.037-.02-.037-.019 0-.019-.019-.019-.038.096 0 .135-.074.135-.204-.077.037-.096.055-.096.037 0-.019-.02-.056-.039-.093.039 0 .077 0 .077-.019s.02-.019.077-.019c-.039-.074-.058-.13-.039-.186-.019-.074-.019-.13-.076-.168v-.055c-.039-.02-.077-.02-.077.037.02.037.038.037.077.018zm-.058 1.733c-.076-.075-.096-.075-.096 0-.019.037-.019.074.039.074.038 0 .057-.018.057-.074zm-.076 2.7c-.039 0-.058-.018-.02-.055.039-.037.039-.019.02.056zm-.039-2.179c.02.038.039.038.039 0 0-.037 0-.037-.039 0zm.115 1.882c-.038.037-.038.074 0 .074-.019.019-.038.038-.038.075-.038 0-.077-.019-.077-.075 0-.074.039-.093.115-.074zm0-2.012c0-.019.02-.056.039-.093s.019-.075-.039-.075c-.038 0-.076.019-.076.075 0 .074.019.093.076.093zm0-.838c-.019.074-.019.093.039.093.019 0 .038-.019.038-.075 0-.037-.02-.074-.077-.074v.056c0-.037-.019-.056-.038-.037-.02.018-.02.037.038.037zm-.038.391c.038.019.057.074.038.13.077-.074.077-.111.058-.167-.039-.038-.02-.112.019-.224-.096.019-.115.056-.096.093 0 .038 0 .093-.019.168zm0-2.068c.02-.037.038-.037.038.019 0 .056-.019.037-.038-.019zm0 .783c.02-.038.038-.038.038 0 0 .056-.019.056-.038 0zm0 1.546c.077 0 .096-.037.096-.093-.058 0-.096.018-.096.093zm.057.82a.14.14 0 0 0-.038.074c0 .037-.019.056-.038.074.019.02.057.056.076.112.039.056.02.112-.057.186.038 0 .057.02.057.056-.019.038 0 .038.058.019.02 0 .02-.019 0-.037-.02-.019-.02-.038.038-.038v.075c-.076 0-.096.037-.096.093 0 .019.02.019.058.019.038-.019.057 0 .057.018-.019.019-.038.056-.057.075-.02.037 0 .056.057.056v-.093a.14.14 0 0 1 .039.074c0 .019.019.056.077.056-.039-.093-.077-.149-.096-.205.096-.168.115-.372.076-.615-.038-.223-.076-.447-.096-.67a1.22 1.22 0 0 0-.057.335c.02.093 0 .186-.058.298-.019.019-.019.037 0 .037zm-.019-3.745c.039 0 .058-.018.039-.037-.039-.019-.039 0-.039.037zm.096.783c-.096.037-.096.074-.038.074.076.019.076 0 .038-.074zm0-.448v.075h-.077v-.075h.077zm-.077 3.41c0-.02.02-.02.039 0h-.039zm.077-3.056c-.038.038-.057.075-.019.075.038 0 .038-.019.02-.075zm-.038 2.292c.019 0 .038 0 .038.018 0 .019.02.019.038.019 0-.037-.019-.075-.038-.075-.019.019-.038.019-.038.038zm.076 1.75c-.076.112-.038.168.077.168 0-.018.02-.037.039-.056.019-.018.038-.037.038-.074-.077-.037-.115-.037-.154-.037v-.038h-.076c.019 0 .038 0 .038.02 0 0 .02.018.038.018zm-.038 1.081c0 .037 0 .075-.019.075-.02 0-.02-.019-.02-.075h.04zm.038-1.192v.074H46.804v.075a.444.444 0 0 0-.077-.205c-.038.037-.076.056-.096.056zm.096.41c-.038 0-.057-.019-.057-.038.019-.018 0-.018-.058 0 0 .02.02.038.039.075.038 0 .057 0 .076-.037zm.039.354c0 .018-.02.018-.077.018-.038-.018-.058 0-.038.056a.272.272 0 0 1 .172 0c0-.037 0-.056-.019-.056 0 0-.02 0-.038-.018-.02-.038-.02-.075 0-.075.019 0 .038-.018.038-.037h-.096c-.019.074 0 .112.058.112zm.038.186c0-.075-.038-.093-.134-.093 0 .074.038.093.134.093zm.02-.28v.075h.076c0-.056-.02-.074-.077-.074.039-.02.058-.038.039-.038-.02 0-.039-.018-.039-.074v.037h.077c0-.019-.02-.037-.038-.037-.02 0-.02-.019 0-.037.038 0 .076 0 .076.018 0 .019.02 0 .077-.018-.077-.168-.115-.28-.173-.336 0 .037 0 .075-.019.093-.019.019-.019.038-.019.075.02.018.038.037.058.037.019 0 .019.019.019.075-.039.074-.096.093-.173.093 0 .037.02.074.058.074.038 0 .038 0 .057.038zm-.097-.13h.077v-.074h-.077v.074zm.269-2.198h.076c.02-.037 0-.074-.057-.074-.058-.02-.077 0-.058.055.039-.018.039-.018.039.019zm.172-.95c-.019-.075 0-.112.058-.13.057-.019.076-.075.076-.13-.038 0-.076 0-.076.018s-.02.018-.077.018c.038-.093.077-.149.077-.167-.077 0-.115-.019-.134-.037.038.037.038.111-.02.204-.038.094-.019.168.096.224zm0 .447c-.019.037-.038.075-.076.075-.02 0-.02.018 0 .074v.13h.038c.02 0 .038-.018.077-.037-.039-.018-.058-.074-.02-.13.039-.075.02-.112-.019-.168v.056zm-.038-2.124c.038-.13.096-.223.134-.298-.038 0-.077 0-.077-.018 0-.019-.019-.019-.076-.019a.685.685 0 0 0 .019.335zm-.038.913h.076c.039-.037.039-.074-.038-.074-.02.037-.038.056-.038.074zm.115.075h-.096c0 .037.019.074.057.074.02-.018.039-.037.039-.074zm-.115.708c0 .074.019.111.038.167-.02 0-.038.019-.038.038.076-.02.115-.056.115-.094.019-.037 0-.093-.02-.13l-.076.075-.02-.056zm.076.316c0 .019.02.019.039.019 0-.019.019-.037.038-.075.02-.018.02-.037-.038-.074 0 .037-.02.056-.058.056-.038-.019-.057 0-.057.056.057 0 .076.018.076.018zm-.076.485c.019-.019.038-.038.076-.038-.038 0-.076 0-.076.038zm0 .28v.092c.115-.018.153-.074.153-.167a.516.516 0 0 0-.077-.205c0 .186-.019.26-.076.28zm0 3.65c0 .019.019.037.038.037-.02.02-.02.038.038.038-.038-.019-.076-.038-.076-.075zm.134-6.11c-.096.019-.134.075-.115.13.019.075.057.112.115.13a.597.597 0 0 1 0-.26zm-.02-.782c-.038 0-.076.018-.076.037h.038c.02 0 .039-.019.039-.037zm-.076 4.396c.096-.019.115-.056.096-.112-.02-.056-.02-.112.038-.149-.096-.018-.134 0-.115.075.02.074 0 .149-.02.186zm0 .037c.02.019.038.038.038.075.039 0 .077-.019.077-.056 0-.037.02-.056.077-.056-.096-.019-.135-.019-.192.037zm.096-.67c0-.038.019-.056.038-.075h-.077c-.076.037-.076.093-.038.13.058-.018.077-.037.077-.055zm0-2.571c0-.037-.02-.075-.077-.075.02.038.038.075.077.075zm0 2.869c0-.093-.02-.13-.039-.13 0 .092 0 .13.039.13zm.038.67c.02.038.038.038.038 0 0-.056-.019-.056-.038 0zm.077-.931.038-.037v-.093c-.038 0-.077.018-.077.074-.038.037-.019.056.039.056zm0-1.434c.038-.02.077-.056.077-.075 0-.019.038-.056.095-.074-.115-.02-.172.037-.172.149zm0 1.117c.038-.018.077-.018.077 0 0 .019.019.037.038.037.038-.018.057-.037.019-.074-.038-.019-.057-.037-.057-.075-.058.056-.077.094-.077.112zm.172-2.012c0-.018 0-.037.02-.037.019 0 .019-.019.019-.037h-.096v.074h.057zm.23-.167c0-.056-.019-.075-.076-.075 0 .037 0 .075.019.075.02.018 0 .037-.02.074.058 0 .077-.018.077-.074zm-.038 1.23c.038.036.058.055.058.018-.02-.037-.039-.037-.058-.019zm.038-1.286c.039.018.058.018.058-.019-.02-.037 0-.056.057-.056a.14.14 0 0 0-.038-.093c-.02.037-.038.075-.077.075-.019.018-.019.056 0 .093zm.077 1.173c.02-.018 0-.055-.02-.093-.037.038-.057.075-.057.112.02.037.039.056.077.056v-.075zm-.02.54c0 .038-.018.075-.037.075-.02.019-.02.019 0 .056l.076.037c.039-.074.058-.111.02-.149-.039-.037-.02-.056.057-.074-.038 0-.058-.019-.058-.056.02-.037 0-.056-.019-.056 0 .093 0 .13-.038.168zm.04 1.38c-.04 0-.077.018-.077.036h.038c.038-.018.038-.018.038-.037zm-.04-2.05c.078-.037.097-.112.078-.205-.02-.093.019-.186.115-.298-.096-.019-.154-.056-.173-.093a1.549 1.549 0 0 0-.02.596zm.04.931v.205c.038.019.057.056.038.112-.02.056-.039.112-.039.15.077 0 .115-.02.115-.057.02-.037.02-.074.058-.112-.096 0-.115-.055-.058-.149.058-.093.058-.149.02-.186a.363.363 0 0 1-.135.037zm.076.82v-.074c-.038-.038-.077-.038-.077.018 0 .056.02.075.077.056zm.096-3.651c-.096 0-.134.019-.134.074 0 .056.019.094.076.112.058-.018.077-.093.058-.186v-.037c0-.019.019-.038.038-.075-.019.019-.038.056-.038.112zm0-.093c0-.037 0-.056.019-.056.02.019.02 0 .02-.056-.02-.019-.04-.019-.078.037-.019.056 0 .075.039.075zm.038-.69c-.038.038-.038.075 0 .075.039 0 .039-.037 0-.074zm0 1.603c.039 0 .039.018 0 .074-.057-.037-.057-.074 0-.074zm0-1.9c-.019 0-.038.018-.038.037.019 0 .038-.019.038-.037zm.096 1.75-.038.038c0-.037.019-.037.038-.037zm0-.204c.038 0 .077.018.077.074-.058-.018-.077-.037-.077-.074zm.134 6.594a.149.149 0 0 1-.096.037h.039c.019-.037.038-.037.057-.037zm.173-.373v.094c.019 0 .038-.038.038-.094h-.038zm.057-1.602c.02 0 .039.02.039.038s-.02.037-.039.037v-.075zm.25.429c.019.037.038.037.038 0-.02-.037-.02-.037-.039 0zm.115.615c-.02-.038-.02-.038-.058 0 .058.055.058.055.058 0zm.019.279c-.039 0-.077.019-.077.037h.038c.02-.018.039-.018.039-.037zm-.039.093c0-.037-.019-.037-.038 0 .02.037.038.037.038 0zm.173-.633c0-.037.02-.056.057-.056.039.019.039.019.02.056h-.077zm0 .167c0-.037.02-.055.038-.037.02.037 0 .037-.038.037zm.02.224c0-.019.018-.019 0 0 .018 0 .037.019.037.075h-.038v-.075zm.152.335c.02-.037.039-.037.039 0-.02.038-.02.038-.039 0zM58 11.475a.4.4 0 0 0 0 .298c-.038.41-.077.782-.115 1.08-.038.298-.077.634-.153.988 0 .503-.02.95-.058 1.36-.038.41-.115.8-.21 1.155.018.093.018.167-.02.223-.038.075-.02.15.02.26-.097.355-.135.69-.154 1.025-.02.336-.077.652-.192.95a4.09 4.09 0 0 1 0 .97c-.038.334-.077.67-.096.968 0 .074.02.112.077.13a2.978 2.978 0 0 0-.038.727c.019.26.038.503.038.726-.02.037-.038.075-.038.093 0 .019-.02.038-.039.075.039.391.077.745.077 1.043.02.298.057.652.115 1.025.038.093.077.149.077.204.019.056.019.13.019.243a.26.26 0 0 1 .038.111c0 .038.02.075.039.112-.039 0-.077.019-.077.075 0 .037.019.037.057 0 .039-.038.058-.038.058.037.038.037.038.056 0 .056-.038-.019-.077 0-.096.018.02.038.02.094.02.13-.02.038 0 .094.018.131-.096 0-.115.075-.076.205-.115.037-.173.112-.173.205-.077 0-.096.037-.096.093-.038.019-.076.019-.076-.018 0-.038-.02-.056-.039-.075l-.172.075c-.039.018-.077.055-.077.111-.02.056-.057.056-.115-.018 0 .037.02.074.058.074.038 0 .038.037.019.093a.33.33 0 0 1-.345.019 1.806 1.806 0 0 1-.345-.224 1.613 1.613 0 0 1-.269-.335c-.077-.13-.134-.242-.192-.335a5.826 5.826 0 0 1-.421-1.267 11.85 11.85 0 0 1-.211-1.472c-.039-.521-.039-1.024-.039-1.564.02-.522.02-1.025.058-1.51a1.824 1.824 0 0 0-.192.541.984.984 0 0 1-.21.447c-.02.093-.039.168-.058.224-.02.074-.058.111-.115.167a1.286 1.286 0 0 1-.288.634 3.358 3.358 0 0 0-.383.614 7.83 7.83 0 0 1-.633.429c-.21.112-.498.168-.882.205-.67-.019-1.208-.242-1.61-.69a2.262 2.262 0 0 1-.192-.26c-.057-.093-.134-.168-.21-.261 0-.112-.02-.186-.077-.224-.039-.037-.058-.111-.039-.223-.019-.019-.038-.037-.057-.075-.02-.018-.02-.037-.058-.074 0-.13-.019-.242-.038-.335a2.812 2.812 0 0 0-.096-.317 6.85 6.85 0 0 1 .058-2.645c.191-.913.44-1.714.728-2.44.038-.336.153-.634.307-.895.153-.28.287-.54.364-.8.134-.206.268-.41.383-.616.116-.223.23-.428.326-.614.154-.093.288-.205.365-.336.096-.149.191-.26.306-.372.173-.13.403-.205.652-.242.25-.038.537-.056.805-.056.288 0 .556.018.844.074.287.038.537.075.767.093.038-.074.038-.111 0-.167a.233.233 0 0 1-.077-.168c0-.112.038-.167.096-.205.077-.018.153-.018.25-.018.095.018.21.018.306.056a.393.393 0 0 0 .287-.038c.269.038.537.075.806.093.306-.055.517.056.709.224zM51.252 22.52c-.039-.037-.058-.037-.058 0 .02.038.039.038.058 0zm2.013-3.93v.074c.038 0 .076-.018.076-.055.02-.038 0-.056-.019-.075l-.057.056c.038-.075.076-.13.096-.186.019-.056.057-.112.095-.187l-.038-.037a.92.92 0 0 0 .096-.242.329.329 0 0 1 .134-.205c-.038-.037-.057-.093-.019-.13.038-.038.077-.075.115-.075-.038-.037-.058-.093-.038-.168.019-.074.057-.111.096-.167.019.037.019.074-.02.112-.038.037-.057.074-.057.149a.392.392 0 0 0 .134-.298c0-.112.02-.205.038-.299 0 .038.02.075.077.075.02-.093.058-.149.077-.205.038-.037.057-.112.057-.205-.019-.018-.038-.018-.057.019-.02.037-.02.018-.02-.019.039-.037.077-.093.077-.149 0-.056.039-.074.096-.074-.038-.112-.038-.187.038-.224.077-.037.077-.093.039-.168.096-.018.134-.093.134-.223s.038-.205.134-.205c0-.168.02-.298.077-.373.038-.074.096-.186.134-.316-.02-.075-.02-.112.02-.168.038-.037.018-.093-.02-.13a.574.574 0 0 0 .134-.391c0-.15.039-.243.096-.299-.038-.093-.038-.167.02-.223.057-.075.057-.13-.02-.205.038-.037.058-.093.058-.168-.02-.074 0-.13.019-.205a1.263 1.263 0 0 0-.173-.465c-.019 0-.038-.019-.076-.038a.542.542 0 0 0-.441.224 2.23 2.23 0 0 0-.595.727c-.153.279-.326.54-.517.782a1.002 1.002 0 0 1-.173.41c-.038.205-.115.39-.192.614-.076.205-.172.41-.287.615 0 .224-.077.391-.23.485-.02.26-.096.502-.211.726-.115.224-.173.484-.21.782-.135.13-.173.261-.135.354 0 .019-.02.038-.038.038-.02 0-.039.018-.039.074l-.057.522c-.02.167-.039.354-.077.521-.02.652.038 1.304.21 1.975.04.018.058.018.058-.019-.019-.037 0-.037.058-.018.153-.298.307-.615.422-.95.115-.336.268-.652.421-.95 0 .074.02.074.077.018.038-.056.038-.093 0-.112 0 .019-.019.038-.038.056-.02.019-.039 0-.039-.018.077-.075.096-.093.077-.093 0 .037.02.074.077.074.038-.074.038-.112 0-.13-.039-.019-.039-.075 0-.168.019 0 .038.019.038.037 0 .019.02.019.077 0a.28.28 0 0 0 .077-.186c0-.075.038-.112.134-.112 0-.037-.02-.056-.039-.056-.019.019-.038 0-.038-.056.02 0 .02-.018.02-.055 0 0 .018-.02.057-.02zm-.134 0c.038.037.038.074 0 .074-.039-.018-.039-.037 0-.074zm.076-.205c.039.019.058.037.02.056-.039.018-.039.018-.02.056-.038 0-.057-.019-.038-.038.019-.018.038-.037.038-.074zm.844-1.732c.019-.038.038-.038.038 0 0 .037-.02.037-.038 0zm.575-1.565c0 .037-.02.037-.038 0 .019-.056.038-.056.038 0zm.038-.634c0 .075-.019.094-.038.094 0-.056 0-.094.038-.094z"/>
        <g>
            <path d="M22.035 24.962c-.038 0-.077-.056-.115-.075v-.018c-.077 0-.115-.112-.211-.112-.25-.056-.594-.037-.863 0-.038.112-.134.074-.21.074-.23.112-.48.038-.73.112-.018.075-.037.019-.057.056 0 0 .02-.019.02-.056-.135-.093-.23.112-.346 0-.076.075-.134.019-.21.019-.173 0-.346.111-.499.149 0-.056.02-.019.02-.056-.058-.056-.097.056-.135.074 0-.056.038-.018.038-.074-.057-.093-.153.223-.23.074.039 0 .115 0 .135-.111-.077.018-.135.074-.211.13 0-.019 0-.019.019-.056-.115.019-.25.037-.326.15-.115.055-.25 0-.364.13l-.192.037c-.02 0-.038 0-.058.018v-.018c0 .018 0 .018-.019.037l-.019.019-.383.093v.018c-.02 0-.039 0-.058-.018 0 .018-.019.018-.057.037v-.019c-.039-.018-.058 0-.096.038h-.058v-.019h-.038c-.038 0-.077-.019-.077-.037-.019-.019-.019-.037-.057-.075.038-.037.057-.074.038-.111a.389.389 0 0 0-.077-.112c.115-.075.154-.15.096-.261-.038-.112-.019-.205.077-.298-.038-.037-.077-.093-.077-.13.039-.168.058-.336.02-.485a1.356 1.356 0 0 1-.02-.484c-.038 0-.076-.019-.076-.075.076-.018.095-.074.095-.149 0-.074-.019-.13-.076-.186.076-.074.076-.186.038-.354a.14.14 0 0 1-.038.093c-.02.019-.039.019-.077-.037-.038.019-.057.056-.038.093.019.037.019.093-.039.13l-.095-.037a1.966 1.966 0 0 1-.096-.39 3.824 3.824 0 0 1-.039-.485c0-.075-.019-.093-.038-.075-.02.019-.02.037 0 .075-.02.018-.038.093-.038.205a.416.416 0 0 0-.096.074.497.497 0 0 1-.096.112c0 .037.02.056.057.056.039-.019.058 0 .058.056-.02 0-.038 0-.038.018 0 .019-.02.019-.039.019-.019-.019-.038-.037-.038-.075-.02-.018-.02-.037 0-.074-.038-.037-.058-.075-.038-.112.019-.037.019-.074-.039-.112 0 .038-.019.094-.038.168-.02.075-.058.075-.096.037.02.038.038.075.058.075.019 0 0 .018-.058.037.02-.019.02-.037 0-.037s-.038.018-.038.037c.038 0 .057 0 .019.019-.038.018-.058 0-.077-.019a.736.736 0 0 1 .077-.223c.038-.038.02-.094-.02-.168-.038.019-.057.056-.038.093.02.037.02.075-.038.075 0-.038-.02-.056-.057-.056-.039.018-.039 0-.02-.056 0-.037 0-.075.02-.093.019-.019.019-.038.019-.075-.039 0-.077-.019-.077-.037.02-.019.02-.056 0-.093.096.037.134.018.134-.075s.058-.112.173-.093c0-.093.038-.13.096-.13a.621.621 0 0 0-.115-.28c-.058-.074-.058-.186-.02-.316-.019 0-.057.018-.095.074 0 .075 0 .112.019.168.019.037 0 .093-.058.13 0 .037.02.075.058.093a.102.102 0 0 1 .057.093c-.019.038-.038.075-.076.075-.02.019-.039.037-.039.074h-.096c.02-.037.02-.074 0-.074-.019-.019-.038-.019-.076-.056.019-.019.038-.037.057-.037.02 0 .02-.019.058-.037-.02-.038-.02-.075-.02-.112.02-.037.02-.075.02-.112a.06.06 0 0 0-.077 0c-.038.019-.057-.019-.057-.093-.039.018-.077.093-.077.205.038.018.077.018.077-.037.019-.038.038-.038.076 0-.038.037-.115.13-.21.26.038 0 .076.019.076.038h.096c-.02 0-.02 0-.02-.02 0 .02-.018.02-.038.038.039 0 .039.019 0 .075v-.075c-.038.093-.057.168-.019.205.039.056.02.13-.019.205.077 0 .096.037.096.093-.02-.037-.058-.056-.077-.037-.038.019-.019.056.02.093-.039.093-.039.15 0 .205.019-.037.038-.056.076-.019a.26.26 0 0 1 .038.112c-.038 0-.057-.019-.057-.056.019-.037 0-.037-.058-.018-.038.26-.057.503-.057.707.019.205 0 .429-.02.671.039.019.058.075.058.13-.019.075-.038.094-.077.094 0 .428 0 .838-.019 1.173 0 .093 0 .186-.019.28-.613.037-1.15.167-1.802.279.02-.056 0-.056-.02-.056-.478.093-.977.15-1.475.41.019.056-.02 0-.039.019-.019.055 0 .055-.019.13-.057.019-.096.242-.134.186 0 .112.02.187.038.242-.038.019-.019.056-.038.112a.36.36 0 0 1-.02.242c.02 0 .02 0 .02.038 0-.019-.02 0-.02-.038-.018 0 0 .056-.018.075.095.037.23.037.249.168h.115c.077-.112.153 0 .23-.075.44.019.843-.224 1.304-.186.153-.112.306-.056.44-.15.02 0 0 .057.039.038.115-.075.23 0 .326-.112.038.037.096-.018.134.037.096-.074.192 0 .288-.13.019.037.019.056.038.056.038-.019.153-.037.326-.075-.02.094-.02.187-.02.298.02.187 0 .336-.057.448a.214.214 0 0 0 .096.018c.02-.018.038 0 .077.056a.14.14 0 0 1-.039.093.14.14 0 0 0-.038.093c.038.038.057.075.057.093 0 0-.038.02-.057.038.038.037.057.112.038.186-.019.075-.019.149.039.205-.02 0-.039.037-.039.093-.019 0-.038 0-.038-.019 0-.018-.02-.018-.038-.018 0 .112-.02.167-.039.205.096 0 .134.018.134.074.039.093.02.13-.076.13-.02-.018-.02-.037 0-.074.019-.019.019-.037-.039-.037 0 .168 0 .354-.019.521-.019.168.02.354.077.522-.134.093-.134.224 0 .391-.038.037-.038.112 0 .205.038.093.038.186-.038.242-.039 0-.058-.018-.058-.056.02-.037 0-.055-.057-.055.019.074.038.111.057.149.02.037.02.093.058.186h-.096c0 .037.019.074.057.074.039.019.058.038.058.075-.039.018-.077.018-.077.018-.02-.018-.038-.018-.077-.018.115.093.192.205.269.354 0 .13-.02.242-.02.354a23.46 23.46 0 0 0-.114.838h-.058c.02.149.02.28-.02.428-.037.13-.076.28-.133.429-.058.149-.115.298-.154.428a1.836 1.836 0 0 0-.076.429l.057.056c.02.018.039.018.058.056.096.223.172.447.23.67.057.224.134.41.249.578v.093a.598.598 0 0 1 .192.316c.038.13.096.224.191.28v.093c.173.168.345.317.556.428.192.13.422.168.69.15.403-.802.672-1.752.767-2.813a59.14 59.14 0 0 0 .192-3.186c0-.074 0-.13-.02-.186v-.093c0-.019-.018-.056-.018-.075a.402.402 0 0 0-.058-.149c0-.037.02-.074.058-.074.038 0 .057-.019.057-.075a.343.343 0 0 1-.038-.149c0-.056-.02-.093-.077-.112h.077a3.14 3.14 0 0 1-.058-.596c.02-.205 0-.41-.019-.652h.077c.02-.26.038-.503.038-.707 0-.205.02-.448.039-.708-.039-.038-.077-.094-.077-.13.077-.15.115-.28.077-.448l-.403.019-.556.112c-.02.018-.038-.02-.057.018a.37.37 0 0 1 0 .205c.019.019.038.019.076.019.02-.019.039 0 .039.018.038.354-.039.596-.269.745-.115-.093-.134-.186-.077-.298a.41.41 0 0 0 .02-.335c0 .019-.02.037-.039.037s-.038-.018-.038-.037c.057-.26.038-.521-.02-.782h.02c0-.056.02-.056.038-.056.25-.019.48-.13.71-.13 0-.02.019-.038.019-.038l.077-.018v.037c.095-.037.23-.075.364-.112l.096-.019c.23-.055.479-.093.536-.055.154-.187.307-.02.48-.13.038.055.115-.02.153-.075.173 0 .288 0 .441-.094 0 .02 0 .056.02.056.018-.074.057-.111.114-.13-.019.056.02.037 0 .074.058.038.096 0 .134-.055 0 .018-.019.018-.019.055.058-.074.134.038.192 0 .038-.018.038-.055.057-.055.058-.019.096.055.154-.056.038 0 .057.037.096.056.115-.112.23-.056.345-.019.076-.112.115-.075.172-.056.02-.074.077-.056.096-.074.02 0 0 .018 0 .055.038-.018.038-.055.077-.018.019 0 .038-.019.057-.056.02.056.115-.019.173.037.153-.13.307-.186.498-.26-.057 0 .077-.168.173-.336 0 .019.019.037.038 0 .02.019-.019-.019-.038-.13zm-4.103 2.57c.039 0 .077.019.077.075-.02 0-.038 0-.038-.019 0-.018-.02-.018-.039-.018v-.038zm-.019.95h.038v.075h-.038v-.075zm-1.63-1.602c.077.019.096 0 .077-.055v-.02h.02a.53.53 0 0 1-.039.169c-.038.018-.057.018-.057-.02.038-.018.019-.055 0-.074zm-.325.13c0 .038-.02.075-.039.075s-.038.019-.038.038c-.038 0-.058-.019-.058-.075.02-.037 0-.074-.057-.074 0-.038 0-.056.02-.075.076-.019.133-.019.19-.037a.195.195 0 0 1-.114.093c.019.056.038.056.096.056zm.038.467c-.02.037-.038.055-.077.037-.019-.019-.019-.056.039-.093.038-.019.057.018.038.056zm.25-2.981v-.074h.076c0 .018 0 .037-.02.037-.018 0-.018.018-.018.037h-.039zm.057 1.118c0-.038.019-.056.019-.075.038.019.057.037.038.075h-.057zm-.02-1.64a.604.604 0 0 0 .077-.279c.039 0 .077-.019.096-.075.02-.055.02-.111-.038-.149.019-.037.057-.074.096-.074.038 0 .038-.019 0-.075 0-.018.019-.018.057-.018.038.018.058 0 .058-.056.038 0 .076.037.076.13a.149.149 0 0 1-.096.038c0 .018.02.037.039.037s.019.018 0 .074c-.115.093-.154.187-.134.298.019.112 0 .224-.077.354.02 0 .038 0 .057.019.02.019.02.019.058.019-.02.074-.058.111-.077.149-.038.037-.038.074-.019.111-.077.019-.096 0-.077-.074.02-.075 0-.112-.057-.112-.077-.13-.077-.223-.038-.317zm-.306 1.006c-.02 0-.039-.018-.039-.074.039.018.039.037.039.074zm-.02.336c-.019-.038-.019-.093 0-.168.077.075.096.149.077.242-.019.075-.038.168-.057.242-.039 0-.058 0-.096.019-.02-.019-.02-.037-.058-.037v.037a1.345 1.345 0 0 0-.153.056.91.91 0 0 0 .038-.224c0-.093.077-.149.25-.167zm-.479-2.366h.096c.077-.112.096-.224.077-.335.096.018.134.093.115.223-.02.13-.077.205-.192.224v-.075h-.096v-.037zm.173 2.03-.077.075v-.075h.077zm-.077.466c.077.019.077.075.058.15-.02.055-.02.11 0 .148-.02.019-.02.019-.02.037-.019 0-.038 0-.057.019 0-.019 0-.037-.02-.037-.018-.019-.018-.056-.057-.112.058-.019.096-.075.096-.205zm-.23 1.602v-.056c.02 0 .038 0 .058-.018v.018c0 .037-.02.056-.058.056zm.058.559c.019-.037.038-.037.038 0s0 .037-.038 0zm0 2.813v-.075c.038-.018.076-.018.076.038 0 .055-.019.055-.076.037zm.057-.839c-.038.02-.038.02-.019-.037.058 0 .058 0 .02.037zm.154.038c-.039.018-.058 0-.039-.056h.077c.019.037 0 .056-.038.056zm.095.354c.02-.038.039-.038.039 0 0 .037-.02.037-.039 0zm.192.428c-.02.056-.038.075-.077.075 0-.038 0-.075.02-.075.019 0 .019-.018.019-.074.038.018.057.018.038.074zm-.077-.074v-.13c.02 0 .039 0 .039.018s.019.018.038.018c-.02.056-.038.094-.077.094zm.135-2.068h-.039a.14.14 0 0 1-.038.093c-.02 0-.038-.019-.038-.074 0-.038.019-.056.076-.038v-.13c.039 0 .077.019.077.056.02.037 0 .074-.038.093zm0-.447a.549.549 0 0 1-.077.186c.02 0 .038.019.038.075-.076 0-.096.037-.076.111.019.075 0 .13-.02.187-.038 0-.076-.038-.076-.093 0 .074-.02.13-.039.186a.37.37 0 0 0 0 .205c.077-.038.096-.112.077-.187-.02-.074.02-.111.134-.074 0 .037 0 .074.02.093.019.019.019.056.019.093-.039 0-.077-.037-.077-.093 0 .224 0 .429.02.633.018.205 0 .41-.058.615-.077 0-.096-.056-.077-.149.02-.093 0-.186-.058-.242-.038.019-.057.037-.057.074.019.02 0 .056-.02.094-.114-.019-.153-.075-.133-.168.019-.093.019-.15-.039-.205a.415.415 0 0 0 .058-.205c-.02-.074 0-.13.057-.205-.038-.037-.057-.13-.038-.242.019-.112.019-.205-.038-.242a.208.208 0 0 0 .057-.15c-.02-.055 0-.074.058-.074-.02-.037-.039-.093-.058-.13-.02-.037-.038-.075-.077-.093.039-.093.096-.168.135-.224.038-.074.038-.149-.039-.26a.198.198 0 0 0-.057.13c.019.037-.02.074-.077.093v-.205c.02 0 .038 0 .058-.019.019-.018.019-.018.057-.018-.038-.093-.057-.168-.02-.205a.112.112 0 0 0-.018-.13c.057-.02.134-.02.191-.038.039.075.02.13-.076.187.038.093.076.149.115.204.038.056.019.13-.058.205a.49.49 0 0 1 .154.019c.057.019.115.019.153.019 0 .037.02.074.038.074-.038.037-.057.093-.076.168zm-.48.652c.02-.037.039-.037.039 0s-.02.037-.039 0zm.537-1.118v.075c-.019 0-.038-.019-.038-.038 0-.037.019-.037.038-.037a.14.14 0 0 1 .038-.093c.02 0 .039.037.039.093h-.077zm.096.522c0-.093 0-.15.02-.205.018-.037.018-.093.057-.13.038.037.057.111.057.204-.019.093-.057.13-.134.13zm.173-.69c.038 0 .095.038.134.094-.077 0-.134-.019-.134-.094zm.728 3.186c-.038 0-.038.019-.02.074-.076 0-.095-.037-.076-.093.02-.074 0-.112-.057-.167.038-.075.096-.094.134-.075.019.037.019.075.019.093-.02.019 0 .056.058.093 0 .056-.02.075-.058.075zm.077-1.136c-.039.055-.02.093.019.111-.038.038-.077.075-.096.075 0 .093 0 .167-.02.26-.018.094.02.168.078.224-.039 0-.077.019-.077.056-.02.037-.038.037-.077.019a.16.16 0 0 0-.077-.13c.096-.112.116-.28.077-.485.039 0 .077-.019.077-.075.019-.055.038-.093.077-.111.038-.019.038 0 .019.056zm-.154-.503c.039.037.058.093.039.167-.02.075-.02.112.038.168.038-.019.077-.019.077.037 0 .037-.02.056-.077.037v-.074c-.038 0-.077.019-.077.037 0 .019.02.019.039.019.019-.019.038 0 .038.056-.038 0-.077.018-.077.056 0 .037-.019.074-.038.111-.096-.093-.115-.186-.096-.316.02-.15.058-.243.134-.298zm-.115-.373c-.019.037-.038.112-.076.186-.02.075 0 .13.076.187a.389.389 0 0 1-.076.111c-.02.038-.039.075-.077.112-.02-.037-.038-.074-.077-.074-.019-.019-.038-.038-.038-.075a.319.319 0 0 0 .077-.28c-.02-.092 0-.204.019-.316.038 0 .076.019.076.075.039.018.058.055.096.074zm-.057-.186h-.077v-.037h.077v.037zM14.769 1.807c.038 0 .038-.019 0-.037a.147.147 0 0 1-.077.037c-.038 0-.019.019.02.074-.02-.055.019-.074.057-.074zM14.558 1.993c.058-.018.058-.037-.02-.037-.057.056-.037.074.02.037z"/>
            <path d="M14.635 1.863h1v1h-1zM14.117 2.72c.039.018.039.018.02-.038-.058 0-.058.02-.02.038zM13.849 3.074c.038 0 .076-.019.096-.075.019-.037.019-.074-.039-.074-.019.074-.057.111-.057.149a.567.567 0 0 1-.096.13c.115 0 .153-.037.096-.13zM13.791 3.316c-.038-.037-.076-.037-.076 0s.038.037.076 0zM13.983 2.664a.14.14 0 0 0-.038-.093c.019.056.019.093.038.093zM1.196 7.377c.038-.019.019-.038-.02-.075-.019.075-.019.093.02.075zM12.603 5.57c0-.037-.02-.037-.039 0 .039.056.039.056.039 0zM12.641 5.514c-.038-.037-.058-.037-.058 0 .02.037.039.037.058 0zM12.526 5.644c.02.019.02.019 0 0 .02-.018.02-.037 0-.037s-.02.019 0 .037c-.02-.018-.02-.018 0 0zM12.45 5.998c0-.018-.02-.037-.04-.074 0 .074 0 .093.04.074zM12.277 6.073c.038.037.057.056.057.074 0-.056-.019-.074-.057-.074zM12.814 5.011c-.039.037-.077.074-.077.093h.096c.019-.056 0-.093-.02-.093z"/>
            <path d="M12.45 5.905c-.02-.019-.04-.019-.04.037.04 0 .058-.018.04-.037zM12.334 6.129v.018c.02.019.02 0 0-.018zM13.657 3.11h-.077c.039.02.058.02.077 0zM13.523 3.614v.037h.077c-.02-.037-.039-.037-.077-.037zM15.574 23.024h.039c0-.037-.02-.037-.039 0zM13.082 4.49v.074h.038c0-.056-.019-.075-.038-.075zM13.005 4.787c-.019-.037-.019-.074 0-.074.02-.019.039-.037.039-.075-.077-.018-.096-.018-.096.038a.14.14 0 0 1-.039.093c.039 0 .077 0 .077.018h.02zM12.967 4.88c-.02-.018 0-.037.02-.074-.04 0-.078.037-.078.093.058.019.058 0 .058-.018zM13.293 4.396c-.039-.037-.058-.074-.058-.112.02-.037.02-.074.02-.111.038.037.057.056.057.018-.02-.037 0-.056.057-.056 0-.018 0-.037-.019-.055-.019-.02-.019-.02-.019-.056.02 0 .038.018.038.037-.019-.037.02-.093.096-.168.096-.074.096-.13 0-.205a.989.989 0 0 1-.191.373c-.077.093-.135.242-.192.41a.106.106 0 0 0 .096-.056c.019 0 .057-.019.115-.019zM13.619 3.558c.038-.019.057-.037.038-.075-.02 0-.038.02-.077.038-.019.037 0 .056.039.037zM6.027 18.07c.02.037.038.037.038 0 0-.057-.019-.057-.038 0zM15.287 27.96c.038-.074.019-.11-.02-.167-.019.075-.038.168-.038.298 0 .13.02.205.077.224 0-.037 0-.093-.02-.13-.019-.038 0-.075.058-.075-.077-.019-.096-.075-.057-.15zM5.797 14.94c-.038-.019-.077 0-.077.018-.019 0-.038.019-.038.075 0 .037.019.056.038.037 0-.037.02-.074.077-.074 0 .018.02.037.038.037.02-.056 0-.093-.038-.093zM16.724 22.782h1v1h-1zM15.517 21.795v.019-.02zM15.632 21.348c-.039-.019-.039-.019-.02.037.039 0 .058-.019.02-.037zM12.296 6.24c.057-.018.057-.018.02-.055h-.078c-.019.055 0 .074.058.055zM5.72 14.27c0-.075-.019-.094-.076-.075.019.037.019.074.019.074-.02 0-.02.019-.02.075.058 0 .077-.019.077-.075zM10.551 10.58c0-.036-.019-.036-.038 0 .02.057.038.057.038 0zM12.2 6.408c-.02.037-.02.056 0 .075.02-.038.077-.094.134-.168-.038.019-.076.019-.076 0-.02-.019-.039-.037-.077-.037.038.056.038.093.02.13zM5.49 10.916c0-.037-.019-.074-.077-.074 0 .037.02.074.039.074h.038zM9.439 14.157h1v1h-1zM9.094 15.499c-.019.074-.019.111 0 .13.077-.056.077-.093 0-.13zM1.733 5.085c.038-.018.019-.037-.02-.074-.019.074-.019.093.02.074zM14.098 2.496h.038c0-.037-.019-.074-.076-.074.038.056.057.074.038.074zM5.413 10.562l.039.037c0-.018 0-.037.019-.037.02 0 .02-.018.02-.037h-.078v.037zM2.557 2.533c-.02.02-.02.038.038.038 0-.056-.019-.075-.038-.038zM5.931 16.393c-.02.018-.02.037.038.037 0-.056-.019-.056-.038-.037zM8.385 8.532c-.02-.093-.038-.205-.058-.317 0 .019-.019.056-.019.075-.057.111-.038.186.077.242zM10.916 9.966c0-.037.019-.074.038-.074.02 0 .02-.02 0-.075-.02 0-.058.019-.096.075.038.018.058.037.058.074zM6.43 20.416c0 .038.019.075.038.075s.038-.037.038-.093c-.057-.019-.076-.019-.076.018zM8.327 8.215c0-.019 0-.056-.019-.074v.018c.02.019.02.037.02.056zM11.452 8.234c0 .037-.019.111-.038.186-.02.074-.038.168-.038.242a.6.6 0 0 0 .115-.223c.057-.13.038-.187-.039-.205zM17.089 21.33c.038-.038.038-.057 0-.075h-.077a.16.16 0 0 1-.077.13c0 .019 0 .037.02.075.019.018.019.037.019.074a.187.187 0 0 0 .134-.13c-.038-.019-.058-.038-.02-.075zM16.955 27.905c.019.037.038.037.038 0 0-.056 0-.056-.038 0zM16.15 17.697c.038 0 .038-.019 0-.075-.039.056-.039.075 0 .075zM16.111 18.107v-.075.075c-.02 0-.038.018-.038.037h.038v-.037zM11.644 7.712c-.02.019 0 .019.058 0v-.037c-.02 0-.039 0-.058.037zM5.49 10.786c.038.018.058.018.058-.019-.02-.037-.039-.019-.058.019zM6.008 16.039c.019-.037 0-.075-.058-.075a.14.14 0 0 0-.038.093c.057.038.096.02.096-.018zM16.284 17.51c0-.018 0-.037-.02-.037-.019 0-.019.019-.019.037 0 .02 0 .038.02.038.019 0 .019-.019.019-.038zM5.528 8.103c.02 0 .02 0 .02-.018l-.02.018c0-.037 0-.018 0 0zM5.548 8.085v-.019.019zM.659 12.425c0-.037-.02-.037-.038 0 .038.037.038.037.038 0z"/>
            <path d="M11.874 17.939c-.038-.019-.057-.056-.038-.093a.31.31 0 0 0 .038-.093c0-.019 0-.019-.019-.019-.02.019-.02 0-.02-.019.04-.074.077-.13.097-.205.019-.074.057-.13.096-.186-.039-.372 0-.708.115-.987a3.04 3.04 0 0 0 .21-1.025c.096-.093.115-.205.077-.354a.432.432 0 0 0 .096-.186c.02-.074.038-.149.038-.205.077-.26.135-.521.192-.745.058-.242.134-.484.21-.726a.14.14 0 0 1-.037-.094c.115-.279.21-.558.268-.82.057-.26.115-.52.134-.782.115-.093.173-.242.192-.447.019-.205.077-.372.192-.484 0-.112.019-.205.076-.298.039-.093.058-.186.039-.298.038 0 .057 0 .057-.019-.019-.018 0-.018.058-.018.019-.168.057-.336.115-.485.057-.149.115-.316.191-.484 0-.037 0-.075-.019-.075s-.019-.018-.019-.037c.134-.242.25-.503.326-.8.077-.299.192-.56.326-.802 0-.037 0-.074-.02-.074-.018 0-.018-.019-.018-.075a.513.513 0 0 0 .153-.28c.019-.092.038-.204.077-.335.115-.037.191-.111.21-.223a.887.887 0 0 1 .154-.298.302.302 0 0 1 .096-.28c.096-.074.134-.186.134-.316.077-.093.134-.187.192-.28.057-.093.115-.205.153-.335.038-.019.077-.056.077-.112.019-.056.057-.074.115-.056.096 1.044.096 2.068.038 3.037a49.998 49.998 0 0 0-.134 3.036c-.039.037-.058.075-.039.112.02.037.02.074-.038.112a.91.91 0 0 1 .038.223c0 .037-.019.075-.038.075s-.038.018-.038.074c.038 0 .076.019.076.038-.076.093-.095.186-.076.298.019.111.019.204-.039.26.096.038.115.112.077.205a.26.26 0 0 0 .02.242.322.322 0 0 0-.058.075c.019.019 0 .037-.058.074.039.205.077.392.077.615 0 .205-.038.373-.134.503.038 0 .076.019.076.037 0 .41-.019.746-.076 1.025a5.64 5.64 0 0 0-.039 1.043l-.076.075c0 .018 0 .037.019.037.02 0 .02.019.02.074-.04.038-.058.094-.04.13.02.038.02.094-.038.131a.95.95 0 0 1 .02.466c-.039.149-.02.298.019.466 0 .037-.02.055-.058.055-.038-.018-.038 0-.019.056 0 .094 0 .187-.02.317-.018.112 0 .224.058.317l-.038.037c.02.075.02.112 0 .168-.02.037-.02.111 0 .205-.115.111-.153.279-.096.521.039.242.02.41-.096.522.039 0 .077.018.077.074-.038.075-.057.15-.02.242.04.094.02.205-.018.317 0 .019.019.019.057.019.039-.019.058 0 .058.056-.02.093-.039.149-.039.205 0 .037-.019.111-.038.204.077.02.134.038.192.056.057.019.115 0 .153-.056a.408.408 0 0 1-.057-.186c.019-.056 0-.093-.058-.112v.224c-.038 0-.077 0-.077.019-.019.018-.038.018-.076.018 0-.037.019-.112.076-.205l.058-.112c.02-.037.02-.074.057-.111-.019 0-.038 0-.038-.019s.02-.019.038-.019v.038c.039 0 .058-.019.039-.075-.02-.037-.039-.074-.077-.074.096-.093.134-.168.134-.261s-.019-.186-.038-.298c-.02-.019-.02-.019-.038-.019.019 0 .038.019.038.019l.038-.037c.02-.038.039-.112.077-.205.02-.093.02-.168-.038-.224 0-.018.019-.037.038-.037.02 0 .038-.019.038-.037-.038-.038-.076-.094-.076-.13h.095c0-.131.02-.206.039-.224-.039-.019-.058-.056-.058-.075.02-.037 0-.074-.057-.112.038-.074.076-.13.076-.204 0-.075.02-.15.077-.205.02 0 .038.037.038.13.039 0 .077-.037.077-.13 0-.094.039-.15.096-.168.096.13.077.26-.02.41a.473.473 0 0 0-.057.447c-.134.13-.115.317.039.559-.039 0-.077.018-.077.037.077.037.096.093.096.168-.02-.038-.077-.038-.134 0 0 .037.019.074.038.074.02 0 .038.019.077.037-.039.019-.058.056-.058.112.02.056 0 .112-.057.15.076.074.096.11.096.167-.135.13-.211.242-.211.354.038.018.057 0 .057-.056-.019-.056 0-.075.058-.075 0 .093-.02.15-.058.168-.038.019-.019.037.058.075 0 .037-.02.074-.039.074-.019.019-.038.037-.038.075.115.037.115.111.038.204.077.038.077.15.039.336.038 0 .076-.019.076-.075.02-.037.039-.037.077 0v-.074h.077v.074h-.077a.28.28 0 0 0-.077.187.549.549 0 0 1-.076.186c-.039-.037-.058-.093-.039-.13.02-.038.02-.075-.038-.075-.02.037-.02.074-.02.112.02.037 0 .056-.057.074.02.037.058.075.077.075.038 0 .057.037.057.13-.019 0-.038 0-.038-.019 0-.018-.019-.018-.038-.018 0 .093 0 .149.019.186.02.037 0 .075-.02.15.02 0 .077-.057.135-.169.02.112.02.205-.038.261a1.122 1.122 0 0 0-.096.224c.038.037.057.074.057.112-.019.037-.019.093-.057.186.038-.019.076-.019.076-.019.02.019.039 0 .077-.018 0-.075 0-.112-.019-.15a.389.389 0 0 0-.077-.111c.039-.019.077-.037.096-.075.02-.018.058-.018.096 0-.02-.037-.02-.074.02-.093a.102.102 0 0 0 .057-.093c-.077-.037-.096-.112-.077-.186.02-.075 0-.15-.02-.242.02 0 .04 0 .04-.02 0-.018.018-.018.076-.018a.14.14 0 0 0-.038-.093c-.02-.018-.02-.056 0-.093a.74.74 0 0 0 .191-.335c.039-.13 0-.242-.115-.336l.058-.223a.617.617 0 0 1 .076-.224c-.038-.037-.076-.074-.095-.074v-.093c.019 0 .038.018.057.074.02.037.02.037.058 0-.115-.112-.135-.223-.077-.335.077-.112.077-.224.038-.354.039 0 .077-.019.077-.037 0-.019.02-.038.077-.038 0 .02 0 .038.019.038s.019.018.019.037c0 .037-.02.074-.038.074-.02 0-.039.02-.077.075.02.037.038.037.077 0 .019-.037.038-.037.076 0-.038.037-.057.075-.019.075.038 0 .058.018.058.074-.077.037-.096.093-.077.149.02.056.02.112 0 .186.038.019.038.075 0 .168.077 0 .096.019.077.056-.02.037-.02.056.038.074a2.61 2.61 0 0 1-.134.522c.038.019.076.074.076.168-.038.037-.076.037-.095 0 .019.111.019.186.019.223-.02.037-.02.112-.02.224.096.037.135.018.116-.075-.02-.093.019-.112.076-.074.02-.038.02-.075-.019-.075-.038-.018-.019-.018.02-.056a.567.567 0 0 1 .095.13c-.038.038-.096.094-.172.131-.077.037-.096.093-.077.168.038 0 .077-.019.077-.075.019-.037.019-.056.057-.037.02.037.02.074-.019.074-.038 0-.058.02-.058.075.039-.019.077-.019.077 0s.02.037.077.037c0-.037 0-.074.019-.112.02-.037.02-.074.02-.149.095 0 .133-.037.133-.13-.038-.019-.076-.019-.076.019 0 .037-.02.018-.039-.019 0-.074 0-.149.02-.242.019-.093.038-.186.076-.28.039 0 .058.02.02.075-.039.056-.02.074.019.074.038-.093.076-.149.076-.204-.038-.02-.057-.075-.057-.15.019-.074.019-.13.019-.186.02.038.038.075.077.075.019 0 .038.018.038.074.02.038.02.075 0 .075s-.038.018-.038.074c.038.075.038.13-.02.205a.193.193 0 0 0-.019.224c.077.093.096.167.077.26-.02.094-.038.205-.077.354 0 .02.02.02.039.02.019-.02.038 0 .038.018 0 .112-.02.205-.077.298a.31.31 0 0 0 0 .26c.039-.111.096-.148.134-.13a2.129 2.129 0 0 0-.095.373c-.02.149-.058.28-.096.41.038 0 .076.018.076.074a.68.68 0 0 0 0 .28.44.44 0 0 0 .173.279c0 .019-.02.019-.058.019-.038-.02-.038 0-.019.055.039 0 .077.02.077.056 0 .038.02.075.038.112h-.096c0 .037 0 .075.02.075.019 0 .019.018.019.074-.077.037-.115.112-.154.224-.038.111-.019.186.02.223-.039.168-.096.354-.135.54a.758.758 0 0 0 .077.54c-.038.038-.077.168-.077.168h.173l.288-.13.23-.075.287-.149s.038-.205.038-.335c-.038-.037-.057-.074-.038-.112a.116.116 0 0 0 0-.111c.077-.038.096-.112.077-.224-.02-.112-.039-.186-.077-.224.077-.074.077-.149.038-.26-.038-.112-.019-.205.077-.298-.038-.112-.038-.205 0-.261 0-.019-.019-.037-.038-.037-.02 0-.039-.02-.039-.075.02-.019.039-.019.077-.019.02.019.02 0 0-.055 0-.243.02-.503.058-.783.038-.28.019-.54-.058-.745h.077a.197.197 0 0 1 0-.205c.038-.074.038-.149-.039-.242h.077a2.62 2.62 0 0 1 .058-.969c.076-.28.096-.614.057-1.024.02.018.039.018.039-.038-.02-.298 0-.577.057-.8.058-.224.058-.504-.02-.839a3.8 3.8 0 0 0 .116-.95c.02-.335.038-.652.077-.987 0-.037-.02-.075-.058-.075-.038 0-.057-.018-.057-.074.076 0 .095-.037.095-.093-.095-.13-.095-.261 0-.392a1.598 1.598 0 0 1 .02-.67c.057-.242.057-.447.019-.615.076-.074.096-.149.076-.28-.019-.111-.019-.241-.057-.335l.077-.074c-.039-.15-.058-.298-.039-.447.02-.15.039-.298.039-.484.038 0 .057-.02.057-.038-.019-.018 0-.037.058-.037a1.826 1.826 0 0 1-.058-.466c.02-.149.02-.298.058-.465-.039-.038-.077-.094-.077-.15 0-.055.038-.111.096-.148-.039-.243-.058-.429-.02-.597.039-.149.02-.354-.019-.596.039-.037.058-.093.039-.167-.02-.075-.02-.13.038-.205a1.027 1.027 0 0 1 0-.485c.039-.186.039-.335-.038-.447l.077-.074c-.02-.242-.02-.484.019-.745.038-.261.057-.54.076-.857a.293.293 0 0 1-.076-.205c0-.093.019-.168.076-.224 0-.037-.019-.074-.057-.074-.038-.019-.058-.037-.058-.075a.233.233 0 0 0 .077-.167c-.038-.112-.057-.224-.038-.336a.422.422 0 0 0-.077-.335c.038-.112.058-.223.038-.335-.019-.112-.038-.224-.038-.336-.02-.111-.02-.223-.02-.335.02-.112-.038-.205-.153-.26.039 0 .077-.02.077-.075a2.763 2.763 0 0 0-.192-.633 13.59 13.59 0 0 0-.287-.634.375.375 0 0 1-.211-.205c-.058-.093-.153-.13-.288-.13-.076-.13-.21-.186-.402-.168a.567.567 0 0 0-.096-.13 3.497 3.497 0 0 1-.537-.093 1.467 1.467 0 0 0-.498-.038c-.02 0-.039-.018-.039-.037 0-.018-.019-.037-.076-.037-.039 0-.077 0-.096.019-.02.018-.039.018-.077.018-.25-.112-.48-.13-.69-.056a1.52 1.52 0 0 0-.556.336c0 .037 0 .074.02.074.018 0 .018.019.018.075-.115.13-.23.26-.345.354-.115.111-.21.26-.306.428.038 0 .076-.019.076-.037.02-.019.02-.019.058.037a.78.78 0 0 1-.211.298 1.064 1.064 0 0 0-.211.298h.077c0 .075-.02.093-.039.093-.019-.018-.038-.037-.076-.037-.02 0-.039.019-.039.037.039.019.058.056.058.075-.02.037-.02.056-.058.074-.019-.018-.038-.037-.076-.037-.02 0-.039.019-.039.037.02 0 .039.019.039.056 0 .037-.02.037-.077.019a.908.908 0 0 1-.211.596c-.134.149-.23.335-.307.559h-.076c-.02.111-.058.205-.115.316a2.017 2.017 0 0 0-.154.28c-.019-.075-.076-.075-.134 0 0-.037.02-.075.058-.075.038-.018.019-.018-.02-.056-.038-.018-.095.019-.134.094.039.018.077.037.077.074 0 .019-.02.019-.077 0 .077.075.077.13.039.205-.039.074-.077.149-.096.205.038.093.057.149.038.168-.02.018-.038.018-.058-.02 0-.018-.019-.018-.019-.018 0-.037 0-.074-.019-.093-.019-.019 0-.056.02-.093h-.097v.168l.058.037s-.02.019-.02.037a.142.142 0 0 1 .04.15.37.37 0 0 1-.078.148c-.019 0-.038 0-.038-.018 0-.02-.02-.02-.038-.02 0 .038 0 .075.019.075.02 0 0 .02-.02.075-.038.019-.057.056-.038.074.02.038.02.075 0 .15 0 .018-.019.037-.038.037-.02 0-.038.018-.077.037a2.129 2.129 0 0 0-.095.373c-.02.149-.077.13-.173-.019h-.077c-.038.093-.076.149-.076.205-.02.037-.02.112-.02.205-.019.037-.038.056-.038.037 0-.019-.02-.019-.077 0 .02.075.02.112-.019.13-.038.02-.038.075-.019.13.02-.018.038-.018.058 0 0-.018.019-.018.038-.018-.02-.037-.02-.074 0-.093.02-.019.02-.056-.038-.093.038 0 .076.019.095.037.039-.074.077-.13.077-.205a.655.655 0 0 1 .077-.205c.077.112.057.205-.02.298a.45.45 0 0 0-.114.298h-.096c.038.038.038.094 0 .168-.039.075-.077.112-.096.168l-.077-.13c.039.037.077.018.077-.075h-.077c-.038.093-.076.168-.076.26.019.02.038.038.076.057l.077.074h-.077c.02.075.02.112-.019.168-.038.037-.057.093-.077.167a.456.456 0 0 0-.038.187c0 .074-.038.111-.134.074a.14.14 0 0 1 .038-.093c-.038.037-.096.112-.172.205-.077.093-.077.186-.039.242-.038 0-.076.037-.076.093-.039.037-.058.075-.039.075 0 .074.02.111.039.167-.077.019-.115.075-.115.15-.02.074-.02.167-.058.242.02 0 .058.018.096.074a.102.102 0 0 0-.058.093c.02.037-.019.093-.076.13-.039-.037-.058-.074-.039-.093.02-.018.02-.037-.038-.037 0 .037-.02.093-.038.13-.02.038-.02.094.038.168h.077a.208.208 0 0 0-.058.15c.02.055-.019.074-.076.074h.076v.074h-.076v-.074a.26.26 0 0 1 .038-.112c.019-.037.038-.074.038-.112h-.096a2.841 2.841 0 0 1-.153.429c-.058.13-.115.28-.153.428.038 0 .076.019.076.037-.134.094-.172.205-.134.354-.077.038-.096.094-.096.168v.224h-.076c-.02.111-.039.223-.077.335-.02.112-.077.223-.134.335.076.075.076.112.019.13-.058.02-.058.075-.02.168h-.076c.02.093.02.15-.038.205-.039.037-.039.093 0 .168-.077.018-.115.074-.115.149-.02.074-.02.149-.02.223 0 .075-.019.168-.038.243-.02.093-.077.149-.134.167 0 .037.02.056.038.056.02-.019.039 0 .039.056-.115.037-.173.112-.154.223a.29.29 0 0 1-.076.261c0-.093.019-.223.076-.39-.096.11-.134.26-.153.428-.02.167-.058.298-.154.39a.156.156 0 0 1 .077.131h-.096c0 .093.02.13.039.13 0-.074.019-.093.038-.093a2.283 2.283 0 0 0-.077.503c-.019.168-.076.298-.191.373.019.019.038.019.057-.019.02-.037.02-.018.02.019a.233.233 0 0 0-.077.168c0 .074-.039.111-.096.13.019.074.019.13-.02.205-.038.074-.057.149-.076.205-.038-.038-.058-.112-.058-.224.02-.112.02-.205.02-.26-.039.018-.058.018-.058-.02.02-.036.02-.055.058-.055a.228.228 0 0 1-.096-.093c-.02-.037-.02-.093.038-.13 0 .037.02.074.077.074-.096-.112-.115-.242-.077-.429a1.3 1.3 0 0 0 .02-.465c-.02 0-.04-.019-.04-.038.078-.111.078-.242 0-.41-.076-.167-.076-.297 0-.41.02-.036.02-.074-.037-.074-.039 0-.077-.018-.077-.074a.306.306 0 0 0 .019-.335.331.331 0 0 1-.02-.299c-.037-.018-.076-.055-.076-.074a.14.14 0 0 0-.038-.075c.038 0 .077 0 .077-.018 0-.019.019-.019.038-.019-.038-.149-.077-.26-.077-.335 0-.075-.019-.186-.038-.317.019-.037.057-.056.077-.056.038.019.038 0 .019-.056a.501.501 0 0 1-.077-.354c.02-.111-.02-.223-.115-.353.077-.094.077-.15.057-.205-.038-.056-.019-.13.02-.205-.02-.019-.039-.056-.058-.093-.019-.038 0-.075.058-.094l-.058-.39c-.019-.131-.019-.299-.019-.485 0-.019-.02-.037-.038-.037-.02 0-.02-.019 0-.038-.02-.037-.02-.074 0-.074.019-.019.019-.037 0-.075 0-.037-.02-.055-.039-.055-.019.018-.038 0-.038-.056.038-.019.057-.019.057-.019-.019.019 0 .019.058.019-.02-.038-.02-.075-.02-.112.02-.037 0-.075-.057-.112 0-.019.02-.037.077-.037-.038-.037-.058-.093-.038-.13.019-.038.019-.094-.039-.131h.039v-.354c0-.149-.039-.242-.096-.298.115-.112.134-.242.076-.428a.668.668 0 0 1-.019-.429c.058.019.077.056.096.075-.019-.13-.038-.242-.038-.336h.076c0-.223-.076-.39-.21-.484-.02-.037-.02-.074.019-.074.038-.02.057-.038.057-.075a.774.774 0 0 1-.038-.354.512.512 0 0 0-.038-.335.373.373 0 0 0 .019-.373c-.058-.112-.058-.242.019-.335-.038-.28-.058-.522-.038-.745.019-.205.019-.447-.039-.708.039-.019.058-.075.058-.15-.02-.074-.02-.167-.058-.279a3.517 3.517 0 0 1-.038-.447c0-.149-.02-.242-.077-.316.039-.112.058-.205.039-.317a.718.718 0 0 0-.096-.242l.076-.13c-.019-.038-.038-.075-.057-.075-.02 0-.02-.019-.02-.075 0-.26-.038-.54-.114-.82a4.75 4.75 0 0 0-.288-.782.648.648 0 0 1-.326-.205.648.648 0 0 0-.326-.204C6.832.447 6.794.41 6.736.354 6.68.317 6.621.26 6.545.224c-.039 0-.115 0-.192-.02-.077-.018-.115.02-.115.075.077.02.115.02.115.02.019-.02.038-.038.077-.075 0 .037.019.074.038.111.019.038.019.056-.038.075-.02 0-.039 0-.077-.019-.02-.018-.058-.018-.096-.018C6.18.298 6.161.26 6.18.243a.733.733 0 0 0-.345-.038.852.852 0 0 1-.422-.037C5.394.056 5.318 0 5.203 0c-.115 0-.25.019-.346.037.02 0 .039 0 .039.019s-.02.019-.039.019a2.116 2.116 0 0 0-.536.204c.038 0 .076.038.076.094-.153-.02-.268.018-.306.149-.039.111-.115.167-.23.149-.115.223-.25.41-.422.577a2.083 2.083 0 0 0-.422.615c-.038-.019-.077-.019-.077.018 0 .038-.019.056-.076.056 0 .13-.02.224-.077.28-.058.056-.077.13-.058.242-.038 0-.076-.019-.076-.037-.02-.019-.02-.019-.058.037.02.019.039.019.077.019.02-.02.02 0 0 .055-.077 0-.077.02-.058.056.039.038.02.038-.057.019-.02.037-.02.056.02.056.037-.019.037 0 .018.056-.038 0-.057.018-.057.074.019.037 0 .075-.02.075v.074c-.019 0-.057-.018-.095-.074 0 .093-.02.149-.039.205-.019.037-.019.093.039.13-.039.019-.077.037-.077.075 0 .018-.02.037-.077.037 0 .037 0 .074.02.074.019 0 .019.019.019.075-.02 0-.039 0-.058.018-.019.02-.019.02-.057.02-.039.148-.077.279-.077.353 0 .093-.057.168-.173.26.039.02.077.094.077.206 0 .018-.019.018-.038.018-.02-.018-.039 0-.077.056.038 0 .077.037.077.093 0 .075-.02.112-.039.13-.038-.018-.057-.055-.038-.092.02-.038.02-.075-.038-.075.019.075.019.093-.02.093-.038 0-.057.019-.076.075.038.037.077.074.077.112 0 .037.019.074.076.111-.038-.018-.057-.018-.057.019.019.037 0 .037-.058.019.02-.02.039-.075.039-.13-.039 0-.077.018-.077.036 0 .02-.02.02-.038-.037a3.58 3.58 0 0 1-.058.28c-.02.074-.02.167-.057.242.038 0 .076.018.076.074a.31.31 0 0 0-.038.093c0 .019-.02.056-.077.094-.019-.02-.038-.02-.076 0a.864.864 0 0 0 0 .316c.019.075.019.168-.039.28-.038 0-.076-.019-.076-.056 0-.037-.02-.019-.077.018 0 .112 0 .187-.02.205-.019.038 0 .075.058.15-.019 0-.038 0-.038-.02 0-.018-.02 0-.077.02-.077.148-.077.297-.038.465a.492.492 0 0 1-.077.428.16.16 0 0 0-.077-.13c.02.112.02.224.02.354-.02.13-.02.242-.058.335-.038 0-.057 0-.057.019.019.019 0 0-.058-.019v.187c0 .074.02.149.077.205-.096.577-.173 1.099-.23 1.602-.077.503-.115 1.043-.173 1.602-.019.018-.019.018.02.018.038-.018.057 0 .057.056-.039.037-.077.056-.077.037 0-.018-.019-.018-.038 0a3.14 3.14 0 0 0-.058.596c.02.205 0 .373-.057.522 0 .019.019.019.057.019.039-.019.039 0 .02.056-.039.018-.077.074-.077.149 0 .074-.02.13-.077.186.096.13.096.335.02.615-.077.279-.077.484.018.633-.038 0-.076.019-.076.037.038.037.038.093 0 .168-.039.074-.039.112 0 .167-.077.522-.096 1.044-.077 1.565.02.522-.02 1.043-.134 1.565.077.093.096.205.077.354-.02.149-.039.28-.039.391-.019 0-.038 0-.038-.018 0-.02-.02-.02-.038-.02 0 .169-.02.299-.039.355 0-.019.039 0 .096.074 0 .15-.02.261-.077.298 0 1.379 0 2.72-.019 4.024-.019 1.304 0 2.645.058 4.024.038 1.117.115 2.235.23 3.353.115 1.118.422 2.123.92 2.962a1.49 1.49 0 0 0 .824-.168c.23-.13.46-.28.652-.466v-.093a.516.516 0 0 0 .23-.298.67.67 0 0 1 .23-.335v-.093c.134-.168.23-.373.307-.615.077-.224.153-.466.268-.708.02-.019.039-.037.077-.056.02-.018.038-.018.077-.056 0-.149-.02-.298-.077-.465a7.94 7.94 0 0 0-.192-.466c-.076-.15-.115-.298-.172-.447-.039-.15-.058-.298-.039-.447h-.076c-.039-.336-.096-.615-.134-.894a3.199 3.199 0 0 1 0-.857c0-.019 0-.019-.02-.019-.019.019-.019 0-.019-.019-.038-.428-.076-.8-.096-1.117-.019-.298-.038-.67-.038-1.118a3.618 3.618 0 0 1 0-1.285c-.038-.038-.077-.075-.096-.075a4.08 4.08 0 0 0 .058-.708c-.02-.242-.02-.503-.058-.745.077-.093.077-.186.039-.316a.502.502 0 0 1 0-.336c0-.018 0-.037-.02-.037-.019 0-.019-.019-.019-.037.039-.298.058-.56.058-.745-.02-.187-.02-.429-.02-.708 0-.019 0-.038-.019-.038s-.019-.018-.019-.037l.058-.875c.019-.28 0-.56-.058-.876.039-.298.058-.596.058-.857-.02-.26-.02-.54-.02-.857 0-.018.02-.074.077-.167v-.615c-.019-.205-.019-.391.02-.615a1.76 1.76 0 0 0-.02-.633c.02 0 .039-.019.077-.037-.038-.15-.058-.28-.02-.354.04-.093.04-.224.02-.391-.038 0-.077-.02-.077-.038.096-.074.134-.167.115-.298a.964.964 0 0 0-.076-.298c.019-.037.038-.074.076-.074.02 0 .039-.019.039-.075a.197.197 0 0 1 0-.205c.038-.074.038-.149-.039-.223.039-.038.077-.075.077-.093-.02-.168-.02-.354.02-.54.037-.187.057-.336.057-.485h.038a1.012 1.012 0 0 1 .038-.577c.077-.205.077-.41.039-.615.019 0 .038-.019.038-.075 0-.111.038-.242.096-.428h-.077v-.037c.077-.038.096-.13.077-.261a.978.978 0 0 1 0-.335c.019-.038.057-.094.077-.15a.308.308 0 0 0 .057-.186c0-.018 0-.037-.02-.074-.018-.019-.018-.056-.018-.093a.14.14 0 0 1 .038-.075.26.26 0 0 0 .038-.112l-.038-.037c0-.037 0-.074.02-.093.018-.019.018-.037.018-.075.02-.111.039-.205.077-.298.02-.093.038-.186.038-.298.02-.018.039-.037.077-.037-.038-.075-.038-.168.038-.298.077-.13.077-.242 0-.335a.436.436 0 0 0 .173-.298c.02-.13.038-.261.038-.392h.077a.439.439 0 0 1 .077-.335.439.439 0 0 0 .076-.335c.039 0 .077-.019.077-.075-.038-.037-.038-.093.02-.149.057-.056.057-.13.018-.205.135-.242.23-.503.288-.763.057-.28.153-.522.326-.764.096.298.115.67.077 1.118-.039.428 0 .8.076 1.117 0 .019 0 .037-.019.056-.02.019 0 .037.02.075.018.018.038.018.057-.019.019-.037.019-.019.019.019 0 .018-.02.037-.038.037-.02 0-.039.018-.039.037.039.093.058.186.039.28a.363.363 0 0 0 .038.279c-.096 0-.115.019-.096.037.115.075.173.205.173.391 0 .187.019.392.038.56.02.148.038.316.038.502 0 .187-.019.354-.076.503.038.093.057.168.038.224a.167.167 0 0 0-.134.074c.038 0 .076.019.096.075.019.056.019.112 0 .149-.02-.019-.077-.037-.135-.037 0 .111 0 .242-.019.372-.019.15.02.28.115.41a.321.321 0 0 0-.115.112c-.038.056-.019.111.02.149 0-.093.019-.112.076-.075.038.037.077.075.077.093-.039.019-.058.038-.039.075.02.018.02.056-.038.093.02.019.038.037.077.037.019 0 .038.019.076.037-.019.038-.019.075 0 .075.02.019.039.037.039.075-.039-.02-.077 0-.096.055a.192.192 0 0 1-.096.112c.02 0 .038.019.038.037v.038a.583.583 0 0 0 .135.093c-.039 0-.077.018-.077.074.077.038.096.093.096.168-.077 0-.096.019-.077.074.02.056-.019.075-.096.075.02.037.02.093-.019.13-.038.038-.02.075.02.094.038-.038.057-.075.038-.075-.02 0-.02-.019 0-.037h.095a.584.584 0 0 0 0 .26.91.91 0 0 1 .039.224c-.039-.019-.077-.056-.077-.074-.019-.038-.038-.056-.077-.056a.68.68 0 0 1 0 .28.382.382 0 0 0 .039.279c0-.075.038-.094.096-.094 0-.037-.02-.074-.077-.074-.038-.019-.038-.037 0-.075.038.038.077.094.077.15.019.055.019.111.057.186-.038-.019-.057-.019-.057 0 .019.018 0 .037-.02.037.02-.037.02-.075-.019-.075-.038 0-.057.02-.057.038.019 0 .019.018-.039.074-.038.037-.038.075.039.093 0-.037.019-.074.076-.074.039-.019.077 0 .096.056a.482.482 0 0 0 .039.39c.076.15.057.28-.039.392.039.037.077.093.077.13v.168c.077.112.077.26.058.429-.039.167-.02.335.019.484 0 .037.019.093.076.149.039.056.039.074-.038.074 0 .075.02.15.038.224.02.093.02.168-.038.224.115.037.153.13.096.279-.038.149-.038.26.038.335a.102.102 0 0 0-.057.093c.019.038 0 .075-.058.094.077 0 .096.018.096.074 0 .037-.02.093-.038.13.096 0 .115.02.076.056-.038.038-.057.075-.038.112.077 0 .096.019.077.075-.02.037-.02.074.038.074-.038.019-.077.056-.077.093 0 .038-.038.075-.095.075.019.037.038.074.057.074.02 0 .02.019.02.075-.077 0-.097.018-.097.074.039 0 .077.019.077.075a.13.13 0 0 0 .115.074c-.02.075-.038.112-.057.112-.02.019 0 .037.057.075H5.95c0 .167.02.354.077.54a.666.666 0 0 1-.058.54c.039.037.077.112.077.224 0 .111.038.186.134.223a.322.322 0 0 0-.057.075c.019.018 0 .037-.058.074.02.037.039.056.077.019.02-.037.038-.019.038.018 0 .02.02.075.077.168-.115.075-.134.15-.077.26a.331.331 0 0 1 .02.299c.038.019.076.019.076-.019.02-.037.02-.018.058.019 0 .019 0 .037.019.037s.019.019.019.037c-.077 0-.096.02-.096.038.077.018.096.074.077.13-.02.075-.058.112-.096.168.096.149.134.335.134.559 0 .018.02.018.039.018.019-.018.038 0 .038.019.038.037.057.074.038.112-.019.037-.019.074.039.111-.077 0-.096.019-.096.075h.038v.037c0-.018.02-.037.038-.037v.168h.058c-.02.018-.038.018-.058 0 .02.167.039.353.096.54.077.26.154.503.269.745-.02.037-.039.056-.077.056-.02-.019-.038 0-.077.056.134.037.211.093.211.167-.077 0-.096.019-.077.075.02.037.077.093.173.13-.02.503.096.913.345 1.211.25.298.614.429 1.074.391.134-.037.249-.074.326-.074a.52.52 0 0 0 .249-.15c.115-.018.21-.055.326-.092.096-.038.191-.094.287-.13.115-.131.211-.243.326-.336l.326-.317c.038 0 .077-.018.077-.056 0-.037.019-.037.076-.018.25-.503.48-1.006.671-1.528.211-.521.326-1.099.365-1.75-.02-.113-.02-.206.038-.28.038-.075.058-.168.038-.28a.102.102 0 0 0 .058-.093c-.02-.037 0-.074.057-.093 0-.037 0-.075-.019-.075s-.019-.018-.019-.074a1.31 1.31 0 0 0 .153-.466c0-.316.02-.465.077-.633zm4.199-.69c.019-.018.019-.055.019-.092.019.018.038.074.038.13-.057 0-.077-.019-.057-.037zm-.096-.204c0-.038.038-.075.134-.075-.038.056-.077.075-.134.075zm.134-.093h-.077v-.075h.077v.075zm1.246 7.209a.233.233 0 0 1-.077-.168c-.019-.074 0-.112.058-.168.057.056.077.168.02.336zm-.038-4.36c.019 0 .019-.018.019-.037.038-.018.057 0 .057.056-.019.056-.038.075-.076.056-.02-.056-.02-.074 0-.074zm-.25-2.03h.077v.038h-.076v-.038zm-.383 1.043c0-.018.02-.037.077-.037 0 .037-.02.037-.077.037zm.077-.167c0 .018-.02.018-.077 0 0-.037.02-.075.038-.075.02-.018.039-.037.039-.074.019.018.038.074.038.13-.038 0-.038 0-.038.019zm.115-1.62c.038-.038.057-.02.077.018 0 .037-.02.056-.039.056-.019-.019-.038 0-.038.018-.039-.018-.039-.056 0-.093zm-.115.018h.076v.074h-.076v-.074zm-.077.167c.02 0 .038-.018.038-.037.02.037.039.075.077.093.02.019.02.056-.038.093-.039.02-.058 0-.058-.055.02-.056 0-.075-.057-.075.019 0 .019-.019.038-.019zm.02.392c.038.018.018.037-.02.074.02 0 .038.019.077.037.076-.074.115-.167.172-.298.039.038.039.093 0 .15-.038.055-.096.111-.134.148-.019.038-.019.094-.019.168.02.075 0 .112-.058.168-.076-.038-.076-.112-.057-.205.038-.093.02-.15-.058-.187.039-.055.058-.074.096-.055zm-.346 2.85V20.342c.039 0 .058.019.058.056-.02.037-.039.056-.058.056zm.058-3.838c0 .019 0 .038-.02.056-.019.019-.019.019-.019.056-.038-.037-.076-.074-.076-.093h.115v-.019zm-.096.205c.019 0 .038-.018.038-.074.039.018.058.056.039.093-.02.037-.058.056-.096.037-.02-.037 0-.056.019-.056zm-.058.093c.039.019.02.038-.019.038 0 .037-.019.055-.038.037-.02-.019-.02-.037.038-.037-.019-.038 0-.056.02-.038zm-1.36-15.2c.018-.037.057-.037.095-.019.02.037.02.056-.038.056-.039-.019-.058 0-.039.056-.038-.019-.038-.056-.019-.093zM8.25 7.768c-.039 0-.077-.037-.077-.093.058 0 .077.037.077.093zM3.4 6.78c.019-.038.038-.038.038 0 0 .056-.02.056-.039 0zm2.185 4.228c.02-.037.038-.037.038 0 0 .056-.019.056-.038 0zm.115.894c-.02.019-.038 0-.038-.074.038.037.057.056.038.074zm.403 4.75h-.077v-.037h.077v.038zm.019 1.547c0-.019.019-.038.038-.038.02 0 .038.02.038.038h-.076zm.21.912h-.076v-.037h.077v.037zm.978-.558c-.038-.038-.057-.094-.038-.168.02-.075.077-.112.173-.13a.208.208 0 0 0-.058.149c.02.055 0 .111-.077.149zm-.939-8.98c.077.038.077.094.058.15-.039.056-.039.093-.02.112.039 0 .058.018.058.074-.02.056-.038.075-.077.056 0-.037.02-.074.039-.074s.019-.02 0-.075h-.096c.038-.037.057-.074.019-.112-.038-.037-.058-.074-.058-.112.077.02.096 0 .077-.018zm.058 9.8c0-.075.019-.094.076-.094-.019.019-.019.037-.019.075 0 .018 0 .018-.057.018zm.057.968c-.038.037-.038 0-.02-.112.04.037.058.075.02.112zm.134-1.155c-.038.037-.038.037 0 0 .02-.037.039-.019 0 0zm.211-3.185c.038-.094.038-.205-.019-.373-.058-.168-.134-.26-.21-.28.037-.037.037-.093-.02-.13-.058-.037-.038-.056.057-.037-.076-.037-.115-.112-.115-.205-.019-.093 0-.168.058-.205-.02-.019-.077-.037-.134-.037v-.522c0-.205.019-.39.038-.559-.077 0-.115.02-.115.075-.02.037-.038.074-.077.074.077-.111.077-.204.058-.316-.038-.093-.02-.187.057-.242-.019-.019-.038-.038-.057-.038-.02 0-.02-.018-.058-.037.02-.019.039-.037.058-.037.019 0 .019-.019.057-.075a1.154 1.154 0 0 1-.057-.28c.019-.055 0-.13-.058-.241.077-.038.096-.093.077-.13-.02-.038 0-.075.077-.075.019-.037.019-.056-.02-.056-.038.019-.038 0-.019-.056.02 0 .039 0 .058-.019.019-.018.038-.018.077-.018 0-.13-.039-.205-.096-.224.096-.093.076-.167-.02-.26-.095-.094-.114-.168-.057-.261-.038-.038-.077-.093-.077-.13 0-.038-.019-.094-.038-.168.077 0 .096-.019.077-.056-.02-.038-.02-.056.038-.075 0-.018-.02-.018-.038 0-.02.019-.039.019-.077-.037.038-.019.077-.056.077-.075 0-.018.019-.055.076-.074 0-.037-.019-.075-.038-.075-.02-.018-.02-.037 0-.074.02 0 .038 0 .038.019 0 .018.02.018.077.018 0-.018 0-.037-.02-.037-.018 0-.018-.019-.018-.037-.039 0-.077 0-.077-.019s-.02-.019-.077-.019c.039-.037.077-.074.077-.093 0-.018.038-.037.096-.074l-.077-.075c.039-.074.039-.112 0-.167-.038-.038-.057-.094-.038-.13.038 0 .077.018.077.074 0 .037.038.074.095.074.039.28.077.578.115.857.039.28.02.578-.019.857.134.224.173.522.134.913a3.2 3.2 0 0 1 .135.745c.019.26.038.522.076.8 0 .038-.019.057-.038.057-.02-.019-.038 0-.038.056.115.205.172.428.172.726 0 .28.039.54.096.783a.293.293 0 0 1-.096.149c-.038.037-.057.093-.038.186-.039-.019-.077-.075-.077-.15 0-.11-.038-.167-.115-.185zm.077.484c.038-.037.076-.075.115-.075.038-.018.019-.037-.02-.074.077-.019.116-.019.135 0a.322.322 0 0 1-.173.205v.093c.039 0 .077.037.077.093-.038.019-.058.019-.058-.019.02-.037 0-.055-.019-.074-.038-.056-.057-.093-.057-.15zm.307 1.155c.095-.019.134 0 .134.074a.68.68 0 0 0-.173.224c-.038 0-.076 0-.076-.019 0-.018-.02-.018-.077-.018.038-.038.019-.112-.077-.224.096 0 .173-.019.269-.037zm.23 1.583c-.115-.018-.211-.018-.269-.056-.019 0-.038 0-.038-.018 0-.019-.02-.019-.038-.019v-.037c-.039 0-.077-.019-.077-.037H7.1v.037c.038 0 .076.018.076.074h.077c.038-.018.057-.056.038-.074-.019-.037-.019-.056.039-.056 0-.019-.02-.037-.058-.037-.038 0-.038-.019-.02-.075a.832.832 0 0 1 .308 0c0 .037-.02.075-.039.075s-.038.018-.076.037c0 .037 0 .074.019.074s0 .02-.02.075c.02-.019.039-.037.077-.037.02 0 .039-.019.039-.075.038.112 0 .168-.115.15zm.575-.298h-.039v-.074h.039v.074zm.057 0c0-.018.02-.037.039-.037 0 .019 0 .037-.039.037zm.345-4.787c.02-.037.039-.037.039 0s-.02.037-.039 0zm2.473-3.95c0-.018 0-.037.02-.037.019 0 .019.019.019.038h-.039zm.211-.446c-.019.018-.019.037-.019.074-.038-.019-.057-.037-.038-.074.019-.02.019-.056-.039-.094.02 0 .039 0 .058.019.02.019.02.019.057.019 0 0 0 .037-.019.056zm.115-.373c-.019 0-.038.019-.038.074a.102.102 0 0 1-.058-.093c.02-.037.039-.056.077-.037.038.037.038.056.02.056zm.02-.13c-.039.055-.039.055 0 0 .038-.038.038-.038 0 0zm.057-.15v-.074l.038-.037c.02 0 .039.018.039.074-.02.038-.039.056-.077.038zm.058-.148c-.077 0-.077-.02-.058-.056.038-.038.058-.075.058-.112l.076.074c-.019 0-.057.038-.076.094zm.268-.876v-.075h.077c0 .056-.02.075-.077.075z"/>
            <path d="M11.74 7.712c.02 0 0 0 0 0 .02 0 .02 0 0 0 .02-.037.02-.037 0-.037v.037zM12.104 6.948a.257.257 0 0 1 .02-.205c.038-.074.019-.111-.02-.167-.038 0-.057.037-.057.093.019.074 0 .093-.058.093.039.093.039.13-.038.13.019 0 .038.019.038.075.058-.019.096-.037.115-.019zM11.74 7.712c-.02 0-.02 0-.058-.019v.075c.058 0 .077-.019.058-.056zM6.391 10.618h.039c0-.019 0-.019-.039 0zM16.667 21.646c.02-.037.038-.075.038-.093 0-.019.02-.037.077-.075v-.167c.02 0 .038-.019.077-.056.019-.038.019-.056 0-.075l-.077.075v-.093c-.096.074-.115.13-.096.204.02.075 0 .13-.077.205-.019.038 0 .075.058.075zM16.15 18.256h-.039c0 .018 0 .037.02.037.018 0 .018 0 .018-.037zM16.053 19.057c0 .037 0 .074-.019.074-.019.019-.019.019-.019.056.038 0 .077-.019.077-.075.019-.074 0-.093-.039-.055zM15.306 28.352c-.039-.019-.058-.019-.058 0 .02.019 0 .037-.019.075.058 0 .077-.02.077-.075zM15.172 30.587c-.02.038-.02.056.019.056.038-.018.057 0 .057.019.02-.056 0-.075-.076-.075zM15.248 31.612c-.038-.037-.057-.037-.057 0 .019.037.019.037.057 0zM15.632 20.77s-.02 0-.058-.018c0 .037.02.056.058.018zM15.708 27.607c.02.037.039.037.039 0s-.02-.037-.039 0zM15.843 28.948c0-.037-.02-.037-.039 0 .039.037.039.037.039 0zM15.708 28.203c.02.037.039.037.039 0 0-.056-.02-.056-.039 0zM15.632 20.752c.019 0 .019 0 0 0 .019 0 .019 0 0 0zM16.053 20.528c0-.037-.019-.037-.038 0 .02.037.038.037.038 0zM16.111 18.684c0-.037-.02-.037-.038 0 .038.056.038.056.038 0zM15.65 28.818c.02 0 .04 0 .04.018 0 .019.018.019.038.019a.372.372 0 0 0 0-.205c0 .037-.02.075-.039.075-.038.018-.038.055-.038.093zM15.708 21.236c.02-.019.039-.037.077-.037 0 0-.02 0-.077.037z"/>
            <path d="M15.958 20.92c-.02 0-.039-.02-.039-.038-.038.019-.076.056-.076.093a.13.13 0 0 1-.115.075.537.537 0 0 0 .115-.317c.019-.093.019-.205.057-.335-.038.037-.057.056-.057.018.019-.037 0-.055-.02-.074-.038.149-.057.242-.038.298-.038 0-.077.019-.077.075 0 .018-.019.037-.038.055 0 0 0 .019-.02.038 0 .018-.018.037-.037.074-.039 0-.058-.018-.058-.074.02-.038 0-.075-.02-.075-.018.037-.018.075-.018.075.019 0 .019.018.019.074.077 0 .096.019.096.075 0 .037-.02.074-.039.074-.019.019-.038.037-.038.075.096 0 .153.018.173.074l.076-.074c.02-.019.02-.019.02.018-.02.038 0 .056.057.056a.156.156 0 0 0 .077-.13c-.02 0-.039.018-.058.037-.02.019-.02.019-.057-.037.019-.019.038-.037.076-.037.02-.038.039-.056.039-.094zM16.38 22.093a.512.512 0 0 0-.039-.335c.02.037.02.074 0 .074-.02.019-.038.019-.038.056.038 0 .057.019.038.075 0 .074 0 .111.038.13z"/>
            <path d="M15.65 21.143c-.037.037-.037.074.04.093-.02-.056-.02-.093-.04-.093zM16.015 22.205c0 .037-.019.056-.038.074.038.019.076 0 .076-.056.02-.056 0-.074-.019-.074 0 .018-.019.037-.019.056zM15.958 20.565c.019.038.019.056 0 .056-.02-.018-.039 0-.039.019h.077c-.02-.056-.02-.075-.038-.075zM15.747 21.385c.019-.037.019-.074-.02-.074-.038-.019-.057 0-.076.018.038-.018.057-.018.057.037-.019.02 0 .038.039.02zM15.613 20.621c0 .019-.02.019-.039.019-.019-.019-.038 0-.038.056h.077v-.075zM15.67 20.416c-.038 0-.077.02-.077.038.058 0 .077 0 .077-.038zM15.958 19.764c0-.037-.02-.037-.039 0 .02.056.039.056.039 0zM15.92 20.845c.018.037.038.037.038 0s-.02-.037-.039 0z"/>
        </g>
    </g>
</svg>
