<svg width="14" height="14" viewBox="0 0 14 14" xmlns="http://www.w3.org/2000/svg">
    <path d="M7 8.76c1.474 0 3.009.32 4.605.962 1.597.642 2.395 1.48 2.395 2.518V14H0v-1.76c0-1.037.798-1.876 2.395-2.518C3.99 9.081 5.526 8.76 7 8.76zM7 7c-.955 0-1.774-.342-2.456-1.024-.683-.682-1.024-1.5-1.024-2.456 0-.955.341-1.78 1.024-2.477C5.226.348 6.045 0 7 0c.956 0 1.775.348 2.457 1.043.682.696 1.024 1.522 1.024 2.477 0 .955-.342 1.774-1.024 2.456C8.775 6.658 7.956 7 7 7z" fill="#EBE2D7" fill-rule="nonzero"/>
</svg>
