<svg width="156" height="156" viewBox="0 0 156 156" xmlns="http://www.w3.org/2000/svg">
    <defs>
        <linearGradient x1="55.356%" y1="0%" x2="60.44%" y2="107.486%" id="a">
            <stop stop-color="#D04109" offset="0%"/>
            <stop stop-color="#641634" offset="100%"/>
        </linearGradient>
    </defs>
    <g fill="none" fill-rule="evenodd">
        <rect fill="url(#a)" width="156" height="156" rx="77.85"/>
        <g fill="#FFFDF8" fill-rule="nonzero">
            <path d="M57.353 58.773h8.47v-2.137c0-.59.475-1.068 1.06-1.068h6.352v-5.765c0-.59.474-1.068 1.06-1.068h7.41c.586 0 1.06.479 1.06 1.068v5.765h6.353c.585 0 1.058.479 1.058 1.068v2.137h8.471V41.682H57.353v17.09z"/>
            <path d="M98.294 31H57.706C54.008 31 51 34.035 51 37.765v80.47c0 3.73 3.008 6.765 6.706 6.765h40.588c3.698 0 6.706-3.035 6.706-6.765v-80.47c0-3.73-3.008-6.765-6.706-6.765zm-24 3.205h7.412c.585 0 1.059.478 1.059 1.068 0 .59-.474 1.068-1.06 1.068h-7.41a1.064 1.064 0 0 1-1.06-1.068c0-.59.474-1.068 1.06-1.068zM78 120.727c-1.46 0-2.647-1.198-2.647-2.67 0-1.473 1.187-2.67 2.647-2.67 1.46 0 2.647 1.197 2.647 2.67 0 1.472-1.187 2.67-2.647 2.67zm22.765-10.682c0 .59-.474 1.069-1.06 1.069h-43.41a1.064 1.064 0 0 1-1.06-1.069V40.614c0-.59.474-1.069 1.06-1.069h43.41c.586 0 1.06.479 1.06 1.069v69.431z"/>
            <path d="M90.176 64.114c0 .59-.473 1.068-1.058 1.068h-6.353V83.34c0 .59-.474 1.068-1.06 1.068h-7.41a1.064 1.064 0 0 1-1.06-1.068V65.18h-6.353a1.064 1.064 0 0 1-1.058-1.067v-3.205h-8.471v41.66h41.294v-41.66h-8.47v3.205zm-22.235 36.318H60.53a1.064 1.064 0 0 1-1.058-1.068c0-.59.474-1.069 1.058-1.069h7.412c.585 0 1.059.479 1.059 1.069s-.474 1.068-1.059 1.068zm0-4.273H60.53a1.064 1.064 0 0 1-1.058-1.068c0-.59.474-1.068 1.058-1.068h7.412c.585 0 1.059.478 1.059 1.068 0 .59-.474 1.068-1.059 1.068zm0-4.273H60.53a1.064 1.064 0 0 1-1.058-1.068c0-.59.474-1.068 1.058-1.068h7.412c.585 0 1.059.478 1.059 1.068 0 .59-.474 1.068-1.059 1.068zm0-4.272H60.53a1.064 1.064 0 0 1-1.058-1.069c0-.59.474-1.068 1.058-1.068h7.412c.585 0 1.059.478 1.059 1.068 0 .59-.474 1.069-1.059 1.069zm27.53 12.818h-7.412A1.063 1.063 0 0 1 87 99.364c0-.59.474-1.069 1.059-1.069h7.412c.584 0 1.058.479 1.058 1.069s-.474 1.068-1.058 1.068zm0-4.273h-7.412A1.063 1.063 0 0 1 87 95.091c0-.59.474-1.068 1.059-1.068h7.412c.584 0 1.058.478 1.058 1.068 0 .59-.474 1.068-1.058 1.068zm0-4.273h-7.412A1.063 1.063 0 0 1 87 90.818c0-.59.474-1.068 1.059-1.068h7.412c.584 0 1.058.478 1.058 1.068 0 .59-.474 1.068-1.058 1.068zm1.058-5.34c0 .59-.474 1.068-1.058 1.068h-7.412A1.063 1.063 0 0 1 87 86.545c0-.59.474-1.068 1.059-1.068h7.412c.584 0 1.058.478 1.058 1.068zM57.353 104.705h41.294v4.272H57.353z"/>
            <g>
                <path d="M57.353 58.773h8.47v-2.137c0-.59.475-1.068 1.06-1.068h6.352v-5.765c0-.59.474-1.068 1.06-1.068h7.41c.586 0 1.06.479 1.06 1.068v5.765h6.353c.585 0 1.058.479 1.058 1.068v2.137h8.471V41.682H57.353v17.09z"/>
                <path d="M98.294 31H57.706C54.008 31 51 34.035 51 37.765v80.47c0 3.73 3.008 6.765 6.706 6.765h40.588c3.698 0 6.706-3.035 6.706-6.765v-80.47c0-3.73-3.008-6.765-6.706-6.765zm-24 3.205h7.412c.585 0 1.059.478 1.059 1.068 0 .59-.474 1.068-1.06 1.068h-7.41a1.064 1.064 0 0 1-1.06-1.068c0-.59.474-1.068 1.06-1.068zM78 120.727c-1.46 0-2.647-1.198-2.647-2.67 0-1.473 1.187-2.67 2.647-2.67 1.46 0 2.647 1.197 2.647 2.67 0 1.472-1.187 2.67-2.647 2.67zm22.765-10.682c0 .59-.474 1.069-1.06 1.069h-43.41a1.064 1.064 0 0 1-1.06-1.069V40.614c0-.59.474-1.069 1.06-1.069h43.41c.586 0 1.06.479 1.06 1.069v69.431z"/>
                <path d="M90.176 64.114c0 .59-.473 1.068-1.058 1.068h-6.353V83.34c0 .59-.474 1.068-1.06 1.068h-7.41a1.064 1.064 0 0 1-1.06-1.068V65.18h-6.353a1.064 1.064 0 0 1-1.058-1.067v-3.205h-8.471v41.66h41.294v-41.66h-8.47v3.205zm-22.235 36.318H60.53a1.064 1.064 0 0 1-1.058-1.068c0-.59.474-1.069 1.058-1.069h7.412c.585 0 1.059.479 1.059 1.069s-.474 1.068-1.059 1.068zm0-4.273H60.53a1.064 1.064 0 0 1-1.058-1.068c0-.59.474-1.068 1.058-1.068h7.412c.585 0 1.059.478 1.059 1.068 0 .59-.474 1.068-1.059 1.068zm0-4.273H60.53a1.064 1.064 0 0 1-1.058-1.068c0-.59.474-1.068 1.058-1.068h7.412c.585 0 1.059.478 1.059 1.068 0 .59-.474 1.068-1.059 1.068zm0-4.272H60.53a1.064 1.064 0 0 1-1.058-1.069c0-.59.474-1.068 1.058-1.068h7.412c.585 0 1.059.478 1.059 1.068 0 .59-.474 1.069-1.059 1.069zm27.53 12.818h-7.412A1.063 1.063 0 0 1 87 99.364c0-.59.474-1.069 1.059-1.069h7.412c.584 0 1.058.479 1.058 1.069s-.474 1.068-1.058 1.068zm0-4.273h-7.412A1.063 1.063 0 0 1 87 95.091c0-.59.474-1.068 1.059-1.068h7.412c.584 0 1.058.478 1.058 1.068 0 .59-.474 1.068-1.058 1.068zm0-4.273h-7.412A1.063 1.063 0 0 1 87 90.818c0-.59.474-1.068 1.059-1.068h7.412c.584 0 1.058.478 1.058 1.068 0 .59-.474 1.068-1.058 1.068zm1.058-5.34c0 .59-.474 1.068-1.058 1.068h-7.412A1.063 1.063 0 0 1 87 86.545c0-.59.474-1.068 1.059-1.068h7.412c.584 0 1.058.478 1.058 1.068zM57.353 104.705h41.294v4.272H57.353z"/>
            </g>
        </g>
    </g>
</svg>
