<svg width="16" height="16" viewBox="0 0 16 16" xmlns="http://www.w3.org/2000/svg">
    <path d="M6.243 10.13c1.072 0 1.984-.375 2.735-1.126.75-.751 1.126-1.663 1.126-2.735 0-1.073-.375-1.985-1.126-2.736-.751-.75-1.663-1.126-2.735-1.126-1.073 0-1.984.375-2.735 1.126-.751.751-1.127 1.663-1.127 2.736 0 1.072.376 1.984 1.127 2.735.75.75 1.662 1.126 2.735 1.126zm5.147 0 4.263 4.263-1.287 1.287-4.263-4.263v-.684l-.24-.24c-1.02.884-2.226 1.326-3.62 1.326-1.555 0-2.876-.536-3.961-1.608C1.196 9.138.653 7.825.653 6.269c0-1.555.543-2.875 1.629-3.96C3.367 1.222 4.688.68 6.242.68c1.556 0 2.87.543 3.942 1.628 1.072 1.086 1.609 2.406 1.609 3.961 0 .563-.134 1.2-.403 1.911-.268.71-.576 1.28-.925 1.709l.242.241h.683z" fill="#FFFCF5" fill-rule="nonzero"/>
</svg>
