<svg width="20" height="21" viewBox="0 0 20 21" xmlns="http://www.w3.org/2000/svg">
    <g fill="#000" fill-rule="nonzero" opacity=".3">
        <path d="M10 7.219c-1.737 0-3.15 1.472-3.15 3.281 0 1.81 1.413 3.281 3.15 3.281 1.737 0 3.15-1.472 3.15-3.281 0-1.81-1.413-3.281-3.15-3.281zm0 4.922c-.868 0-1.575-.736-1.575-1.641S9.132 8.86 10 8.86s1.575.735 1.575 1.64c0 .905-.707 1.64-1.575 1.64z"/>
        <path d="m19.691 12.946-2.038-1.628a8.054 8.054 0 0 0 0-1.636l2.038-1.628a.843.843 0 0 0 .2-1.068L17.916 3.5a.772.772 0 0 0-.967-.346l-2.419.993a7.619 7.619 0 0 0-1.413-.835l-.363-2.61a.798.798 0 0 0-.78-.702H8.026c-.392 0-.724.3-.78.703l-.363 2.61a7.62 7.62 0 0 0-1.413.834l-2.42-.993a.772.772 0 0 0-.966.347L.109 6.986a.843.843 0 0 0 .2 1.068l2.038 1.628a8.054 8.054 0 0 0 0 1.636L.31 12.946a.843.843 0 0 0-.2 1.068L2.084 17.5a.772.772 0 0 0 .966.346l2.42-.993c.441.33.914.609 1.413.835l.363 2.61a.798.798 0 0 0 .78.702h3.948c.392 0 .724-.3.78-.703l.363-2.61a7.618 7.618 0 0 0 1.413-.834l2.42.993c.36.148.77 0 .966-.346l1.975-3.486a.843.843 0 0 0-.2-1.068zm-2.79 3.117-2.206-.906a.762.762 0 0 0-.785.127c-.532.45-1.13.802-1.776 1.046a.814.814 0 0 0-.51.654l-.331 2.375H8.707l-.33-2.375a.814.814 0 0 0-.511-.654 6.075 6.075 0 0 1-1.776-1.046.762.762 0 0 0-.785-.127l-2.206.906-1.279-2.257L3.67 12.33a.838.838 0 0 0 .297-.79 6.364 6.364 0 0 1 0-2.08.838.838 0 0 0-.297-.79L1.82 7.194 3.1 4.937l2.206.906c.264.108.564.06.785-.127A6.075 6.075 0 0 1 7.866 4.67a.814.814 0 0 0 .51-.654l.331-2.375h2.586l.33 2.375c.042.3.238.55.511.654a6.075 6.075 0 0 1 1.776 1.046c.22.187.52.235.785.127l2.206-.906 1.279 2.257L16.33 8.67a.838.838 0 0 0-.297.79c.116.7.112 1.402 0 2.08-.05.3.065.605.297.79l1.849 1.476-1.279 2.257z"/>
    </g>
</svg>
