<svg width="19" height="19" xmlns="http://www.w3.org/2000/svg">
    <path d="M9.254 12.809c.92 0 1.705-.326 2.357-.978a3.212 3.212 0 0 0 .978-2.357c0-.919-.326-1.704-.978-2.357a3.212 3.212 0 0 0-2.357-.978c-.919 0-1.704.326-2.356.978a3.212 3.212 0 0 0-.978 2.357c0 .92.326 1.705.978 2.357a3.212 3.212 0 0 0 2.356.978zm7.071-2.402 2.001 1.557c.208.148.237.355.09.622l-1.913 3.291c-.12.208-.312.267-.578.179l-2.357-.934c-.622.445-1.156.756-1.601.934l-.356 2.49c-.06.267-.208.4-.445.4H7.342c-.237 0-.386-.133-.445-.4l-.356-2.49a7.287 7.287 0 0 1-1.601-.934l-2.357.934c-.267.089-.46.03-.578-.179L.092 12.586c-.148-.267-.118-.474.09-.622l2-1.557a7.162 7.162 0 0 1-.044-.934c0-.415.015-.726.045-.933L.182 6.983c-.208-.148-.238-.356-.09-.623l1.913-3.29c.119-.208.312-.268.578-.18l2.357.934c.622-.444 1.156-.755 1.601-.933L6.897.4C6.957.132 7.105 0 7.342 0h3.824c.237 0 .386.133.445.4l.356 2.49a7.287 7.287 0 0 1 1.601.934l2.357-.933c.267-.09.46-.03.578.178l1.912 3.291c.148.267.119.475-.089.623l-2 1.557c.03.207.044.518.044.933 0 .415-.015.726-.045.934z" fill="#000" fill-rule="nonzero"/>
</svg>
