<svg width="16" height="18" viewBox="0 0 16 18" xmlns="http://www.w3.org/2000/svg">
    <path d="M12.991 12.108a3.03 3.03 0 0 0-2.225.964l-4.954-3.004a2.876 2.876 0 0 0 0-2.136l4.954-3.005a3.03 3.03 0 0 0 2.225.965c1.66 0 3.009-1.321 3.009-2.946C16 1.322 14.65 0 12.991 0c-1.66 0-3.009 1.322-3.009 2.946 0 .377.074.737.206 1.069L5.234 7.019a3.03 3.03 0 0 0-2.225-.965C1.349 6.054 0 7.376 0 9c0 1.625 1.35 2.946 3.009 2.946a3.03 3.03 0 0 0 2.225-.965l4.954 3.004a2.879 2.879 0 0 0-.206 1.069c0 1.624 1.35 2.946 3.01 2.946C14.65 18 16 16.678 16 15.054c0-1.625-1.35-2.946-3.009-2.946zM11.08 2.946c0-1.032.858-1.872 1.912-1.872 1.054 0 1.912.84 1.912 1.872s-.858 1.872-1.912 1.872c-1.054 0-1.912-.84-1.912-1.872zm-8.07 7.926c-1.054 0-1.912-.84-1.912-1.872s.858-1.872 1.912-1.872c1.054 0 1.912.84 1.912 1.872s-.858 1.872-1.912 1.872zm8.07 4.182c0-1.032.858-1.872 1.912-1.872 1.054 0 1.912.84 1.912 1.872s-.858 1.872-1.912 1.872c-1.054 0-1.912-.84-1.912-1.872z" fill="#6B1931" fill-rule="nonzero"/>
</svg>
