<svg width="15" height="13" viewBox="0 0 15 13" xmlns="http://www.w3.org/2000/svg">
    <path d="M15 1.444a6.308 6.308 0 0 1-1.762.487 3 3 0 0 0 1.35-1.706c-.6.356-1.257.6-1.95.75a3.077 3.077 0 0 0-5.325 2.1c0 .244.018.469.075.694-2.55-.113-4.8-1.35-6.32-3.207-1.087 1.95.132 3.563.938 4.107-.487 0-.975-.15-1.387-.375 0 1.519 1.069 2.775 2.456 3.056-.3.094-.975.15-1.388.056.394 1.219 1.538 2.119 2.87 2.138-1.05.825-2.588 1.481-4.557 1.275a8.674 8.674 0 0 0 4.725 1.387c5.662 0 8.738-4.687 8.738-8.737 0-.131 0-.263-.02-.394A6.103 6.103 0 0 0 15 1.444z" fill="#6C1931" fill-rule="nonzero"/>
</svg>
