<svg width="77" height="77" viewBox="0 0 77 77" xmlns="http://www.w3.org/2000/svg">
    <g fill-rule="nonzero" fill="none">
        <path d="M27.393 12.76a3.331 3.331 0 0 1 4.12-1.399 3.334 3.334 0 0 0 3.52-.652 3.343 3.343 0 0 1 4.354-.172 3.351 3.351 0 0 0 3.568.373 3.362 3.362 0 0 1 4.234 1.069 3.374 3.374 0 0 0 3.327 1.367 3.384 3.384 0 0 1 3.772 2.222 3.395 3.395 0 0 0 2.816 2.252 3.4 3.4 0 0 1 3.003 3.196c.071 1.3.879 2.45 2.077 2.954a3.406 3.406 0 0 1 1.992 3.91 3.407 3.407 0 0 0 1.17 3.416 3.4 3.4 0 0 1 .82 4.309 3.395 3.395 0 0 0 .166 3.601 3.384 3.384 0 0 1-.42 4.358 3.374 3.374 0 0 0-.848 3.495 3.363 3.363 0 0 1-1.624 4.053 3.35 3.35 0 0 0-1.797 3.107 3.343 3.343 0 0 1-2.697 3.42 3.334 3.334 0 0 0-2.598 2.466 3.331 3.331 0 0 1-3.552 2.51 3.327 3.327 0 0 0-3.189 1.626 3.332 3.332 0 0 1-4.12 1.398 3.334 3.334 0 0 0-3.52.652 3.343 3.343 0 0 1-4.354.172 3.351 3.351 0 0 0-3.568-.373 3.362 3.362 0 0 1-4.234-1.069 3.374 3.374 0 0 0-3.327-1.367 3.384 3.384 0 0 1-3.772-2.222 3.395 3.395 0 0 0-2.816-2.252 3.4 3.4 0 0 1-3.003-3.196 3.407 3.407 0 0 0-2.077-2.954 3.406 3.406 0 0 1-1.992-3.91 3.407 3.407 0 0 0-1.17-3.416 3.4 3.4 0 0 1-.82-4.309 3.395 3.395 0 0 0-.166-3.601 3.384 3.384 0 0 1 .42-4.358 3.374 3.374 0 0 0 .848-3.495 3.363 3.363 0 0 1 1.624-4.053 3.35 3.35 0 0 0 1.796-3.107 3.343 3.343 0 0 1 2.698-3.42 3.334 3.334 0 0 0 2.598-2.466 3.331 3.331 0 0 1 3.552-2.51 3.327 3.327 0 0 0 3.189-1.626z" fill="#FFB71B"/>
        <g fill="#FFF">
            <path d="m20.733 42.833 1.735 3.406 4.223-2.15 1.041 2.043-4.222 2.151 2.083 4.089-2.408 1.226-5.902-11.583 7.572-3.858 1.042 2.044zM26.547 37.295l4.606-2.347c2.792-1.422 4.836-.861 6.132 1.682.77 1.51.755 2.92-.044 4.228l3.949 3.566-2.634 1.343-3.358-3.182-2.32 1.183 1.979 3.883-2.408 1.227-5.902-11.583zm7.54 3.325c.547-.279.88-.66 1-1.143s.036-1.008-.254-1.576c-.289-.568-.667-.937-1.135-1.106-.467-.17-.974-.115-1.52.163l-2.199 1.12 1.875 3.68 2.233-1.138zM40.813 32.601l1.38 2.708 4.222-2.15 1.024 2.009-4.222 2.151 1.415 2.777 5.269-2.685 1.041 2.044-7.676 3.912-5.902-11.583 7.677-3.912 1.041 2.044zM50.478 27.676l1.38 2.709 4.222-2.152 1.025 2.01-4.223 2.152 1.415 2.776 5.269-2.684 1.042 2.044-7.677 3.911-5.902-11.583 7.677-3.911 1.041 2.044z"/>
        </g>
    </g>
</svg>
